<svg id="Layer_1" data-name="Layer 1" xmlns="http://www.w3.org/2000/svg" viewBox="0 0 657.74 220.34" preserveAspectRatio="xMidYMid meet"><defs><style>.cls-1{fill:white;}.cls-2{fill:none;stroke:white;stroke-width:8px;}</style></defs><title>baseballScript</title><path class="cls-1" d="M183.34,93.63c1.67,2.89-.13,8.92-4,13.47l-2.25,5q-3.39,7.52-7.28,29.73a335.54,335.54,0,0,1-8.46,37.47,99.51,99.51,0,0,1-14,28.72,76.64,76.64,0,0,1-23.11,21.82A61.23,61.23,0,0,1,95.55,239c-8.91.5-15.5-1.38-19.76-5.69s-6-10.69-5.11-19.09l.3-3c.58-2.53,4.43-7.66,8.53-11.37l4.56-2.76c4.55-2.75,7.54-4.13,9-4.17q3.56-.09,2.94,6.52-.1,1.08-1.51,7.55T93,214.8q-1.42,14.84,9.2,14.31c7.14-.36,13.86-6.23,20.07-17.44s11.35-27.65,15.44-49.3,8.44-36.47,13.07-44.55,10.12-14.18,16.47-18.3,11.16-6.08,14.48-6Zm-4.93,57.48c.88-4.59,8.06-9.4,15.95-10.67l1.48-7.1c1.51-7.24,5.65-13.19,6.15-20.66.69-10.32-1.68-18.65-7.07-25.11s-13-10-22.81-10.46c-13.2-.65-25.43,3.37-36.84,12.38s-17.72,19.43-18.78,31c-.63,6.89,1.94,12,7.75,15.17q2.23,1.2,2.13,2.26c-3.92,5.39-3.3,4.81-8.65,10.14-5.11,5.09-8.94,3.93-10.56,3.93-2.54,0-4.88-2.52-7-7.61a32.54,32.54,0,0,1-2.37-15.83c.92-9.53,5-19.46,12.25-29.59a72.53,72.53,0,0,1,28.52-23.61c11.8-5.61,24.92-7.91,39.47-7.1,15.56.87,27.88,5.46,37.08,13.55s13.5,18,12.8,29.78c-1,17.61-12.72,29.52-35.3,36.14,16.91,6.31,24.91,18.31,23.81,36.36-.81,13.19-5.9,24.63-15.42,34.59s-20.56,15.41-33,16.1q-8.24.46-13.46-3.06c-3.48-2.35-5.07-5.36-4.77-9,.19-2.4,1.62-5.71,4.27-9.9s5-6.31,6.95-6.38q4.08-.15,4,10.86-.06,8.72,4,8.51c4.47-.22,8.85-6.11,13.07-17.55a122.8,122.8,0,0,0,7.49-34.18c1-13.79-2.78-21.43-11.19-23Z" transform="translate(-66.47 -64.08)"/><path class="cls-2" d="M183.34,93.63c1.67,2.89-.13,8.92-4,13.47l-2.25,5q-3.39,7.52-7.28,29.73a335.54,335.54,0,0,1-8.46,37.47,99.51,99.51,0,0,1-14,28.72,76.64,76.64,0,0,1-23.11,21.82A61.23,61.23,0,0,1,95.55,239c-8.91.5-15.5-1.38-19.76-5.69s-6-10.69-5.11-19.09l.3-3c.58-2.53,4.43-7.66,8.53-11.37l4.56-2.76c4.55-2.75,7.54-4.13,9-4.17q3.56-.09,2.94,6.52-.1,1.08-1.51,7.55T93,214.8q-1.42,14.84,9.2,14.31c7.14-.36,13.86-6.23,20.07-17.44s11.35-27.65,15.44-49.3,8.44-36.47,13.07-44.55,10.12-14.18,16.47-18.3,11.16-6.08,14.48-6Zm-4.93,57.48c.88-4.59,8.06-9.4,15.95-10.67l1.48-7.1c1.51-7.24,5.65-13.19,6.15-20.66.69-10.32-1.68-18.65-7.07-25.11s-13-10-22.81-10.46c-13.2-.65-25.43,3.37-36.84,12.38s-17.72,19.43-18.78,31c-.63,6.89,1.94,12,7.75,15.17q2.23,1.2,2.13,2.26c-3.92,5.39-3.3,4.81-8.65,10.14-5.11,5.09-8.94,3.93-10.56,3.93-2.54,0-4.88-2.52-7-7.61a32.54,32.54,0,0,1-2.37-15.83c.92-9.53,5-19.46,12.25-29.59a72.53,72.53,0,0,1,28.52-23.61c11.8-5.61,24.92-7.91,39.47-7.1,15.56.87,27.88,5.46,37.08,13.55s13.5,18,12.8,29.78c-1,17.61-12.72,29.52-35.3,36.14,16.91,6.31,24.91,18.31,23.81,36.36-.81,13.19-5.9,24.63-15.42,34.59s-20.56,15.41-33,16.1q-8.24.46-13.46-3.06c-3.48-2.35-5.07-5.36-4.77-9,.19-2.4,1.62-5.71,4.27-9.9s5-6.31,6.95-6.38q4.08-.15,4,10.86-.06,8.72,4,8.51c4.47-.22,8.85-6.11,13.07-17.55a122.8,122.8,0,0,0,7.49-34.18c1-13.79-2.78-21.43-11.19-23Z" transform="translate(-66.47 -64.08)"/><path class="cls-1" d="M316.78,182.28c-.16,5.88-5.84,16-12.67,22.64a97.73,97.73,0,0,1-8.74,7.44c-4.24,3.09-8.26,4.74-12,4.92Q269.09,218,271.1,191c-6.35,9.35-12.19,16.4-17.46,21s-10.63,7.12-16,7.38-9.62-2.25-13-7.56-4.79-12-4.31-20a62.74,62.74,0,0,1,9-28.58,68.63,68.63,0,0,1,19.78-21.69c7.82-5.43,14.57-8,20.34-8,7.27.09,12.21,3.83,14.84,11.15l4-2.35c7.86-4.57,15.34-8.2,16.69-8.18s.52,6.19-1.87,13.76-6.52,21.27-9.21,30.48a61.6,61.6,0,0,0-2.22,12.13q-.3,8.16,5.15,8c2.32-.08,4.93-1.48,7.81-4.17s6.93-6.76,12.12-12.16Zm-65.92,18.13c6-.21,11.86-6,17.6-17s8.75-21.14,9.14-30.34q.23-5.37-1.84-8.39a6.62,6.62,0,0,0-5.74-3.06c-5.84,0-11.62,5.39-17.43,16.48s-9,21.4-9.51,30.76q-.28,5.3,1.91,8.52A6.48,6.48,0,0,0,250.86,200.41Z" transform="translate(-66.47 -64.08)"/><path class="cls-2" d="M316.78,182.28c-.16,5.88-5.84,16-12.67,22.64a97.73,97.73,0,0,1-8.74,7.44c-4.24,3.09-8.26,4.74-12,4.92Q269.09,218,271.1,191c-6.35,9.35-12.19,16.4-17.46,21s-10.63,7.12-16,7.38-9.62-2.25-13-7.56-4.79-12-4.31-20a62.74,62.74,0,0,1,9-28.58,68.63,68.63,0,0,1,19.78-21.69c7.82-5.43,14.57-8,20.34-8,7.27.09,12.21,3.83,14.84,11.15l4-2.35c7.86-4.57,15.34-8.2,16.69-8.18s.52,6.19-1.87,13.76-6.52,21.27-9.21,30.48a61.6,61.6,0,0,0-2.22,12.13q-.3,8.16,5.15,8c2.32-.08,4.93-1.48,7.81-4.17s6.93-6.76,12.12-12.16Zm-65.92,18.13c6-.21,11.86-6,17.6-17s8.75-21.14,9.14-30.34q.23-5.37-1.84-8.39a6.62,6.62,0,0,0-5.74-3.06c-5.84,0-11.62,5.39-17.43,16.48s-9,21.4-9.51,30.76q-.28,5.3,1.91,8.52A6.48,6.48,0,0,0,250.86,200.41Z" transform="translate(-66.47 -64.08)"/><path class="cls-1" d="M338.34,138.61q6.07-1.6,12.2-2.57a70.29,70.29,0,0,1,7.35-1c.58,0,.87.25.86.73a6.41,6.41,0,0,1-.74,2.79,25,25,0,0,0-1.51,7.94c0,3.13,1.66,7.42,5.11,12.8s5.18,10.34,5.13,14.95c-.09,9.15-4.52,18.06-13.4,27s-18.1,13.73-27.52,14.18a18.52,18.52,0,0,1-11.07-2.82q-4.94-3.13-4.81-7c0-1.5,1.79-4.41,5.22-8.69s5.84-6.41,7.27-6.46c1.9-.06,3.53,2.43,4.9,7.43s3.88,7.41,7.53,7.27,7.11-2,10.36-5.57,4.91-7.28,5-11.22-1.87-8.84-5.77-15.15-6.43-11.68-7.63-16a272.17,272.17,0,0,1-27,36h0c-1.13,0-1.93-3.73-1.79-8.37h0C323.07,168.15,333.08,152.93,338.34,138.61Z" transform="translate(-66.47 -64.08)"/><path class="cls-2" d="M338.34,138.61q6.07-1.6,12.2-2.57a70.29,70.29,0,0,1,7.35-1c.58,0,.87.25.86.73a6.41,6.41,0,0,1-.74,2.79,25,25,0,0,0-1.51,7.94c0,3.13,1.66,7.42,5.11,12.8s5.18,10.34,5.13,14.95c-.09,9.15-4.52,18.06-13.4,27s-18.1,13.73-27.52,14.18a18.52,18.52,0,0,1-11.07-2.82q-4.94-3.13-4.81-7c0-1.5,1.79-4.41,5.22-8.69s5.84-6.41,7.27-6.46c1.9-.06,3.53,2.43,4.9,7.43s3.88,7.41,7.53,7.27,7.11-2,10.36-5.57,4.91-7.28,5-11.22-1.87-8.84-5.77-15.15-6.43-11.68-7.63-16a272.17,272.17,0,0,1-27,36h0c-1.13,0-1.93-3.73-1.79-8.37h0C323.07,168.15,333.08,152.93,338.34,138.61Z" transform="translate(-66.47 -64.08)"/><path class="cls-1" d="M437.24,179.45c.1,5.36-5.16,14.56-11.76,20.58a61.09,61.09,0,0,1-8.27,5.73,41.59,41.59,0,0,1-20,6.09c-8.16.39-14.75-1.84-19.71-6.8s-7.39-11.7-7.31-20.18c.11-12.65,4.57-24.19,13.22-34.31s18.11-15,28.53-14.86c5.42.06,9.76,1.5,13.07,4.26a13.72,13.72,0,0,1,5.06,10.8c.19,11.76-12.59,21.4-38.69,29.59,2.36,11.4,8.6,16.86,18.69,16.48a23,23,0,0,0,11.24-3.46c3.55-2.15,8.89-6.84,15.94-13.92Zm-46.58-5.07c15.15-4.53,22.62-12.26,22.52-23.44q-.07-8.3-6.2-8.34c-3.85,0-7.52,2.87-11,8.75S390.67,164.93,390.66,174.38Z" transform="translate(-66.47 -64.08)"/><path class="cls-2" d="M437.24,179.45c.1,5.36-5.16,14.56-11.76,20.58a61.09,61.09,0,0,1-8.27,5.73,41.59,41.59,0,0,1-20,6.09c-8.16.39-14.75-1.84-19.71-6.8s-7.39-11.7-7.31-20.18c.11-12.65,4.57-24.19,13.22-34.31s18.11-15,28.53-14.86c5.42.06,9.76,1.5,13.07,4.26a13.72,13.72,0,0,1,5.06,10.8c.19,11.76-12.59,21.4-38.69,29.59,2.36,11.4,8.6,16.86,18.69,16.48a23,23,0,0,0,11.24-3.46c3.55-2.15,8.89-6.84,15.94-13.92Zm-46.58-5.07c15.15-4.53,22.62-12.26,22.52-23.44q-.07-8.3-6.2-8.34c-3.85,0-7.52,2.87-11,8.75S390.67,164.93,390.66,174.38Z" transform="translate(-66.47 -64.08)"/><path class="cls-1" d="M517.21,177.57c.27,5-.5,11.56-1.71,14.55l-12.51,1c-4.64.37-9.7-1.63-15.1-5.48-6.1,6.87-11.59,12.09-16.43,15.55a29.42,29.42,0,0,1-16,5.64,16.23,16.23,0,0,1-13.26-5.46c-3.61-3.91-5.46-8.91-5.57-15-.21-11.82,3.15-27.92,9.83-47.78S459.6,106.08,466,96.32q11.22-3,19.73-4.64c5.68-1.13,8.94-1.65,9.8-1.61q2.48.13,4.47,3.32a15.39,15.39,0,0,1,2.2,7.53c.29,6-2,12.91-7.06,20.9A130.4,130.4,0,0,1,475,145.87l-.2.2c-6,5.78-12.48,17.24-14.36,25.39a56.14,56.14,0,0,0-1.3,12.06,11.52,11.52,0,0,0,2.53,7.51,7.44,7.44,0,0,0,6.17,2.61,13.29,13.29,0,0,0,7.84-2.83,44.92,44.92,0,0,0,7.62-8.11,26.81,26.81,0,0,1-5-14.32,37.15,37.15,0,0,1,6.09-22c4.33-6.68,9.05-9.93,14.23-9.87a6.55,6.55,0,0,1,5.14,2.55,10.84,10.84,0,0,1,2.29,6.59c.43,8.77-4.33,20.67-14.61,36.31,3.42,3.59,7.22,5.3,11.39,5.17a13.27,13.27,0,0,0,6.7-1.85c1.85-1.15,4.4-3.74,7.62-7.74ZM467.9,143.89c9.16-8.71,16-16.56,20.51-23.72s6.69-12.53,6.52-16.25a6.56,6.56,0,0,0-1.24-3.76A3.54,3.54,0,0,0,491,98.58C484.27,98.29,476.77,113,467.9,143.89Z" transform="translate(-66.47 -64.08)"/><path class="cls-2" d="M517.21,177.57c.27,5-.5,11.56-1.71,14.55l-12.51,1c-4.64.37-9.7-1.63-15.1-5.48-6.1,6.87-11.59,12.09-16.43,15.55a29.42,29.42,0,0,1-16,5.64,16.23,16.23,0,0,1-13.26-5.46c-3.61-3.91-5.46-8.91-5.57-15-.21-11.82,3.15-27.92,9.83-47.78S459.6,106.08,466,96.32q11.22-3,19.73-4.64c5.68-1.13,8.94-1.65,9.8-1.61q2.48.13,4.47,3.32a15.39,15.39,0,0,1,2.2,7.53c.29,6-2,12.91-7.06,20.9A130.4,130.4,0,0,1,475,145.87l-.2.2c-6,5.78-12.48,17.24-14.36,25.39a56.14,56.14,0,0,0-1.3,12.06,11.52,11.52,0,0,0,2.53,7.51,7.44,7.44,0,0,0,6.17,2.61,13.29,13.29,0,0,0,7.84-2.83,44.92,44.92,0,0,0,7.62-8.11,26.81,26.81,0,0,1-5-14.32,37.15,37.15,0,0,1,6.09-22c4.33-6.68,9.05-9.93,14.23-9.87a6.55,6.55,0,0,1,5.14,2.55,10.84,10.84,0,0,1,2.29,6.59c.43,8.77-4.33,20.67-14.61,36.31,3.42,3.59,7.22,5.3,11.39,5.17a13.27,13.27,0,0,0,6.7-1.85c1.85-1.15,4.4-3.74,7.62-7.74ZM467.9,143.89c9.16-8.71,16-16.56,20.51-23.72s6.69-12.53,6.52-16.25a6.56,6.56,0,0,0-1.24-3.76A3.54,3.54,0,0,0,491,98.58C484.27,98.29,476.77,113,467.9,143.89Z" transform="translate(-66.47 -64.08)"/><path class="cls-1" d="M607.37,175.45c.47,4.62-4.14,12.59-10.31,17.84,0,0-2.36,2-7.95,6a21.63,21.63,0,0,1-11.57,4q-14.24.71-15-20.62c-5.39,7.45-10.52,13.08-15.34,16.8a27,27,0,0,1-15.35,6,17.07,17.07,0,0,1-13.81-5.9,24.39,24.39,0,0,1-6.35-15.91,39.13,39.13,0,0,1,6.11-22.89,51.19,51.19,0,0,1,17.57-17.35C542.57,139,549,137,554.81,137c7.27.09,12.59,3.08,16,8.89l3.79-1.86c7.37-3.61,14.45-6.47,15.8-6.46s1.18,4.9-.39,10.89-4.25,16.82-6,24.1a37.11,37.11,0,0,0-.94,9.58q.56,6.44,6,6.24c2.32-.08,4.79-1.2,7.4-3.34s6.23-5.37,10.84-9.63Zm-64.21,14.73c6-.21,11.29-4.81,15.88-13.63s6.55-16.79,6-24.1a10.31,10.31,0,0,0-2.72-6.67,8.22,8.22,0,0,0-6.05-2.44c-5.84,0-11,4.28-15.72,13.13s-6.82,17.09-6.36,24.54a10.09,10.09,0,0,0,2.79,6.77A8,8,0,0,0,543.16,190.18Z" transform="translate(-66.47 -64.08)"/><path class="cls-2" d="M607.37,175.45c.47,4.62-4.14,12.59-10.31,17.84,0,0-2.36,2-7.95,6a21.63,21.63,0,0,1-11.57,4q-14.24.71-15-20.62c-5.39,7.45-10.52,13.08-15.34,16.8a27,27,0,0,1-15.35,6,17.07,17.07,0,0,1-13.81-5.9,24.39,24.39,0,0,1-6.35-15.91,39.13,39.13,0,0,1,6.11-22.89,51.19,51.19,0,0,1,17.57-17.35C542.57,139,549,137,554.81,137c7.27.09,12.59,3.08,16,8.89l3.79-1.86c7.37-3.61,14.45-6.47,15.8-6.46s1.18,4.9-.39,10.89-4.25,16.82-6,24.1a37.11,37.11,0,0,0-.94,9.58q.56,6.44,6,6.24c2.32-.08,4.79-1.2,7.4-3.34s6.23-5.37,10.84-9.63Zm-64.21,14.73c6-.21,11.29-4.81,15.88-13.63s6.55-16.79,6-24.1a10.31,10.31,0,0,0-2.72-6.67,8.22,8.22,0,0,0-6.05-2.44c-5.84,0-11,4.28-15.72,13.13s-6.82,17.09-6.36,24.54a10.09,10.09,0,0,0,2.79,6.77A8,8,0,0,0,543.16,190.18Z" transform="translate(-66.47 -64.08)"/><path class="cls-1" d="M660.48,174.2c.59,4.39-4,11.84-10.27,16.68a65.27,65.27,0,0,1-8.38,5.06A40.65,40.65,0,0,1,624.74,201c-6.42.31-11.82-1.44-16.14-5.33s-6.81-9.28-7.49-16.16c-1-10.3.49-22.77,4.34-37.11a189.45,189.45,0,0,1,14.92-39l6.89-1.89c7.76-2.12,14.6-3.89,15.24-4l.34,0q2.48.13,4.45,3.21a19.72,19.72,0,0,1,2.64,8.13,47.51,47.51,0,0,1-4.57,27.6C641,145.4,633.62,155,623,165.61q.12,7.51.43,10.33.69,6.27,4,9.85a9.92,9.92,0,0,0,8,3.38,21.63,21.63,0,0,0,10-3.13c3.41-2,8.48-6,15.13-11.83Zm-36.29-19.06a74.13,74.13,0,0,0,15.38-22.52c3.57-8.21,4.93-15.21,4.18-21.16a9.36,9.36,0,0,0-1.48-4.25,3.42,3.42,0,0,0-2.61-1.7c-2.12-.09-4.65,4.13-7.66,12.78S626.4,139.2,624.19,155.14Z" transform="translate(-66.47 -64.08)"/><path class="cls-2" d="M660.48,174.2c.59,4.39-4,11.84-10.27,16.68a65.27,65.27,0,0,1-8.38,5.06A40.65,40.65,0,0,1,624.74,201c-6.42.31-11.82-1.44-16.14-5.33s-6.81-9.28-7.49-16.16c-1-10.3.49-22.77,4.34-37.11a189.45,189.45,0,0,1,14.92-39l6.89-1.89c7.76-2.12,14.6-3.89,15.24-4l.34,0q2.48.13,4.45,3.21a19.72,19.72,0,0,1,2.64,8.13,47.51,47.51,0,0,1-4.57,27.6C641,145.4,633.62,155,623,165.61q.12,7.51.43,10.33.69,6.27,4,9.85a9.92,9.92,0,0,0,8,3.38,21.63,21.63,0,0,0,10-3.13c3.41-2,8.48-6,15.13-11.83Zm-36.29-19.06a74.13,74.13,0,0,0,15.38-22.52c3.57-8.21,4.93-15.21,4.18-21.16a9.36,9.36,0,0,0-1.48-4.25,3.42,3.42,0,0,0-2.61-1.7c-2.12-.09-4.65,4.13-7.66,12.78S626.4,139.2,624.19,155.14Z" transform="translate(-66.47 -64.08)"/><path class="cls-1" d="M713.08,173c.71,4.16-3.69,11.23-9.84,15.83a64.17,64.17,0,0,1-8.26,4.82,41.61,41.61,0,0,1-17,4.83c-6.42.31-11.87-1.34-16.29-5s-7.05-8.81-7.89-15.35c-1.27-9.8-.07-21.66,3.42-35.3a170.66,170.66,0,0,1,13.93-37.06l6.83-1.78c7.7-2,14.48-3.66,15.12-3.77l.34,0c1.65.09,3.16,1.11,4.53,3.06a18.65,18.65,0,0,1,2.85,7.73A42.59,42.59,0,0,1,697,137.18c-4.1,8.47-11.26,17.59-21.64,27.67q.32,7.14.69,9.81a16,16,0,0,0,4.21,9.35,10.44,10.44,0,0,0,8.12,3.19,22.06,22.06,0,0,0,9.89-3c3.36-1.86,8.33-5.66,14.83-11.25Zm-36.79-18.07a67.76,67.76,0,0,0,14.8-21.39c3.35-7.8,4.53-14.45,3.63-20.1a8.89,8.89,0,0,0-1.59-4,3.56,3.56,0,0,0-2.65-1.62c-2.12-.09-4.54,3.91-7.33,12.14S678.09,139.75,676.28,154.89Z" transform="translate(-66.47 -64.08)"/><path class="cls-2" d="M713.08,173c.71,4.16-3.69,11.23-9.84,15.83a64.17,64.17,0,0,1-8.26,4.82,41.61,41.61,0,0,1-17,4.83c-6.42.31-11.87-1.34-16.29-5s-7.05-8.81-7.89-15.35c-1.27-9.8-.07-21.66,3.42-35.3a170.66,170.66,0,0,1,13.93-37.06l6.83-1.78c7.7-2,14.48-3.66,15.12-3.77l.34,0c1.65.09,3.16,1.11,4.53,3.06a18.65,18.65,0,0,1,2.85,7.73A42.59,42.59,0,0,1,697,137.18c-4.1,8.47-11.26,17.59-21.64,27.67q.32,7.14.69,9.81a16,16,0,0,0,4.21,9.35,10.44,10.44,0,0,0,8.12,3.19,22.06,22.06,0,0,0,9.89-3c3.36-1.86,8.33-5.66,14.83-11.25Zm-36.79-18.07a67.76,67.76,0,0,0,14.8-21.39c3.35-7.8,4.53-14.45,3.63-20.1a8.89,8.89,0,0,0-1.59-4,3.56,3.56,0,0,0-2.65-1.62c-2.12-.09-4.54,3.91-7.33,12.14S678.09,139.75,676.28,154.89Z" transform="translate(-66.47 -64.08)"/><path class="cls-1" d="M155.65,257.16q43.72-12.54,98.21-20.16c35.93-5,92.1-8.43,168.93-10.51s137.82-6,181.89-11.49c43.34-5.27,68.79-11.49,76.72-18.77,7.61-7.15,31.53-30.15,36.07-31.94,8.57-3.38,9.21,18.06.54,26.78-10.15,9.89-28.63,19.2-55.74,28q-42.08,13.63-101,23.22c-40,6.58-80.5,11.45-121.15,14.47q-61.22,4.6-146.75,8.07-85.29,3.39-119.26,7.42c-22.8,2.73-47.85,4.59-69.44,12.16C92.84,278,126,265.67,155.65,257.16Z" transform="translate(-66.47 -64.08)"/></svg>