<?xml version="1.0" encoding="utf-8"?>
<!-- Generator: Adobe Illustrator 21.0.0, SVG Export Plug-In . SVG Version: 6.00 Build 0)  -->
<svg version="1.1" id="batter2_1_" xmlns="http://www.w3.org/2000/svg" xmlns:xlink="http://www.w3.org/1999/xlink" x="0px" y="0px"
	 viewBox="0 0 100 100" style="enable-background:new 0 0 100 100;" xml:space="preserve">
<style type="text/css">
	.st0{opacity:0.5;fill:#5C7DB1;enable-background:new    ;}
	.st1{fill:none;stroke:#5C7DB1;stroke-width:0.75;stroke-miterlimit:10;}
	.st2{fill:#5C7DB1;}
</style>
<g id="batter2">
	<path class="st0" d="M37.9,26.9c-0.3,0-0.7-0.2-0.9-0.3c-0.2-0.1-0.5-0.1-0.7-0.2c-0.6-0.1-1.3,0.1-1.8,0.5
		c-0.1,0.1-0.3,0.3-0.4,0.5c-0.2,0.2-0.5,0.4-0.5,0.6c0,0,0,0,0,0.1c-4,0.3-13.6,1.2-14.3,1.2C18.6,29.5,1.5,30.6,1,30.6
		s-0.7,0.3-0.6,0.7c0,0.3,0.1,1.4,0.2,2s0.2,1.1,0.9,1c0.4,0,13.4-2.1,13.4-2.1s11.3-1.7,12.4-1.9c1-0.2,6.7-1,6.7-1
		c-0.3,0.2-0.5,0.4-0.5,0.7c0,0.4,0.6,0.7,0.8,0.9c0.2,0.2,0.2,0.5,0.6,0.7c0.5,0.3,0.6,0.4,1.4,0.5c1.3,0.2,3.1,0,3.9,0
		c1.1,0,1.5,0.3,2.3,0.5c0.8,0.3,0.4,0.2,1.7,0.9s5.5,1.8,6.7,2c1.3,0.2,4.3,0.4,5.2,0.4c0.2,0,0.5,0.1,0.8,0.1
		c-0.6,1.5-1.9,2.9-2.3,4.4c-0.2,0.9-0.3,1.9-0.2,2.3c0.3,0.8,0.7,0.8,1.2,0.8c-0.1,0.4,0,0.3,0,0.3s0,0.1-0.1,0.3
		c0,0.1,0,0.2-0.1,0.3s-0.2,0.2-0.3,0.2c-0.5,0.3-0.8,0.8-0.9,1.4c0,0.1,0,0.3-0.1,0.4c-0.1,0.2-0.3,0.3-0.5,0.4
		c-0.4,0.2-0.3,0.8-0.6,1.1c-0.5,0.5-1.2,1.9-1.5,2.2s-1.1,1.6-1.5,2.5s-1.7,4.7-1.8,5.7s-0.7,1.3-0.9,1.7c-0.2,0.5-1.1,2-1.3,2.5
		s-0.3,1.4-0.5,1.6C45.3,64.3,45,65,45,65.3s0.2,0.8,0,1s-0.7,0.6-0.8,0.9s-0.1,0.7-0.3,0.9c-0.2,0.2-0.3,0.7-0.5,1
		s-0.6,1.1-0.8,1.5s-0.6,1.3-0.8,1.5s-0.3,0.4-0.3,0.7c0,0.4-0.4,0.5-0.4,0.8s-0.7,0.6-0.7,1c0,0.3-0.3,0.7-0.6,1.1s0.2,1,0.2,1.4
		c0,0.3-0.3,1-0.5,1.1c-0.1,0.1-0.4,0.3-0.5,0.6c-0.1,0.3-0.3,1-0.5,1s-0.6,0.2-0.6,0.5c0,0.2-0.2,0.5-0.2,0.5s-0.6,0.6-0.6,0.9
		c0,0.1,0.3,0.2,0.7,0.2c-0.4,0.1-1.6,1-2.1,1.3s-1.4,1.2-1.5,1.3c-0.2,0.2-1.4,0.8-1.5,0.9c-0.2,0.2-0.4,0.3-1.2,0.4
		s-1.2,0.6-1.2,1.5s2.3,0.6,3.5,1c0.1,0,0.2,0,0.3,0.1c0,0.1,0,0.1,0,0.2s0,0.1,0,0.2c0,0,0.1,0.1,0.2,0.1c0.1,0,0.3,0.1,0.4,0
		c0,0,0,0,0.1,0c0,0,0,0,0-0.1s0-0.2,0-0.3c0.1,0,0.2,0,0.3,0s0.2,0,0.3,0.1c0.2,0,0.4,0.1,0.6,0.1c0.1,0,0.3,0,0.3,0.1v0.1l0.1,0.1
		h0.1c0-0.1,0-0.1,0.1-0.1c0,0,0.1,0,0.1,0.1c0.4,0.2,3.8-0.1,4.9-0.1s0.9-0.6,0.9-0.9s-0.3-0.7-0.2-0.7c0.1-0.1,0.1-1.2,0.1-1.2V86
		c0.1,0,0.2,0,0.3-0.1c0.2-0.2,0.3-0.7,0.4-0.8c0.2-0.2,0.2-0.3,0.2-0.5s0.2-0.4,0.4-0.4s0.7-0.1,0.7-0.7s-0.4-1,0.1-1.3
		s0.5-0.7,0.5-0.9s0.4-0.6,0.7-0.9s2.4-2.6,2.8-3.3c0.4-0.7,2.9-4.4,3.2-5.1s1-1.6,1.2-1.8c0.2-0.2,1-1.6,1.2-2.2s0.6-1.3,0.8-2.1
		c0.2-0.7,0.6-1.3,0.8-1.6c0.3-0.3,1.4-1.4,1.9-1.9c0.3-0.3,0.6-0.6,0.9-0.9c0.2-0.2,0.6-0.9,0.9-0.5c0.5,0.7,0.9,1.4,1.3,2.2
		c0.2,0.5,0.4,0.8,0.8,1.2c0.2,0.2,0.4,0.6,0.6,0.9c0.1,0.1,0.1,0.2,0.1,0.3c0.1,0.2,0.1,0.3,0.2,0.5c0.1,0.3,0.4,0.5,0.5,0.8
		c0.2,0.3,0.4,0.6,0.7,1c0.4,0.6,0.9,1.2,1.3,1.8c0.4,0.5,0.8,1.1,1.2,1.6c1.1,1.2,2.6,2.1,4,3c1.8,1.1,3.8,2.9,5.8,3.4
		c1.4,0.3,2.8,1,4.1,1.8c0.3,0.2,0.7,0.4,1,0.7c0.3,0.2,0.4,0.5,0.7,0.6c0.1,0.1,0.3,0.1,0.4,0.2c0.5,0.4,0.6,1.2,1,1.7
		c0.2,0.3,0.5,0.4,0.7,0.7c0.1,0.2,0.3,0.4,0.5,0.5c0.1,0.2,0.2,0.4,0.3,0.6c0,0.1,0.1,0.2,0.1,0.2c0.1,0.1,0.3,0,0.4-0.1
		c0.6-0.4,1.2-0.7,1.8-1.1c0,0.2,0.1,0.2,0.2,0.3c0.1,0.1,0.1,0.3,0.2,0.4c0.1,0.1,0.2,0.1,0.3,0.2c0.2,0.1,0.3,0.2,0.4,0.4
		c0.6,0.7,1,1.5,1.7,2.1c0.6,0.5,1,1.2,1.5,1.7c0.1,0.1,0.3,0.3,0.4,0.5c0.2,0.2,0.3,0.4,0.4,0.6c0.2,0.4,0.5,0.7,0.9,0.9
		c0.3,0.2,0.8,0.2,1.1,0.1c0.5-0.2,0.8-0.7,1.1-1c0.1-0.1,0.2-0.3,0.3-0.5c0.2-0.3,0.3-0.6,0.4-1c0-0.1,0.1-0.2,0.2-0.3
		c0.1-0.1,0.3,0,0.4,0.1c0.3,0.1,0.5-0.1,0.6-0.3c0.1-0.3-0.1-0.6-0.2-0.8c0,0-0.1-0.1-0.2-0.1c-0.2-0.1-0.4-0.3-0.3-0.5
		c0.1-0.1,0.2-0.8,0.1-1c-0.1-0.5-0.4-1.1-0.6-1.5c-0.1-0.4-0.3-0.5-0.6-0.8c-0.4-0.4-0.7-1.4-0.7-1.6c0-0.1,0.3,0,0.3-0.2
		s0-0.6-0.2-0.7c-0.2-0.2-0.5,0-0.6-0.1c-0.2-0.2-0.5-1.1-0.9-1.3s-0.8-0.3-1.3-0.3s-1.8-0.3-2.1-0.3c-0.2,0-0.4,0.1-0.6,0.3
		c-0.2-0.7-1.2-0.7-1.5-1.5c0-0.1-0.1-0.2-0.1-0.3c-0.1,0-0.1-0.1-0.2-0.1c-0.6-0.2-1-0.8-1.7-1c-0.4-0.1-0.9-0.1-1.2-0.3
		c-0.4-0.3-0.7-0.9-1.1-1.3c-0.4-0.4-0.9-0.8-1.3-1.2c-0.6-0.6-1.2-1.2-1.9-1.8c-0.7-0.7-5.4-3.9-6.1-4.1c-0.6-0.2-1.4-0.9-1.6-1.1
		c-0.3-0.3-0.2,0.1-0.2-0.5s-0.5-4.8-0.5-4.8s-0.3-1.6-0.1-1.8s-0.1-0.5-0.3-0.7c-0.2-0.2,0.1-0.6,0.1-0.9s-0.4-0.5-0.2-0.6
		c0.2-0.2,0.3-0.3,0.3-0.5s0-0.4,0.1-0.5s-0.4-0.1,0-0.5s0.3-0.8,0.4-1c0.2-0.2,0.2-0.8,0.2-1.1s0.5-1.3,0.7-2
		c0.1-0.8-0.3-1.3-0.3-1.8c0-0.2-0.5-1.3-0.6-1.6s-0.3-0.5-0.3-0.5v-0.7c0,0,0,0,0.1,0c0.9-0.3,0.6-0.6,0.6-1.7s0.5-1.1,0.8-1.7
		c0.3-0.6-0.2-0.7,0.2-1.1c0.4-0.4,1.5-4.6,1.5-4.9s0.4-0.3,1.7-2.9c0.4-0.8,0.6-1.8,0.8-2.7c0.2-0.9,0.3-1.8,0.4-2.7
		c0.1-0.4,0.1-0.9,0.2-1.3c0.2-1.9-0.2-3.6-0.3-3.9c0.1-0.1,0.2-0.2,0.3-0.2c0.5-0.4,0.8-0.8,1.1-1.4c0.2-0.6,0.4-1.3,0.4-2
		c0-1.7-0.3-3.5-1.3-4.6s-2.1-1.6-3.3-1.8c-1.4-0.2-3.7,0.3-4.7,1c-0.8,0.6-1.7,1.1-2.5,2.8c-1.4,0-3.4,0.4-3.9,0.6
		s-1.9,0.1-2.5,0.1s-0.8,0-1,0s-0.1,0.5-0.1,0.7c0,0,0,0.2,0,0.3c0,0-0.7,0.2-1.3,0.2s-4.1,0-5.4,0.3c-0.5,0.1-1.4,0-2.1,0.1
		c-0.7,0.2-4,1.3-4.9,1.6c-0.8,0.3-1.6,0.5-2.1,0.8c0,0-2.2,0.9-3.2,1.8s-2.3,1.7-2.8,3.1C38.2,27,38.1,26.9,37.9,26.9z M34.2,29.3
		l0.3-0.3c0,0,0,0,0,0.1C34.4,29.1,34.3,29.2,34.2,29.3z M43.8,28.1L43.8,28.1L43.8,28.1L43.8,28.1z M49.3,25.2c0.1,0,0.2,0,0.3,0
		c0.2,0,0.3-0.1,0.5-0.1c0.8,0,1.6,0.1,2.4-0.1c0.5-0.1,1.4-0.3,2.4-0.4c0.9-0.1,2-0.2,2.6-0.4c0.5-0.1,3.1-0.1,3.1-0.1
		c0.1,0.2,0.1,0.4,0.2,0.5c0.2,0.2,1.1,0.1,1.3,0.4c0.2,0.2,1.2,0.3,1.4,0.1s0.3-0.2,0.3-0.1s-1.9,2.2-2.5,2.8
		c-0.5,0.5-1,1.1-1.3,1.7c-0.1,0.2-0.2,0.5-0.3,0.7c-0.2,0.3-0.6,0.2-0.9,0.3c-0.9,0-1.8,0.4-2.7,0.5c-0.8,0.1-1.6-0.1-2.4-0.4
		c-1.2-0.4-2.3-0.8-3.5-1c-0.6-0.1-1.3,0-1.9-0.1c-1.5,0-3-0.2-4.5-0.6c0.1-0.2,0.3-0.2,0.4-0.3c0.1-0.1,0.1-0.3,0-0.4
		c0.1,0.1,0.2,0.1,0.3,0.1c0.5-0.2,0.1-1.1,0-1.4c0-0.2-0.1-0.4-0.1-0.6c0-0.1-0.2-0.3-0.2-0.3c0-0.1,0.3-0.2,0.3-0.2
		c0.7-0.4,1.6-0.4,2.4-0.5c0.6-0.1,1.2-0.1,1.8-0.1c1.5-0.1,3,0,4.5-0.2"/>
	<path class="st1" d="M74.9,13.4c-1.4-0.2-3.7,0.3-4.7,1c-0.9,0.7-2,1.3-2.9,3.7c-0.3,0.7-0.6,0.9-1,1.3c-0.3,0.3-2.1,1.4-1.1,2.6
		s2.1,1.7,3.2,2.2s2.7,0.7,4.4,0.3c0.6-0.2,1.1-0.3,1.6-0.5c0.2-0.1,0.9-0.4,0.8,0.1c0,0.1,0,0.2,0,0.3h0.1c0.3,0.1,0.7,0,1-0.2
		c0.2-0.1,1.3-0.9,1.7-1.1c0.5-0.4,0.8-0.8,1.1-1.4c0.2-0.6,0.4-1.3,0.4-2c0-1.7-0.3-3.5-1.3-4.6S76.1,13.6,74.9,13.4z"/>
	<g>
		<path class="st2" d="M67.1,19.6c0.2,0.7,0.5,1.3,1,1.7c0.5,0.4,1.1,0.7,1.7,0.9c0.6,0.2,1.3,0.3,2,0.3s1.4,0,2.1,0
			c-0.3,0.1-0.7,0.2-1,0.2c-0.3,0.1-0.7,0.1-1.1,0.1s-0.7,0-1.1,0c-0.4-0.1-0.7-0.1-1.1-0.2c-0.7-0.2-1.4-0.5-1.9-1.1
			C67.4,21,67,20.3,67.1,19.6z"/>
	</g>
	<path class="st1" d="M67.6,17.2c-1.4,0-3.4,0.4-3.9,0.6s-1.9,0.1-2.5,0.1s-0.8,0-1,0s-0.1,0.5-0.1,0.7s-0.1,2.5-0.1,3
		s0.3,2.8,0.5,3s1.1,0.1,1.3,0.4c0.2,0.2,1.2,0.3,1.4,0.1s0.3-0.2,0.3-0.1s-1.7,2.1-2.3,2.7c-1,1-1.8,2.6-1.8,2.8"/>
	<g>
		<path class="st2" d="M66,17.3c-1.1,0.9-2.1,2-2.8,3.1c-0.4,0.6-0.7,1.2-1.1,1.8l-0.5,0.9l-0.3,0.5L61,23.9l0,0c0,0,0,0.1-0.1,0
			l0,0v-0.1l0.1-0.1v0.1v0.1l0,0c0,0,0-0.1,0,0l0,0l0,0l0,0l0.1-0.3l0.2-0.5l0.4-1c0.3-0.7,0.6-1.3,1-1.9s0.9-1.2,1.4-1.6
			C64.7,18,65.3,17.6,66,17.3z"/>
	</g>
	<path class="st1" d="M60.2,18.9c0,0-0.7,0.2-1.3,0.2s-4.1,0-5.4,0.3c-0.5,0.1-1.4,0-2.1,0.1c-0.7,0.2-4,1.3-4.9,1.6
		c-0.8,0.3-1.6,0.5-2.1,0.8c0,0-2.2,0.9-3.2,1.8s-2.3,1.8-2.8,3.1"/>
	<g>
		<path class="st2" d="M60.4,24.6c-0.8,0-1.7-0.1-2.5,0c-0.2,0-0.4,0-0.6,0.1c-0.2,0.1-0.4,0.1-0.6,0.1c-0.4,0.1-0.8,0.1-1.3,0.2
			c-0.9,0.1-1.7,0.1-2.5,0.3c-0.2,0-0.4,0.1-0.6,0.1c-0.2,0-0.5,0.1-0.7,0.1c-0.4,0-0.9,0-1.3,0c-0.4,0-0.9-0.1-1.3-0.1
			c-0.4,0-0.8,0-1.2,0c-0.8,0.1-1.7,0.1-2.5,0.3c-0.1,0-0.2,0-0.3,0.1l-0.3,0.1l-0.6,0.3l-0.5,0.3c-0.2,0.1-0.3,0.3-0.5,0.4
			s-0.4,0.2-0.6,0.2c-0.2,0-0.3,0.2-0.4,0.3c-0.2,0.3-0.1,0.8-0.1,1.2h-0.2c0-0.4-0.1-0.8,0.1-1.3c0.1-0.2,0.3-0.4,0.5-0.5
			s0.4-0.1,0.6-0.2c0.2-0.1,0.3-0.3,0.5-0.4l0.6-0.3l0.5-0.3l0.3-0.1c0.1-0.1,0.2-0.1,0.3-0.1c0.8-0.2,1.7-0.3,2.5-0.4
			c0.4,0,0.8-0.1,1.3-0.1c0.5,0.1,0.8,0.1,1.2,0.1s0.8,0,1.2,0c0.2,0,0.4,0,0.6-0.1c0.2-0.1,0.4-0.1,0.6-0.2
			c0.8-0.2,1.7-0.3,2.5-0.4c0.4-0.1,0.8-0.1,1.2-0.2c0.2,0,0.4-0.1,0.6-0.1c0.3-0.1,0.5-0.1,0.7-0.1c0.9-0.1,1.7,0,2.6,0L60.4,24.6z
			"/>
	</g>
	<g>
		<path class="st2" d="M40.2,25.5c0,0.2,0,0.4,0,0.6s0,0.4,0.1,0.5c0.1,0.2,0.2,0.5,0.1,0.7c0,0.2-0.1,0.4-0.2,0.6
			C40,27.5,40,27,39.8,26.8c-0.1-0.3-0.1-0.6,0-0.8C39.9,25.8,40,25.6,40.2,25.5z"/>
	</g>
	<g>
		<path class="st2" d="M66.3,30.1c-0.3,0-0.7-0.1-1,0c-0.3,0-0.7,0.1-0.9,0.1l0,0l-0.1,0.1c-0.1,0-0.2,0.1-0.2,0.1
			c-0.1,0-0.2,0-0.3,0h-0.5c-0.3,0-0.7,0-1,0.1c-0.4,0-0.7,0.1-1.1,0.1h-1.1H59h-0.5c-0.1,0-0.3,0-0.5,0.1c-0.7,0.1-1.4,0.4-2.1,0.5
			c-0.8,0.1-1.6-0.2-2.2-0.4c-0.7-0.2-1.4-0.5-2-0.6c-0.7-0.1-1.4-0.2-2.1-0.3c-1.3-0.1-2.9,0.1-4.3-0.2c-1.5-0.1-2.8-0.7-4.2-1.1
			c-0.2-0.1-0.3-0.1-0.5-0.2c-0.2,0-0.3,0-0.5,0c-0.1,0-0.2,0-0.4-0.1s-0.3-0.2-0.3-0.3c-0.1-0.1-0.2-0.2-0.4-0.3
			c-0.2-0.2-0.5-0.3-0.8-0.4s-0.7-0.2-1-0.4c-0.3-0.1-0.6-0.2-0.9-0.2c-0.3,0-0.6,0-0.9,0.2c-0.3,0.1-0.6,0.3-0.8,0.5
			c-0.1,0.1-0.2,0.2-0.2,0.3c0-0.2,0.1,0.3-0.4,0.4c-0.3-0.2-0.4-0.1-0.3-0.6c0.1-0.3,0.3-0.4,0.4-0.6c0.3-0.3,0.6-0.5,1-0.6
			c0.4-0.2,0.8-0.2,1.2-0.2s0.8,0,1.2,0.2l1,0.3c0.4,0.1,0.7,0.3,1.1,0.6c0.2,0.1,0.3,0.3,0.4,0.4c0,0.1,0.1,0.1,0.1,0.1s0,0,0.1,0
			c0.2,0,0.4,0,0.6,0.1c0.2,0,0.3,0.1,0.5,0.2c1.4,0.5,2.7,1,4.1,1.2c1.4,0.3,2.7,0.2,4.2,0.3c0.7,0.1,1.5,0.2,2.2,0.3
			c0.7,0.2,1.4,0.5,2.1,0.7c0.7,0.2,1.3,0.4,2,0.4c0.7-0.1,1.3-0.3,2.1-0.4c0.2,0,0.4-0.1,0.6-0.1h0.5h1.1h1.1c0.3,0,0.7-0.1,1-0.1
			c0.4,0,0.7-0.1,1.1-0.1c0.4,0,0.8,0.1,0.9-0.1c0.5-0.2,0.8-0.2,1.2-0.2c0.4,0,0.7,0,1.1,0.1L66.3,30.1z"/>
	</g>
	<path class="st1" d="M57.1,36c-0.6,1.5-2,2.9-2.3,4.5c-0.2,0.9-0.3,1.9-0.2,2.3c0.5,1.1,1.1,0.6,1.8,1s1.7,1.2,2.5,1.5
		c1.2,0.4,2.5,0.5,3.8,0.8c1.1,0.2,2.1,0.7,3.2,0.9c0.9,0.2,2.6-0.4,3.4-0.2c0.7,0.2,1.3,0,1.9-0.3c0.2-0.1,0.4-0.2,0.6-0.2
		c0.9-0.3,0.6-0.6,0.6-1.7s0.5-1.1,0.8-1.7c0.3-0.6-0.2-0.7,0.2-1.1c0.4-0.4,1.5-4.6,1.5-4.9s0.4-0.3,1.7-2.9
		c0.4-0.8,0.6-1.8,0.8-2.7c0.2-0.9,0.3-1.8,0.4-2.7c0.1-0.4,0.1-0.9,0.2-1.3c0.3-2.1-0.2-3.8-0.4-3.9"/>
	<g>
		<path class="st2" d="M72.1,46.2v0.7L72,46.7c0.2,0.3,0.3,0.6,0.4,0.8l0.3,0.7l0.1,0.4c0,0.1,0,0.1,0.1,0.2c0,0.2,0,0.2,0,0.2
			c0,0.2,0.1,0.4,0.2,0.7c0.4,1.3-0.6,2.4-0.6,3.2c0,0.3-0.1,0.6-0.2,0.9c0,0.1-0.1,0.2-0.2,0.3l0,0l0,0l0,0c0,0.1,0,0.2-0.1,0.4
			s-0.1,0.3-0.2,0.5l-0.1,0.1c0,0,0,0,0-0.1s-0.1-0.1,0,0c0,0,0.1,0.1,0.1,0.2c0,0.1-0.1,0.3-0.1,0.3v0.1c0,0,0,0.1,0,0.2
			c0,0.1,0,0.4-0.1,0.6c0,0.1-0.1,0.2-0.2,0.2l-0.1,0.1c0,0,0.1-0.1,0.1-0.2c0-0.1,0-0.1,0,0s0.1,0.1,0.1,0.2c0.1,0.2,0.1,0.5,0,0.6
			c-0.1,0.3-0.1,0.6-0.1,0.4c0.1,0.1,0.2,0.2,0.3,0.4c0,0.1,0.1,0.2,0.1,0.3s0,0.3-0.1,0.4c0-0.1,0,0.1,0,0.2c0,0.1,0,0.2,0,0.4
			c0,0.3,0.1,0.5,0.1,0.8c0.1,0.5,0.1,1.1,0.2,1.6c0.1,1.1,0.3,2.1,0.3,3.2c0,0.1,0,0.3,0,0.4v0.2v0.1l0,0c0,0,0,0.1-0.1-0.2
			c-0.3-0.2-0.3-0.1-0.2-0.1h0.1c0.1,0,0.1,0,0.1,0.1c0.2,0.2,0.2,0.2,0.3,0.3L73,66c0.2,0.2,0.4,0.3,0.6,0.4s0.4,0.2,0.7,0.3
			c0.9,0.5,1.8,1.1,2.7,1.7c0.9,0.6,1.7,1.2,2.6,1.9c0.2,0.2,0.4,0.3,0.6,0.5l0.6,0.6l1.1,1.1c0.8,0.7,1.5,1.5,2.3,2.2l0.6,0.5
			l0.3,0.2l0.1,0.1c0.1,0,0,0,0.1,0s0.3,0.1,0.4,0.1c0.2,0.1,0.3,0.3,0.3,0.2c0,0,0.2,0,0.4,0.1c0.2,0.1,0.3,0.3,0.4,0.4
			s0.1,0.2,0.2,0.3c0,0,0,0,0.1,0l0,0h0.1c0.2,0,0.3,0.1,0.5,0.2c0.1,0,0.2,0.1,0.2,0.2c0.1,0.1,0.1,0.3,0.1,0.3
			c0,0.2,0.1,0.4,0.2,0.4c0,0,0.2,0,0.3,0c0.1,0,0.2,0,0.3,0c0.2,0.1,0.2,0.2,0.3,0.2c0.2,0.3,0.2,0.5,0.3,0.8
			c0.1,0.3,0.1,0.6,0,0.9c-0.1,0.4-0.2,1.1-0.5,1.5c-0.5,1-1.3,1.8-2,2.6c-0.4,0.4-0.8,0.8-1.3,1.1c-0.1,0.1-0.3,0.1-0.4,0.2
			s-0.4,0-0.6-0.1c-0.3-0.3-0.4-0.6-0.5-0.8c-0.1-0.4-0.6-0.7-1-1.1c-0.2-0.2-0.4-0.4-0.5-0.7c-0.1-0.3-0.2-0.5-0.3-0.8
			c-0.1-0.2-0.2-0.4-0.4-0.5c-0.2-0.1-0.4-0.3-0.7-0.4c-0.4-0.3-0.9-0.6-1.3-0.9S79,79.1,78.5,79c-0.5-0.2-1-0.4-1.5-0.6
			c-1-0.5-1.9-0.9-2.9-1.3c-0.5-0.2-1-0.4-1.4-0.7c-0.2-0.1-0.5-0.3-0.7-0.4c-0.2-0.2-0.4-0.3-0.6-0.5c-0.9-0.6-1.8-1.1-2.7-1.7
			c-0.2-0.1-0.5-0.3-0.7-0.5c-0.2-0.1-0.4-0.3-0.6-0.4c-0.5-0.3-0.9-0.6-1.3-1.1c-0.6-0.9-1.2-1.7-1.9-2.6c-1.3-1.7-2.3-3.6-3.4-5.4
			l-3.1-5.5c-0.5-1-1.2-1.7-1.7-2.6c-0.3-0.4-0.6-0.9-0.8-1.4s-0.5-0.9-0.6-1.5c-0.2-0.5-0.2-1.1-0.2-1.6s0-1.1,0.1-1.6
			c0.1-1.1,0.6-2.1,1-3l0.2,0.1c-0.4,1-0.8,1.9-1,3c-0.1,0.5-0.1,1-0.1,1.6c0,0.5,0,1.1,0.2,1.5c0.2,0.5,0.5,1,0.6,1.4
			c0.2,0.5,0.5,0.9,0.8,1.3c0.6,0.9,1.3,1.7,1.8,2.6l3.1,5.5c1,1.8,2.1,3.7,3.4,5.4c0.6,0.8,1.3,1.7,1.9,2.5c0.3,0.4,0.7,0.7,1.2,1
			c0.2,0.1,0.5,0.2,0.7,0.4c0.2,0.2,0.4,0.3,0.6,0.4c0.9,0.6,1.8,1.1,2.7,1.7c0.2,0.1,0.5,0.3,0.7,0.5c0.2,0.1,0.4,0.3,0.6,0.4
			c0.5,0.2,0.9,0.5,1.4,0.7c1,0.4,1.9,0.9,2.9,1.3c0.5,0.2,1,0.4,1.4,0.6c0.5,0.2,1,0.5,1.4,0.8s0.9,0.6,1.3,0.9
			c0.2,0.2,0.4,0.3,0.7,0.4c0.3,0.2,0.5,0.5,0.6,0.7c0.1,0.3,0.2,0.5,0.3,0.7c0.1,0.2,0.3,0.4,0.4,0.6c0.2,0.2,0.4,0.4,0.6,0.6
			s0.4,0.4,0.5,0.7c0.1,0.3,0.2,0.5,0.3,0.6c0.1,0.1,0.3,0,0.5-0.1c0.4-0.3,0.8-0.6,1.2-1c0.7-0.8,1.4-1.5,1.9-2.4
			c0.2-0.5,0.3-0.9,0.4-1.5c0.2-0.4-0.1-0.9-0.3-1.3c-0.1-0.1,0.1,0-0.1,0c-0.1,0-0.3,0.1-0.5,0c-0.5-0.2-0.5-0.6-0.6-0.9
			c0-0.1,0-0.1,0-0.1s0,0-0.1-0.1c-0.1,0-0.2-0.1-0.3-0.1h-0.1c0,0-0.1,0-0.2,0s-0.2-0.1-0.3-0.2c-0.1-0.1-0.2-0.3-0.3-0.4
			c-0.1-0.1-0.1-0.2-0.2-0.2c0,0-0.1,0-0.4-0.1c-0.2-0.1-0.2-0.2-0.3-0.2c-0.1,0-0.2-0.1-0.3-0.1c0,0-0.2-0.1-0.3-0.1l-0.2-0.1
			l-0.3-0.3l-0.6-0.5c-0.8-0.7-1.6-1.4-2.3-2.2l-1.2-1.1l-0.6-0.6c-0.2-0.2-0.4-0.3-0.6-0.5c-0.8-0.6-1.7-1.2-2.6-1.8
			c-0.9-0.6-1.8-1.2-2.7-1.7c-0.2-0.1-0.5-0.2-0.7-0.4c-0.2-0.1-0.5-0.3-0.7-0.5l-0.3-0.3l0.5,0.3l0,0l0,0c0,0,0,0.1-0.3-0.1
			c-0.1-0.2,0-0.2-0.1-0.2l0,0l0,0v-0.2c0-0.1,0-0.2,0-0.4c-0.1-1-0.2-2.1-0.4-3.1c-0.1-0.5-0.1-1.1-0.2-1.6c0-0.3-0.1-0.5-0.1-0.8
			c0-0.1,0-0.3,0-0.4c0-0.1,0-0.3,0.2-0.6c0,0.1,0,0.1,0,0s-0.1-0.2-0.2-0.2c0,0-0.1-0.1-0.1-0.2c0-0.1-0.1-0.2-0.1-0.2
			c0-0.1,0-0.2,0-0.3l0.1-0.4c0-0.3,0.1,0.1-0.2-0.6c0-0.2,0.1-0.3,0.1-0.3l0.1-0.1l0.1-0.1c0-0.1,0-0.1,0-0.2c0-0.1,0-0.4,0.1-0.6
			l0.1-0.1c0,0-0.1,0.1-0.1,0.2c0,0.1,0.1,0.2,0.1,0.2s-0.1-0.1-0.2-0.3c-0.1-0.3,0.1-0.4,0.1-0.5l0.1-0.1v-0.1
			c0.1-0.1,0.1-0.1,0.1-0.2c0-0.1,0-0.2,0.1-0.4c0,0,0-0.1,0.1-0.2c0,0,0-0.1,0.1-0.1c0,0,0.1-0.1,0-0.1c0,0,0,0,0-0.1
			c0.1-0.2,0.1-0.4,0.1-0.7c0-0.1,0-0.4,0.1-0.5c0-0.1,0.1-0.3,0.1-0.4l0.3-0.7c0.2-0.5,0.3-0.9,0.1-1.3c-0.1-0.2-0.2-0.5-0.2-0.8
			c0-0.1,0-0.2,0-0.2v-0.1L72,48.5c-0.2-0.5-0.4-1-0.6-1.3l-0.1-0.1V47v-0.7h0.8V46.2z"/>
	</g>
	<path class="st1" d="M55.8,43.5c-0.1,0.8,0.1-0.2-0.1,0.5c0,0.1,0,0.2-0.1,0.3s-0.2,0.2-0.3,0.2c-0.5,0.3-0.8,0.8-0.9,1.4
		c0,0.1,0,0.3-0.1,0.4c-0.1,0.2-0.3,0.3-0.5,0.4c-0.4,0.2-0.3,0.8-0.6,1.1c-0.5,0.5-1.2,1.9-1.5,2.2s-1.1,1.6-1.5,2.5
		s-1.7,4.7-1.8,5.7s-0.7,1.3-0.9,1.7c-0.2,0.5-1.1,2-1.3,2.5s-0.3,1.4-0.5,1.6c-0.2,0.2-0.5,0.9-0.5,1.2s0.2,0.8,0,1
		s-0.7,0.6-0.8,0.9s-0.1,0.7-0.3,0.9c-0.2,0.2-0.3,0.7-0.5,1s-0.6,1.1-0.8,1.5S42.2,71.8,42,72s-0.3,0.4-0.3,0.7
		c0,0.4-0.4,0.5-0.4,0.8s-0.7,0.6-0.7,1c0,0.3-0.3,0.7-0.6,1.1s0,1.1,0,1.5c0,0.3-0.3,1-0.5,1.1c-0.1,0.1-0.4,0.3-0.5,0.6
		c-0.1,0.3-0.3,1-0.5,1s-0.6,0.2-0.6,0.5c0,0.2-0.2,0.5-0.2,0.5s-0.6,0.6-0.6,0.9s1.3,0.3,1.7,0.4c0.4,0.2,1.9,1.4,2.3,1.9
		s1.3,1.3,1.3,1.6c0,0.3,0.2,0.3,0.4,0.1c0.2-0.2,0.3-0.7,0.4-0.8c0.2-0.2,0.2-0.3,0.2-0.5s0.2-0.4,0.4-0.4s0.7-0.1,0.7-0.7
		s-0.4-1,0.1-1.3s0.5-0.7,0.5-0.9s0.4-0.6,0.7-0.9s2.4-2.6,2.8-3.3c0.4-0.7,2.9-4.4,3.2-5.1s1-1.6,1.2-1.8c0.2-0.2,1-1.6,1.2-2.2
		s0.6-1.3,0.8-2.1c0.2-0.7,0.6-1.3,0.8-1.6c0.3-0.3,1.4-1.4,1.9-1.9s1.5-1.5,1.5-1.5"/>
	<g>
		<path class="st2" d="M72.4,32.5c0.3,0.6,0.5,1.2,0.7,1.9c0.1,0.7,0.2,1.4-0.1,2.1c-0.1,0.3-0.4,0.7-0.8,0.9s-0.6,0.3-1,0.4
			c-0.6,0.2-1.3,0.3-2.1,0.3c-0.4,0-0.6-0.1-0.9,0l-1,0.1c-0.6,0.1-1.3,0.2-2,0.3s-1.3,0.2-2,0.2c-0.3,0-0.7,0-1-0.2
			s-0.4-0.6-0.4-0.9c0.1,0.3,0.2,0.6,0.5,0.8s0.5,0.1,0.9,0c0.6-0.1,1.3-0.3,1.9-0.4c0.6-0.2,1.3-0.3,1.9-0.4c0.3-0.1,0.6-0.1,1-0.2
			c0.2,0,0.4,0,0.6,0h0.5c0.6,0.1,1.2-0.1,1.8-0.2c0.7-0.2,1.2-0.3,1.4-0.8c0.3-0.5,0.3-1.2,0.2-1.8C72.7,33.7,72.6,33.1,72.4,32.5z
			"/>
	</g>
	<g>
		<path class="st2" d="M60.2,30.5c0.4,0.6,0.6,1,0.9,1.7c0.3,0.6,0.5,1.3,0.7,2s0.4,1.4,0.5,2.1c0.1,0.3,0.1,0.7,0.2,1.1
			c0,0.2,0,0.4,0,0.6v0.3c0,0,0,0.1-0.1,0.2c-0.1,0-0.1-0.1-0.1-0.1h0.1v-0.1L62.3,38c-0.1-0.2-0.1-0.4-0.2-0.5l-0.4-1
			c-0.3-0.7-0.5-1.3-0.7-2l-0.4-2.1C60.5,31.6,60.3,31.2,60.2,30.5z"/>
	</g>
	<g>
		<path class="st2" d="M62.3,37.8c-0.7,0-1.5-0.1-2.2-0.2c-0.4-0.1-0.8-0.2-1.1-0.3l-1-0.4c-0.6-0.3-1.3-0.5-1.9-0.5
			c-0.7,0-1.4-0.1-2.2-0.1c-1.4-0.1-2.9-0.2-4.3-0.6c-1.4-0.3-2.8-0.7-4.1-1.2c-0.7-0.2-1.4-0.5-2-0.9c-0.2-0.1-0.3-0.2-0.5-0.3
			c0-0.3-0.1-0.3-0.3-0.4c-0.3-0.1-0.7-0.3-1-0.4c-0.6-0.2-1.3-0.2-2-0.2s-1.4,0.1-2.2,0.1c-0.7,0-1.5,0-2.2-0.4l-0.5-0.3
			c-0.2-0.1-0.4-0.4-0.5-0.5C34.2,31,34.2,31,34,30.9c-0.1-0.1-0.3-0.2-0.5-0.4c-0.2-0.2-0.3-0.5-0.2-0.8s0.2-0.5,0.4-0.6
			c0.3-0.3,0.6-0.5,0.8-0.7c0.3-0.2,0.6-0.5,0.7-0.6l0,0l-0.1-0.1c-0.1,0-0.1-0.1-0.1,0.1h-0.2c0-0.1,0-0.2,0.1-0.4
			c0.1-0.1,0.3-0.1,0.4-0.1c0.1,0,0.2,0.1,0.3,0.1c0.1,0.1,0.2,0.3,0.2,0.5c-0.2,0.5-0.5,0.7-0.7,0.9c-0.5,0.5-1.3,1-0.9,1.2
			c0.1,0.1,0.2,0.2,0.4,0.3c0.1,0.1,0.4,0.3,0.5,0.5s0.1,0.2,0.2,0.3l0.5,0.2c0.5,0.3,1.3,0.3,1.9,0.3c0.7,0,1.4-0.1,2.1-0.1
			c0.7-0.1,1.5-0.1,2.3,0.2c0.4,0.1,0.6,0.2,1,0.4c0.2,0.1,0.4,0.2,0.6,0.3c0.2,0.1,0.3,0.2,0.4,0.3c0.6,0.4,1.2,0.6,1.9,0.8
			c1.3,0.5,2.7,0.8,4.1,1.2c1.4,0.4,2.8,0.4,4.2,0.5c0.7,0.1,1.4,0.1,2.1,0.1c0.8,0,1.5,0.3,2.2,0.6l1,0.4c0.3,0.1,0.6,0.2,0.9,0.3
			c0.7,0.1,1.1,0.2,1.8,0.2L62.3,37.8z"/>
	</g>
	<path class="st1" d="M35.5,27.8c0,0-15.1,1.3-16,1.4c-0.7,0.1-17.8,1.2-18.3,1.2s-0.7,0.3-0.6,0.7c0,0.3,0.1,1.4,0.2,2
		s0.2,1.1,0.9,1c0.4,0,13.4-2.1,13.4-2.1s11.3-1.7,12.4-1.9s6.7-1,6.7-1"/>
	<line class="st1" x1="39.3" y1="27.4" x2="40.2" y2="27.3"/>
	<g>
		<path class="st2" d="M44,26c0.3,0,0.4,0.3,0.5,0.5s0.1,0.4,0.2,0.6c0.1,0.2,0.1,0.4,0.1,0.7c0,0.1,0,0.2,0,0.4
			c0,0.1-0.1,0.3-0.3,0.4s-0.4,0.1-0.5,0c-0.2-0.1-0.3-0.2-0.3-0.4c-0.1-0.3-0.1-0.5-0.1-0.7c0-0.4,0-0.9,0-1.3h0.1
			c0.1,0.4,0.2,0.9,0.3,1.3c0,0.2,0,0.5,0.1,0.6c0.1,0.2,0.1,0.1,0.2,0.1c0,0,0.1-0.2,0.1-0.4c0-0.2,0-0.4,0-0.6s0-0.4-0.1-0.6
			C44.2,26.3,44.2,26.2,44,26L44,26z"/>
	</g>
	<g>
		<path class="st2" d="M43.1,27.6c0.2-0.1,0.4-0.1,0.6,0c0.2,0.1,0.3,0.3,0.4,0.4c0.1,0.2,0.2,0.4,0.1,0.7c-0.2,0.3-0.4,0.2-0.6,0.2
			c0.1-0.1,0.3-0.3,0.2-0.4c0,0-0.1-0.1-0.2-0.3c-0.1-0.1-0.2-0.3-0.2-0.4C43.4,27.8,43.3,27.7,43.1,27.6z"/>
	</g>
	<g>
		<path class="st2" d="M42.6,26.9c0.2-0.1,0.5-0.1,0.7,0.1c0.1,0.3,0.1,0.4,0.1,0.6c0,0.4,0,0.8-0.2,1.2c-0.2-0.4-0.3-0.7-0.3-1.1
			c0-0.2,0-0.4,0-0.5C42.9,27.1,42.8,27,42.6,26.9z"/>
	</g>
	<path class="st1" d="M66.6,23.3c0,0-0.1,0.6,0,1s0.4,1,0.2,1.3c-0.1,0.3-0.1,1,0.1,1.3c0.2,0.4,0.8,0.9,2.1,1
		c1.3,0,3.6-0.4,4.7-0.7s1.7-0.7,2.3-1.2c0,0,1.2-0.8,1.1-2.3"/>
	<g>
		<path class="st2" d="M67,37.9c0.8,1.1,1.6,2.2,2.5,3.1c0.5,0.4,1.1,0.8,1.6,0.7c0.3,0,0.6-0.1,1-0.2c0.3,0,0.7,0,1,0
			c-0.7,0.1-1.3,0.4-2,0.6c-0.4,0.1-0.8,0-1.1-0.2c-0.3-0.1-0.6-0.4-0.9-0.6c-0.5-0.5-0.9-1-1.3-1.6C67.5,39.2,67.2,38.6,67,37.9z"
			/>
	</g>
	<g>
		<path class="st2" d="M72.8,42.2c-0.7,0.4-1.3,0.9-2.1,1.1c-0.4,0.1-0.8,0.2-1.3,0.1c-0.4-0.1-0.8-0.4-1.1-0.7
			c-0.5-0.7-0.9-1.3-1.3-2s-0.8-1.4-1.1-2.1c0.5,0.6,1,1.3,1.4,1.9c0.5,0.6,0.9,1.3,1.3,1.9c0.5,0.6,1.2,0.7,1.9,0.6
			C71.4,42.8,72.1,42.4,72.8,42.2z"/>
	</g>
	<g>
		<path class="st2" d="M72.2,47c0,0.4-0.2,0.6-0.3,0.8c-0.2,0.2-0.4,0.3-0.5,0.3c-0.4,0.1-0.7,0.2-1.1,0.3c-0.7,0.1-1.4,0.1-2.1,0
			c-1.4-0.1-2.8-0.2-4.1-0.4c-0.7-0.1-1.4-0.3-2-0.4c-0.7-0.2-1.3-0.5-2-0.7c-0.6-0.2-1.3-0.5-1.9-0.8c-0.6-0.3-1.3-0.6-1.8-1.1
			l0.1-0.1c0.5,0.5,1.1,0.7,1.7,1c0.6,0.3,1.3,0.5,1.9,0.7c0.7,0.2,1.3,0.4,2,0.6c0.7,0.2,1.3,0.3,2,0.4c1.4,0.2,2.7,0.3,4.1,0.3
			c0.7,0,1.4,0,2-0.1c0.3,0,0.6-0.1,0.9-0.2c0.1-0.1,0.2-0.1,0.3-0.2c0.1-0.1,0.1-0.2,0.1-0.1L72.2,47z"/>
	</g>
	<g>
		<path class="st2" d="M67.4,48.9c0.2,0.4-0.2,0.7-0.1,1.1c0.1,0.4,0,0.8,0,1.1c-0.1,0.7,0,1.4,0.1,2.2c0,0.2,0,0.2,0.2,0.4
			s0.1,0.5,0.1,0.6c0,0.2,0,0.3,0.2,0.4c0.1,0.1,0.2,0.4,0.3,0.5c0.1,0.4,0,0.8,0,1.1s0.2,0.7,0.3,1c0,0.2,0.1,0.4,0.1,0.6
			c0,0.1,0,0.2-0.1,0.3c0,0.1,0,0,0,0.1s0.1,0.1,0.1,0.3s0,0.2,0,0.3c0,0.2,0,0.4,0,0.5c0.1,0.7,0.2,1.5,0.3,2.2
			c0.1,0.7,0.3,1.4,0.4,2.2l0.1,0.5v0.2c0,0,0,0,0.1,0.1c0.2,0.1,0.3,0.2,0.5,0.4c0.2,0.3,0.1,0.5,0.1,0.7c0,0.7,0.3,1.3,0.6,2
			c0.3,0.7,0.5,1.4,0.7,2.1c0.2,0.4,0.1,0.4,0.6,0.4c0.4,0,0.8,0.2,1.1,0.4c0.6,0.5,1.1,1,1.7,1.5c2.3,1.9,4.6,3.7,7,5.5
			c-1.2-0.8-2.5-1.7-3.7-2.5c-1.2-0.9-2.4-1.8-3.6-2.7c-0.6-0.5-1.1-1-1.7-1.4c-0.3-0.2-0.6-0.3-0.9-0.4c-0.1,0-0.3,0.1-0.6-0.1
			c-0.3-0.2-0.3-0.4-0.4-0.6c-0.3-0.7-0.5-1.4-0.8-2.1c-0.3-0.6-0.7-1.4-0.7-2.2c0-0.4,0-0.5-0.4-0.7c0,0-0.2-0.1-0.3-0.3
			c-0.1-0.2,0-0.2-0.1-0.3l-0.1-0.5c-0.1-0.7-0.3-1.4-0.4-2.2c0-0.7-0.2-1.5-0.2-2.2c0-0.2,0-0.4,0-0.6c0-0.3,0-0.2-0.1-0.4
			c-0.1-0.1-0.1-0.3,0-0.4c0-0.1,0-0.1,0.1-0.2c0-0.2,0-0.3,0-0.5s-0.1-0.3-0.1-0.5s-0.1-0.4-0.1-0.6c0-0.4,0.1-0.7,0-1.1
			c0-0.2-0.1-0.3-0.2-0.4c-0.1-0.1-0.2-0.4-0.2-0.6c0-0.2,0.1-0.3,0-0.4c0,0-0.2-0.1-0.2-0.3c0-0.1,0-0.2,0-0.3c0-0.7-0.1-1.5,0-2.2
			c0-0.4,0.1-0.7,0.1-1.1C67.2,49.6,67.6,49.3,67.4,48.9z"/>
	</g>
	<path class="st1" d="M87.1,83.6c0,0-0.1,0.4,0.5,0.7s0.8,0.8,1,1.1s1.5,1.8,1.7,2s0.6,0.8,0.7,0.9s0.8,0.9,1,1.4s0.4,0.9,1.2,0.9
		c0.3,0,0.4,0,0.7,0c0.4-0.1,0.8-0.3,0.9-0.5s0.2-0.4,0.3-0.5c0-0.1,0.1-0.2,0.2-0.3c0.1-0.2,0.3-0.4,0.4-0.7c0.1-0.3,0.2-0.8,0.2-1
		s0.5,0.3,0.7,0.3s0.3-0.5,0.3-0.7c0-0.4-0.1-0.2-0.3-0.4s-0.4-0.4-0.3-0.5s0.2-0.8,0.1-1c-0.1-0.5-0.4-1.1-0.6-1.5
		s-0.3-0.5-0.6-0.8c-0.4-0.4-0.7-1.4-0.7-1.6c0-0.1,0.3,0,0.3-0.2s0-0.6-0.2-0.7c-0.2-0.2-0.5,0-0.6-0.1c-0.2-0.2-0.5-1.1-0.9-1.3
		s-0.8-0.3-1.3-0.3s-1.8-0.3-2.1-0.3c-0.3,0-0.6,0.3-0.6,0.3"/>
	<g>
		<path class="st2" d="M92,78.9c0.7,0.7,1.3,1.6,1.6,2.5l1.2,2.7c0.2,0.4,0.4,1,0.3,1.6c-0.1,0.5-0.3,1-0.6,1.4
			c-0.3,0.4-0.7,0.7-1.1,1.1c-0.4,0.3-0.8,0.6-1,1.1c0.3-1,1.3-1.6,1.7-2.3c0.5-0.8,0.7-1.7,0.2-2.6c-0.4-0.9-0.8-1.8-1.1-2.7
			C92.9,80.6,92.5,79.8,92,78.9z"/>
	</g>
	<g>
		<path class="st2" d="M91.5,84c-0.5,0.2-0.9,0.5-1.3,0.9c-0.2,0.2-0.4,0.4-0.5,0.6c-0.1,0.1-0.2,0.2-0.2,0.3
			c-0.1,0.1-0.2,0.2-0.2,0.4c-0.2-0.3,0-0.6,0.1-0.9s0.3-0.5,0.5-0.7C90.3,84.1,91,83.9,91.5,84z"/>
	</g>
	<g>
		<path class="st2" d="M92.3,85c-0.5,0.2-0.9,0.5-1.3,0.9c-0.2,0.2-0.4,0.4-0.5,0.6c-0.1,0.1-0.2,0.2-0.2,0.3
			c-0.1,0.1-0.2,0.2-0.2,0.4c-0.2-0.3,0-0.6,0.1-0.9s0.3-0.5,0.5-0.7C91.1,85.1,91.7,84.8,92.3,85z"/>
	</g>
	<g>
		<path class="st2" d="M36.5,83.9c-0.3,0-0.4-0.1-0.6-0.1c-0.1,0-0.1-0.1-0.2-0.2c-0.1-0.1-0.1-0.1-0.2-0.2c0.2-0.2,0.5-0.1,0.7,0
			C36.4,83.4,36.5,83.6,36.5,83.9z"/>
	</g>
	<g>
		<path class="st2" d="M35.9,84.9c-0.3-0.1-0.5-0.2-0.7-0.3c-0.2-0.1-0.4-0.2-0.6-0.5c0.3-0.2,0.6-0.1,0.9,0
			C35.7,84.3,35.9,84.6,35.9,84.9z"/>
	</g>
	<path class="st1" d="M42.6,85.9c0,0,0,1.2-0.1,1.2c-0.1,0.1,0.2,0.4,0.2,0.7c0,0.3,0.2,0.9-0.9,0.9s-4.5,0.3-4.9,0.1l-0.1-0.1
		c-0.1,0-0.1,0-0.1,0.1l0,0l0,0h-0.1c0,0-0.1,0-0.1-0.1v-0.1c0-0.1-0.3-0.1-0.3-0.1c-0.2,0-0.4-0.1-0.6-0.1c-0.1,0-0.2,0-0.3-0.1
		c-0.1,0-0.2-0.1-0.3,0c0,0.1,0,0.2,0,0.3c0,0,0,0,0,0.1c0,0,0,0-0.1,0s-0.3,0-0.4,0c-0.1,0-0.1,0-0.2-0.1c0,0,0-0.1,0-0.2
		s0-0.1,0-0.2s-0.2-0.1-0.3-0.1c-1.2-0.3-3.5,0-3.5-1c0-0.9,0.5-1.4,1.2-1.5s1-0.2,1.2-0.4c0.2-0.2,1.4-0.8,1.5-0.9
		c0.2-0.2,1.1-1.1,1.5-1.3s1.7-1.2,2.1-1.3"/>
	<g>
		<path class="st2" d="M30.8,87.2c0.8-0.6,1.8-0.7,2.7-0.5c0.9,0.1,1.8,0.4,2.7,0.5c0.9,0,1.9,0.2,2.7,0.1c0.9-0.2,1.9-0.3,2.8-0.3
			c-0.9,0.2-1.8,0.3-2.7,0.6c-1,0.3-1.9,0.1-2.8,0c-1-0.1-1.9-0.4-2.7-0.7C32.6,86.9,31.7,86.9,30.8,87.2z"/>
	</g>
	<g>
		<path class="st2" d="M57,56.7c-0.6,0.9-1.1,1.8-1.8,2.7c-0.3,0.4-0.7,0.8-1,1.2s-0.6,0.9-0.9,1.3c-1.1,1.8-2.2,3.7-3.1,5.6
			l-1.5,2.9c-0.3,0.5-0.5,0.9-0.8,1.4c-0.2,0.3-0.3,0.4-0.5,0.6L46.9,73c-0.6,0.9-1.2,1.8-1.8,2.6c-0.3,0.4-0.6,0.9-1,1.2
			c-0.2,0.2-0.4,0.4-0.6,0.6c-0.1,0.2-0.4,0.4-0.3,0.7c-0.1-0.1-0.1-0.3,0-0.4s0.1-0.2,0.2-0.3c0.2-0.2,0.3-0.4,0.5-0.6
			c0.4-0.4,0.6-0.8,0.9-1.3l1.7-2.7l0.4-0.7c0.1-0.2,0.4-0.5,0.5-0.6c0.3-0.4,0.5-0.9,0.8-1.4l1.4-2.9c0.9-1.9,2-3.8,3.2-5.6
			c0.3-0.4,0.6-0.9,0.9-1.3c0.3-0.4,0.7-0.8,1.1-1.2C55.7,58.5,56.4,57.6,57,56.7z"/>
	</g>
	<g>
		<path class="st2" d="M40.5,76.9c0.5,1.1,1,2.3,1.4,3.4c0.2,0.6,0.5,1.1,0.7,1.6c0.1,0.2,0.4,0.4,0.6,0.7c0.2,0.2,0.3,0.6,0.6,0.6
			c-0.2,0-0.3,0-0.4-0.2l-0.3-0.3c-0.2-0.2-0.5-0.3-0.7-0.6c-0.4-0.5-0.6-1.1-0.9-1.7C41,79.3,40.7,78.1,40.5,76.9z"/>
	</g>
	<g>
		<path class="st2" d="M57.7,48.7c0.8,0.9,1.7,1.7,2.7,2.5c1,0.7,2,1.4,3.1,1.6c1.2,0.2,2.4,0.3,3.6,0.5c0.6,0.1,1.2,0.2,1.8,0.2
			c0.6,0.1,1.2,0.4,1.7,0.8c-0.5-0.4-1.1-0.6-1.7-0.6s-1.2,0-1.8-0.1c-1.2-0.1-2.4-0.2-3.7-0.4c-1.3-0.3-2.4-1-3.3-1.8
			C59.2,50.6,58.4,49.7,57.7,48.7z"/>
	</g>
	<g>
		<path class="st2" d="M64.6,67.5c0.7,1,1.6,1.8,2.6,2.4c0.5,0.3,1.1,0.5,1.6,0.6c0.6,0.1,1.2,0.2,1.8,0.2c1.2,0.1,2.4,0,3.6-0.2
			l0.9-0.1c0.3,0,0.6,0,0.9,0c0.6,0,1.2,0,1.8,0.3c-0.6-0.1-1.2-0.1-1.8,0c-0.3,0-0.6,0-0.9,0.1L74.2,71c-1.2,0.3-2.4,0.4-3.7,0.3
			c-0.6,0-1.2-0.1-1.8-0.2c-0.6-0.2-1.2-0.4-1.7-0.8C66,69.5,65.1,68.6,64.6,67.5z"/>
	</g>
	<g>
		<path class="st2" d="M73.4,75.9c1.6,0.7,3.4,1.4,5.1,1.6c0.9,0.1,1.8,0.1,2.7,0.1c0.9,0,1.7-0.2,2.7-0.3l0,0
			c0.4-0.1,0.8-0.1,1.1-0.2c0.4,0,0.8-0.1,1.2-0.1c-0.8,0.1-1.5,0.3-2.2,0.5l0,0c-0.4,0-0.9,0.2-1.3,0.3c-0.5,0.1-0.9,0.1-1.4,0.2
			c-0.9,0-1.8,0-2.8-0.1c-0.9-0.1-1.8-0.4-2.6-0.8C74.9,76.9,74.1,76.5,73.4,75.9z"/>
	</g>
	<g>
		<path class="st2" d="M81,79.7c0.5,0,1.1,0,1.6,0s1-0.1,1.5-0.3c0.6-0.1,1.2-0.1,1.7,0.2c0.5,0.3,0.9,0.5,1.4,0.8
			c-0.3,0-0.5-0.1-0.8-0.2s-0.5-0.2-0.8-0.3c-0.5-0.1-1-0.2-1.4-0.1C83.7,80,83.1,80,82.6,80C82,80,81.5,79.9,81,79.7z"/>
	</g>
	<g>
		<path class="st2" d="M68.9,24.8c0.1,0.1-0.1,0.3-0.2,0.3c-0.1,0.1-0.3,0-0.4,0s-0.2,0-0.3,0c-0.1,0-0.3,0-0.4-0.1
			c-0.1,0-0.1,0-0.2,0s-0.2-0.1-0.4-0.3c-0.1-0.1,0-0.3,0-0.3c0.1-0.1,0.1-0.1,0.2-0.1c0.2-0.1,0.2,0,0.3,0c0,0.1-0.2,0.2-0.2,0.3
			c0,0-0.1,0.1,0,0.1l0,0c0,0,0.1,0,0.2,0s0.3,0.1,0.3,0.1c0.1,0.1,0.1,0,0.2,0.1c0.1,0,0.2,0.1,0.3,0.1c0.1,0,0.2,0.1,0.2,0.1
			C68.7,24.9,68.8,24.9,68.9,24.8z"/>
	</g>
	<g>
		<path class="st2" d="M66.9,25.1c0.2,0.1,0.3,0.3,0.5,0.4s0.3,0.2,0.3,0.2c0.1,0,0.3,0,0.4,0.1l0.2,0.2c0.1,0.1,0.3,0.2,0.5,0.2
			c-0.2,0.2-0.4,0.2-0.7,0.2c-0.1,0-0.3-0.1-0.3-0.1c-0.1,0-0.1,0-0.2,0s-0.4-0.1-0.4-0.2C67.1,26,67,25.9,67,25.8
			C67,25.6,66.9,25.4,66.9,25.1z"/>
	</g>
	<g>
		<path class="st2" d="M65.2,26.2c-0.8,0.7-1.6,1.3-2.4,2c-0.8,0.6-1.6,1.3-2.3,2c0.2-0.5,0.5-0.9,0.8-1.3s0.7-0.8,1.2-1.1
			C63.4,27.2,64.3,26.6,65.2,26.2z"/>
	</g>
	<g>
		<path class="st2" d="M63.1,25c0.3-0.4,0.6-0.8,1-1.2c0.2-0.2,0.3-0.4,0.5-0.5c0.2-0.2,0.4-0.4,0.7-0.4V23
			c-0.2,0.1-0.3,0.3-0.5,0.5c-0.1,0.2-0.3,0.4-0.4,0.6c-0.3,0.4-0.5,0.9-0.7,1.3L63.1,25z"/>
	</g>
	<g>
		<path class="st2" d="M64.3,30.2c0.5,0.2,1,0.5,1.5,0.8s0.9,0.6,1.4,0.9c0.9,0.6,1.8,1.3,2.7,1.9c-0.6-0.1-1.1-0.4-1.6-0.6
			c-0.6-0.4-1-0.7-1.3-0.9c-0.5-0.3-1-0.8-1.5-1.1C65,30.7,64.7,30.6,64.3,30.2z"/>
	</g>
	<g>
		<path class="st2" d="M61.7,30.5c0.6,0.1,1.1,0.4,1.6,0.6c0.5,0.3,1,0.6,1.4,0.9c0.9,0.7,1.7,1.4,2.6,2.2c-1-0.5-1.9-1.1-2.8-1.8
			C63.5,31.8,62.6,31.1,61.7,30.5z"/>
	</g>
	<g>
		<path class="st2" d="M66.7,28.7c1.2-0.1,2.4,0.2,3.4,0.9c0.5,0.4,0.9,0.8,1.2,1.3c0.4,0.5,0.7,0.9,1,1.5c-0.4-0.4-0.8-0.8-1.3-1.2
			c-0.4-0.4-0.8-0.8-1.3-1.1C68.9,29.3,67.8,28.9,66.7,28.7z"/>
	</g>
	<g>
		<path class="st2" d="M78.1,25.3c0,0.6-0.3,1.3-0.7,1.8c-0.4,0.5-1,0.9-1.6,1.1c-0.6,0.3-1.3,0.3-1.9,0.3s-1.3,0-1.9-0.3
			c0.6,0,1.2,0,1.9-0.1c0.6-0.1,1.2-0.2,1.8-0.4c0.6-0.2,1.1-0.5,1.5-0.9C77.6,26.5,78,26,78.1,25.3z"/>
	</g>
	<g>
		<path class="st2" d="M76.5,24.1c0.2,0.1,0.3,0.4,0.2,0.7c0,0.3-0.2,0.5-0.4,0.6c-0.2,0.1-0.4,0.2-0.6,0.3c-0.1,0-0.2,0.1-0.4,0
			c-0.1,0-0.3-0.2-0.2-0.3c0.1,0.1,0.2,0.1,0.2,0c0.1,0,0.1-0.1,0.2-0.1c0.2-0.1,0.3-0.2,0.5-0.3c0.1-0.1,0.3-0.2,0.4-0.4
			C76.4,24.5,76.5,24.4,76.5,24.1z"/>
	</g>
	<g>
		<path class="st2" d="M69.9,27.8c0.6-0.2,1.1-0.3,1.6-0.6c0.5-0.2,1-0.5,1.5-0.8c-0.2,0.6-0.7,1-1.3,1.3
			C71.1,28,70.5,28.1,69.9,27.8z"/>
	</g>
</g>
</svg>
