<?xml version="1.0" encoding="utf-8"?>
<!-- Generator: Adobe Illustrator 21.0.0, SVG Export Plug-In . SVG Version: 6.00 Build 0)  -->
<svg version="1.1" id="Layer_1" xmlns="http://www.w3.org/2000/svg" xmlns:xlink="http://www.w3.org/1999/xlink" x="0px" y="0px"
	 viewBox="0 0 100 100" style="enable-background:new 0 0 100 100;" xml:space="preserve">
<style type="text/css">
	.st0{opacity:0.5;fill:#5C7DB1;enable-background:new    ;}
	.st1{fill:none;stroke:#5C7DB1;stroke-width:0.75;stroke-miterlimit:10;}
	.st2{fill:#5C7DB1;}
</style>
<g id="batter1">
	<path class="st0" d="M71.5,89.4c-0.3-0.3-0.6-0.5-0.7-0.8s-0.6-1.1-0.8-1.4c-0.3-0.3-0.7-0.8-1-1.1c0.2,0,0.4-0.1,0.4-0.2
		c0-0.2-0.1-0.6-0.1-0.8c0-0.2,0-0.5-0.3-0.7c-0.2-0.2-0.3-0.7-0.1-1.1c0.2-0.4-0.1-0.7,0.2-1.2c0.3-0.5,0.6-1.1,0.5-1.7
		c-0.1-0.5-0.2-3.9-0.2-4.4s0.4-3.2,0.4-3.7s0.2-4.1,0.2-4.7s-0.3-0.9-0.6-1.3c-0.3-0.5-2.3-3.8-2.6-4.1c-0.3-0.3-1.6-2.7-2.3-3.3
		c-0.6-0.6-2-2.5-2.8-3.3s-2.1-2-2.4-2.3c-0.3-0.3-0.6-0.8-0.9-1.2c-0.3-0.3-0.7-1-0.9-1.2S57,50,56.7,50S56,49.5,56,49.2
		c0,0,0.3-1.4,0.3-1.7c0,0,0.3-3.7,0.2-4.3c0.3-0.4,0.5-0.6,0.6-0.8c0,0,4.7-4.8,5.1-5.3c0.4-0.4,0.8-0.8,1.2-0.8s0.8-0.3,1.2-0.7
		s0.7-1,0.8-1.3c0.1-0.3,0.8-0.6,1-0.8s0.7-0.6,0.4-0.8c-0.3-0.3-0.3-0.3-0.5-0.5s0-0.3-0.3-0.6c-0.3-0.3-0.5-0.5-0.6-0.7
		c-0.1-0.1-0.1-0.3-0.3-0.5c-0.1-0.1-0.2-0.3-0.3-0.5c-0.1-0.1-0.3-0.2-0.4-0.3c-0.1,0-0.3,0-0.4,0c0.1,0,0.2-0.1,0.3-0.1
		c0.6-0.3,1.1-0.5,1.8-0.6c2.8-0.3,4.2-2,4.9-2.5c0.6-0.3,0.5-1,0.4-1.6c0-0.2,0-0.5-0.2-0.6c-0.3-0.2-0.7-0.5-1-0.6
		c-0.4-0.1-0.8,0.1-1.1,0c-0.3-0.1-0.5-0.3-0.8-0.5c-0.2-0.1-0.4-0.1-0.6-0.2c-1.1-0.2-2.2,0.1-3.2,0.5c-0.5,0.2-1,0.4-1.5,0.5
		c-0.6,0.1-1.2,0-1.8,0c-0.5,0-1,0.3-1.5,0.3c-0.4,0-1.3,0.2-1.6,0.2c-3.4-4.1-10.6-12.6-12.6-15c-2.7-3.4-3.8-4.3-6.1-6.9
		c-0.3-0.2-0.5-0.3-1.3,0S36.4,4,37,4.6s4.7,5.3,5.6,6.1s6.9,6.8,7.6,7.5c0.1,0.1,0.5,0.5,1.1,1.1c-0.6-0.3-1.1-0.4-1.6-0.5
		c-1.4-0.2-3.4,0.1-4.3,1.3C44.5,21.3,44,23,44,23.3c0,0.3-2.2,1.6-2,2.2c0.1,0.5,1.5,1.1,1.5,1.1s0,0.5,0,1.1c0,0-3.4,2.2-4.1,3.3
		c-0.7,1.2-1.6,1.8-1.6,4.8c0,3.1,0.2,3.2,0.2,3.8s0.2,1.8,0.2,2s-0.1,1.1-0.3,1.7c0,0-0.2,0.4-0.1,0.6c0.1,0.3-0.2,0.5-0.3,0.7
		s-0.5,0.8-0.3,1.2s0,0.7,0,0.9s-0.3,0.6-0.3,0.8c-0.1,0.2-0.3,0.8-0.1,1c0,0-0.3-0.1-0.9,1.1S34.4,52,34.4,53s0.5,2.7,0.5,3.6
		c0,0.9,0.3,2-0.2,2.6c-0.5,0.5-0.4,3.1-0.8,4.4c-0.4,1.3-0.8,4.3-0.8,4.9s-0.1,1.2-0.8,1.8c-0.7,0.7-1.1,1.5-1.4,1.8S29,73,28,74.8
		c-1,1.8-3.5,5.4-4.2,6.8C23,83,20.9,86,20.2,86.7c-0.6,0.6-2.5,3-2.5,4.3c0,0-0.4,2-0.2,2c0.1,0,0.2,0,0.3-0.1c0,0,0,0,0.1,0
		c0,0.2,0,0.4,0,0.6s0,0.4,0.1,0.5c0.1,0.2,0.3,0.4,0.5,0.6c0.1,0.1,0.2,0.2,0.3,0.2c0.1,0,0.2,0,0.3,0.1c0.4,0.1,0.8,0.3,1.1,0.6
		c0.3,0.3,0.7,0.6,1.1,0.8c0.2,0.1,0.4,0.2,0.6,0.3c0.2,0.1,0.4,0.1,0.6,0.2c0.2,0.2,0.2,0.4,0.4,0.5c0.1,0,0.4,0.1,0.5,0.1
		s0.1-0.2,0.3-0.3c0.1,0,0.2,0,0.3,0c0.1,0,0.2,0,0.3,0c0.4,0,0.2,0.3,0.4,0.4c0,0,0,0,0.1,0c0.2,0,0.4,0,0.6-0.1c0,0,0.1,0,0.1-0.1
		c0.1-0.1,0-0.3,0-0.4c0.5,0,1-0.2,1.2-0.7c0.2-0.4,0-1.2-0.2-1.3c-0.2-0.2-1.3-1.2-1.4-1.3c-0.1-0.1-0.5-0.3-0.6-0.4
		s-0.1-0.6-0.1-0.7S24,91.7,24,91.7v-0.1c0.3,0,0.5,0,0.4-0.1c-0.2-0.2-0.2-0.4,0.1-0.7c0.2-0.2,1-0.6,1.2-0.9
		c0.3-0.3,0.3-0.8,0.5-1s1.5-1.7,2.1-2.3c0.6-0.6,2.7-2.7,3.1-3.4c0.5-0.7,2.5-3.7,3-4.5s3.3-5.1,4.1-6c0.7-0.9,2.8-3.6,3.7-4.3
		c1-0.8,3.6-3.3,3.9-3.8c0.3-0.5,2.7-2.5,3-2.4c0.4,0.1,2,0.3,2.5,0.6s1.4,0.5,1.7,0.9c0.3,0.3,2.4,2.1,3.3,2.8
		c0.9,0.7,3,1.7,3.2,1.9s2,1.4,2.3,1.5s0.6-0.1,0.6,0c0.1,0.1,0.3,0.4,0.3,0.6s-0.1,1.4-0.1,1.7c0,0.4,0,2.5,0.1,2.9
		c0.1,0.3,0,1.4,0,1.6s0,1.8,0.2,2.2c0.2,0.4,0.6,1.2,0.5,1.3c0,0-1,1.4-1.2,1.8c-0.2,0.5-0.1,1.2,0.2,1.7s0.3,0.7,0.3,1
		c0,0.2-0.2,1.1-0.4,1.3c-0.2,0.2-0.9,1.7-0.6,1.7c0,0,0,0,0.1,0H62c0,0.4,0,0.8,0,1.2c0,0.2,0.1,0.4,0.2,0.5
		c0.2,0.3,0.7,0.2,0.9,0.5c0.1,0.1,0.1,0.3,0.1,0.4c0.1,0.2,0.2,0.3,0.4,0.3c0.2,0.1,0.4,0,0.6,0c0.1,0,0.1,0,0.1-0.1
		c0,0,0-0.1,0.1-0.2h0.1c0.4,0,1,0,1.3,0.1s1,0.6,1.1,0.9c0.1,0.2,0,0.3,0.1,0.5c0.2,0.2,0.5,0.2,0.7,0.2h0.1
		c0.1-0.1,0.1-0.2,0.2-0.2c0.1-0.1,0.4,0,0.5,0.1c0.1,0,0.2,0,0.3,0.1c0.3,0.2,0.2,0.4,0.6,0.5c0.2,0,0.6,0.1,0.7-0.1s0-0.4,0.3-0.3
		c0.2,0,0.4,0,0.6,0c0.4-0.1,0.8-0.3,1-0.7C72.6,90.6,71.7,89.7,71.5,89.4z M64,29.9L64,29.9c-0.2,0-0.2,0.1-0.3,0.1
		C63.8,30,63.9,30,64,29.9z M59.7,33.3c0.7-0.7,1.2-0.6,1.2-0.6H61c-0.1,0.2-0.1,0.4-0.1,0.6c0,0.5-0.8,1.3-1.3,1.6
		c-0.2,0.1-0.9,0.4-1.7,1C58.2,35.5,59,33.9,59.7,33.3z M53.1,25.5c-0.2-0.3,0-0.7,0-1c0-0.2,0.3-1.9,0-3.3l0,0
		c1.2,1.2,2.5,2.6,3.5,3.7c-0.8,0.1-1.6,0.2-2.3,0.3C53.9,25.3,53.5,25.3,53.1,25.5z"/>
	<path class="st1" d="M49.7,18.9c-1.4-0.2-3.4,0.1-4.3,1.3c-0.9,1.2-1.4,2.9-1.4,3.2c0,0.3-2.2,1.6-2,2.2c0.1,0.5,0.5,0.8,2.4,1.5
		c2.1,0.8,3.2,1.3,4.4,0.9s1.8-1.1,2.4-1.1s2-0.1,2.2-0.2c0.2-0.2,0.3-0.6-0.1-0.9c-0.4-0.4-0.1-0.8-0.1-1.2c0-0.3,0.7-3.7-1-4.7
		C51.2,19.3,50.4,19,49.7,18.9z"/>
	<g>
		<path class="st2" d="M53.2,26.7c-0.1,0.5-0.2,0.8-0.3,1.1c-0.2,0.3-0.3,0.7-0.6,1c-0.2,0.3-0.5,0.6-1,0.7c-0.2,0-0.4,0-0.6-0.2
			c-0.2-0.2,0-0.5,0-0.6h0.2c0,0.2-0.1,0.4,0,0.4c0.1,0.1,0.3,0.1,0.4,0c0.3-0.1,0.5-0.4,0.6-0.6c0.2-0.3,0.3-0.6,0.4-1
			c0.1-0.3,0.2-0.7,0.2-0.9h0.7V26.7z"/>
	</g>
	<g>
		<path class="st2" d="M43.8,26.6c0,0.5,0,1.1,0,1.6c0,0.6,0,1.1,0.3,1.5c0.1,0.4,0,0.7,0.1,0.9c0,0.2,0.1,0.3,0.3,0.7
			c0.1,0.3,0.1,0.6,0.2,0.7c0.1,0.1,0.4,0.2,0.6,0.3c0.5,0.2,1,0.2,1.5,0.2s1-0.3,1.5-0.5s1.1-0.3,1.5-0.6c0.4-0.3,0.7-0.8,0.9-1.3
			l0.2,0.1c-0.2,0.5-0.4,1.1-0.9,1.5c-0.4,0.4-1,0.6-1.5,0.7c-0.5,0.2-1,0.5-1.6,0.6s-1.2,0-1.7-0.1c-0.3-0.1-0.6-0.1-0.9-0.4
			C44,32.1,44,31.7,44,31.6s-0.3-0.5-0.4-0.8c0-0.4,0-0.6-0.1-0.7c0-0.1,0-0.1-0.1-0.2c0-0.1-0.1-0.2-0.1-0.2c0-0.2-0.1-0.3-0.1-0.4
			c-0.1-0.3-0.1-0.6-0.1-0.9C43,27.8,43,27.3,43,26.7L43.8,26.6L43.8,26.6z"/>
	</g>
	<g>
		<path class="st2" d="M44.5,28.2c0,0.2-0.2,0.3-0.2,0.4c0,0,0,0.1,0,0l0,0c0,0,0.1,0.1,0.1,0.2c0.1,0.3,0,0.3,0.1,0.5
			c0.1,0.1,0.2,0.2,0.4,0.1c0.1,0,0.3-0.1,0.5-0.1c0.3,0,0.4,0,0.5,0.1c0.1,0,0.2,0.1,0.3,0.1s0.2-0.1,0.3-0.2l0,0
			c0.1,0.2,0.1,0.4-0.1,0.6C46.2,30,46,30,45.8,30c-0.2,0-0.3-0.1-0.4-0.1c-0.1,0-0.3,0-0.5,0c-0.2-0.1-0.3-0.2-0.5-0.3
			c-0.1-0.1-0.3-0.4-0.3-0.4s0,0-0.1,0c0,0-0.1,0-0.1-0.1c-0.1-0.2,0-0.3,0-0.4C44.2,28.2,44.3,28.2,44.5,28.2L44.5,28.2z"/>
	</g>
	<path class="st1" d="M43.4,27.6c0,0-3.4,2.2-4.1,3.3c-0.7,1.2-1.6,1.8-1.6,4.8c0,3.1,0.2,3.2,0.2,3.8s0.2,1.8,0.2,2
		s-0.1,1.1-0.3,1.7c0,0-0.2,0.4-0.1,0.6c0.1,0.3-0.2,0.5-0.3,0.7s-0.5,0.8-0.3,1.2c0.1,0.3,0,0.7,0,0.9s-0.3,0.6-0.3,0.8
		c-0.1,0.2-0.3,0.8-0.1,1s0.9,0.1,1.1,0.3s1.5,0.9,1.8,1.1c0.3,0.2,1.2,0.9,1.4,1.1c0.2,0.2,1.1,1,1.9,1.2c0.5,0.2,0.2,0.6,1.2,0.7
		c0,0,0.8-0.1,1.2,0.2c0.4,0.2,1,0.6,1.2,0.8s0.7,0.2,1,0.1c0.3-0.1,1,0.3,2.1,0.2s2.3-0.6,2.7-0.8c0.3-0.2,1.5-1,2.1-1.6
		s1.6-2.1,1.8-2.6c0.2-0.4,0.4-1.5,0.4-1.7c0,0,0.3-3.7,0.2-4.3"/>
	<g>
		<path class="st2" d="M43.2,33.7c0.9,0.1,1.7,0.3,2.5,0.9c0.4,0.3,0.7,0.6,1,0.8c0.2,0.1,0.3,0.1,0.6,0.2c0.3,0.1,0.5,0.4,0.6,0.5
			s0.3,0.3,0.4,0.4l0.3,0.2c0.1,0.1,0.2,0.1,0.4,0.4c0,0.3,0.4,0.5,0.7,0.8l1,0.8c0.2,0.1,0.3,0.3,0.5,0.4c0.1,0.1,0.2,0.1,0.3,0.4
			c0,0.1,0,0.3-0.1,0.4C51.2,40,51.2,40,51.1,40H51l-0.2,0.1c-0.8,0.3-1.4,0.7-2,1.4c-0.6,0.6-1.1,1.3-1.7,1.9
			c-0.5,0.7-1,1.4-1.1,2.2c-0.3,1,1.2,0.8,1.6,0.1c-0.2,0.4-0.6,0.7-1,0.8c-0.2,0-0.5,0.1-0.7-0.2c-0.2-0.2-0.2-0.5-0.2-0.7
			c0.1-0.9,0.5-1.8,1-2.5s1-1.4,1.6-2.1c0.3-0.3,0.6-0.7,1-1s0.8-0.5,1.2-0.7l0.2-0.1l0,0c0,0,0,0-0.1,0.1s-0.1,0.2-0.1,0.2
			c0,0.1,0,0-0.1-0.1s-0.3-0.3-0.5-0.4l-1-0.9c-0.2-0.1-0.3-0.3-0.5-0.5c-0.1-0.1-0.2-0.2-0.2-0.3s-0.1-0.1-0.1-0.2V37v-0.1l0,0
			c0.1,0.1,0,0-0.1,0c-0.1-0.1-0.2-0.1-0.3-0.2c-0.2-0.1-0.4-0.3-0.5-0.5s-0.2-0.3-0.3-0.4c-0.1,0-0.4-0.1-0.6-0.3
			c-0.4-0.3-0.7-0.6-1-0.9C44.8,34.3,44,34,43.2,33.7z"/>
	</g>
	<g>
		<path class="st2" d="M46.3,46.4c-0.8-0.2-1.5-0.5-2.3-0.9c-0.7-0.4-1.4-0.9-2-1.4c-0.3-0.3-0.6-0.6-0.9-0.9
			c-0.3-0.3-0.6-0.6-0.9-0.8c-0.6-0.6-1.2-1.2-1.5-2h0.1c0.4,0.7,1,1.2,1.6,1.7c0.3,0.2,0.6,0.5,0.9,0.8c0.3,0.3,0.6,0.5,0.9,0.8
			c0.6,0.5,1.3,0.8,2,1.3C45,45.3,45.7,45.8,46.3,46.4L46.3,46.4z"/>
	</g>
	<path class="st1" d="M46.4,44.3c0,0,1.4,1.8,2.9,2.3s2.1,0.9,4.6-1.1s2.9-2.8,3.3-3.2c0,0,4.7-4.8,5.1-5.3c0.4-0.4,0.8-0.8,1.2-0.8
		s0.8-0.3,1.2-0.7s0.7-1,0.8-1.3c0.1-0.3,0.8-0.6,1-0.8s0.7-0.6,0.4-0.8c-0.3-0.3-0.3-0.3-0.5-0.5s0-0.3-0.3-0.6
		c-0.3-0.3-0.5-0.5-0.6-0.7c-0.1-0.1-0.1-0.3-0.3-0.5c-0.1-0.1-0.2-0.3-0.3-0.5c-0.1-0.1-0.3-0.2-0.4-0.3c-0.2,0-0.3,0-0.5,0
		c-0.8,0.3-1.7,0.5-2.2,1.3c-0.6,0.9-0.9,1.5-0.9,2.1c0,0.5-0.8,1.3-1.3,1.6c-0.6,0.3-4.8,3.3-5.5,3.7c-0.8,0.4-2.6,1.5-3.1,1"/>
	<path class="st1" d="M53.1,25.4c0.4-0.1,0.6,0,0.7,0s1.3-0.3,1.8-0.3s1.1-0.2,1.1-0.2"/>
	<g>
		<path class="st2" d="M57.9,24.3c0.4-0.1,0.8-0.1,1.2-0.2h0.3h0.3c0.2,0,0.4,0,0.6-0.1c0.4-0.1,0.8-0.2,1.2-0.2c0.2,0,0.5,0,0.6,0
			c0.2,0,0.4-0.1,0.6-0.1c0.8-0.2,1.5-0.4,2.3-0.6c0.2-0.1,0.4-0.1,0.6-0.1h0.2c0.1,0,0.1,0,0.2,0.1s0.1,0.1,0.1,0.2v0.3
			c0,0.2,0,0.4-0.2,0.6c-0.1,0.2-0.2,0.3-0.2,0.5h-0.2c-0.1-0.3,0.1-0.5,0.1-0.6c0.1-0.2,0.1-0.3,0.1-0.5v-0.3c0,0,0.1,0.1,0,0h-0.1
			c-0.2,0-0.4,0.1-0.5,0.1c-0.8,0.3-1.5,0.5-2.2,0.8c-0.2,0.1-0.4,0.1-0.6,0.1c-0.2,0-0.4,0-0.6,0.1c-0.4,0.1-0.8,0.2-1.1,0.3
			c-0.2,0-0.4,0.1-0.6,0.1h-0.3h-0.3c-0.4,0.1-0.8,0.1-1.1,0.2L57.9,24.3z"/>
	</g>
	<g>
		<path class="st2" d="M65.6,22.9c0.7-0.1,1.5-0.4,2.2-0.2c0.4,0.1,0.7,0.2,1.1,0.4c0.3,0.2,0.2,0.2,0.4,0.2c0.1,0,0.3,0,0.5-0.1
			c0.2,0,0.4-0.1,0.6,0c0.3,0.1,0.5,0.2,0.6,0.4c0.3,0.3,0.6,0.5,0.7,1.1c0,0.2,0,0.2,0,0.3v0.3c0,0.2,0,0.4,0,0.6
			c0,0.4-0.2,0.9-0.6,1.2c-0.6,0.4-1.1,1-1.7,1.4s-1.3,0.8-2.1,1c-0.7,0.2-1.5,0.3-2.2,0.4c-0.4,0.1-0.5,0.2-0.9,0.4
			c-0.4,0.2-0.8,0.2-1.1,0.3c-0.7,0.2-1,0.6-1.5,1.2c-0.1,0.1-0.3,0.3-0.7,0.4c-0.2,0-0.6,0-0.8-0.2C60,32,60,31.9,60,31.9l0,0h0.2
			c-0.1,0-0.2,0-0.3,0.1c-0.2,0-0.4,0.1-0.7,0c-0.1,0-0.3-0.1-0.5-0.2s-0.3-0.3-0.4-0.4c-0.3-0.2-0.4-0.5-0.4-0.7
			c-0.1-0.2,0-0.6,0.1-0.8c0.1-0.1,0.1-0.1,0.1-0.1s0,0.1-0.1-0.1c-0.1-0.3-0.1-0.6,0-0.8c0.1-0.2,0.1-0.4,0.2-0.6
			c0-0.1,0.2-0.4,0.2-0.5c0.4-0.7,0.8-1.3,1.4-1.8c0.2-0.1,0.4-0.3,0.6-0.4c0.3-0.1,0.6,0,0.8,0.1c0.3,0.1,0.7,0.2,1.1,0.4
			c-0.1,0,0.2,0,0.2,0s0.2-0.1,0.3-0.2c0.3-0.2,0.6-0.5,1-0.6c0.3-0.1,0.6-0.3,0.9-0.5c0.1-0.1,0.3-0.2,0.4-0.3v-0.1
			c0-0.1,0.1-0.1,0.1-0.1v-0.1l0.1-0.1v0.1l0,0v0.1c0,0.1,0,0.2-0.1,0.2c-0.1,0.1,0,0-0.1,0.2s-0.3,0.3-0.4,0.4
			c-0.3,0.2-0.6,0.5-0.9,0.7c-0.3,0.2-0.5,0.4-0.7,0.7l-0.2,0.2c0,0.1-0.2,0.2-0.3,0.3c-0.3,0.1-0.4,0.2-0.8,0
			c-0.2-0.2-0.6-0.3-0.9-0.4c-0.3-0.1-0.3-0.1-0.6,0.1c-0.5,0.5-0.9,1.1-1.2,1.6c0,0.1-0.2,0.4-0.2,0.5c-0.1,0.2-0.1,0.3-0.2,0.5
			c0,0.1,0,0.3,0,0.3s0.1,0.2,0.1,0.4c0,0.3-0.1,0.4-0.2,0.4c-0.1,0.1-0.1,0.1,0,0.2c0,0.1,0.1,0.3,0.1,0.2c0,0,0,0,0.1,0
			c0,0,0.2,0,0.4,0.2c0.1,0.2,0.1,0.3,0.1,0.3c0,0.2,0,0,0,0l0,0c0.1,0,0.3,0,0.4,0l0.2-0.1H60h0.1c0.1,0,0.1,0,0.2,0h0.1
			c0.1,0,0.1,0.1,0.1,0.1l0.1,0.1c0,0,0.1,0,0.2,0c0,0,0.1-0.1,0.2-0.2c0.2-0.2,0.4-0.6,0.7-0.8c0.3-0.3,0.7-0.5,1.1-0.6
			c0.4-0.1,0.8-0.2,1-0.3c0.2-0.1,0.7-0.4,1.1-0.4c0.8-0.2,1.5-0.2,2.1-0.4c0.7-0.2,1.3-0.5,1.9-0.9s1.1-0.9,1.7-1.3
			c0.4-0.3,0.3-1,0.2-1.7c0-0.2-0.3-0.5-0.5-0.7C70.2,24,70,23.9,70,23.9c-0.1,0-0.3,0-0.4,0c-0.2,0-0.4,0-0.6,0
			c-0.1,0-0.2-0.1-0.4-0.1l-0.1-0.1l0,0c0,0,0,0-0.1-0.1c-0.2-0.2-0.6-0.3-0.9-0.4c-0.7-0.2-1.4-0.1-2.1,0.1L65.6,22.9z"/>
	</g>
	<g>
		<path class="st2" d="M59.3,27.6c-0.2,0.1-0.4,0.1-0.6,0c-0.1,0-0.1,0-0.2-0.1c-0.1,0-0.1-0.1-0.1-0.1c-0.1,0-0.1-0.1-0.2-0.1
			c-0.3-0.1-0.3,0.1-0.4,0.2c0,0.1,0,0.3,0.3,0.6c0.1,0.1,0.2,0.3,0.3,0.4s0.3,0.1,0.4,0.2c-0.1,0-0.2,0.1-0.3,0.1s-0.3,0-0.4,0
			c-0.2-0.1-0.4-0.2-0.5-0.3c-0.3-0.2-0.8-0.6-0.6-1.2c0.1-0.3,0.3-0.5,0.6-0.6s0.6,0,0.8,0.1c0.1,0.1,0.2,0.1,0.3,0.2l0.1,0.1
			c0,0,0,0,0.1,0.1C58.9,27.4,59.1,27.5,59.3,27.6z"/>
	</g>
	<g>
		<path class="st2" d="M58.4,29.8c0.4-0.3,0.8-0.7,1.2-1l1-1.3l0.1,0.1L60,29.1c-0.3,0.5-0.7,0.9-1.1,1.3L58.4,29.8z"/>
	</g>
	<g>
		<path class="st2" d="M59,31l0.7-0.6c0.2-0.2,0.5-0.4,0.7-0.6c0.4-0.4,0.9-0.9,1.3-1.4l0.1,0.1c-0.3,0.5-0.7,1.1-1.1,1.6
			c-0.4,0.5-0.9,0.9-1.3,1.4L59,31z"/>
	</g>
	<g>
		<path class="st2" d="M60.1,31.3c0.9-0.7,1.7-1.4,2.5-2.1l0.1,0.1c-0.7,0.9-1.4,1.7-2.1,2.6L60.1,31.3z"/>
	</g>
	<g>
		<polygon class="st2" points="65.9,31.8 64.7,31.9 64.6,31.8 65.7,31.1 		"/>
	</g>
	<g>
		<polygon class="st2" points="65.3,30.8 64,30.9 64,30.7 65.1,30.1 		"/>
	</g>
	<g>
		<polygon class="st2" points="66.6,32.7 65.3,32.9 65.2,32.8 66.3,32 		"/>
	</g>
	<path class="st1" d="M52,28.9c0,0,0.4,4.1-0.3,4.8s-1.3,1.5-1.2,2c0.1,0.6,1.1,4.1,1.1,4.1"/>
	<g>
		<path class="st2" d="M47.5,32.6c0.3-0.2,0.7-0.2,1.1-0.1c0.3,0.1,0.6,0.3,0.9,0.4c0.1,0.1,0.3,0.1,0.4,0.2c0.1,0,0.1,0,0.2,0
			c0.1,0,0.2,0,0.3,0.1c0.2,0,0.3,0.1,0.5,0.2c0.1,0,0.2,0.1,0.2,0.2c0.1,0.1,0.1,0.2,0.2,0.2l0,0c0.1,0.1,0.1,0.2,0.2,0.3
			c-0.1,0-0.2-0.1-0.3-0.1l0,0c-0.2-0.1-0.6-0.1-0.8-0.1c-0.1,0-0.1,0-0.2,0c-0.1,0-0.2,0-0.3,0c-0.2-0.1-0.4-0.1-0.5-0.2
			c-0.3-0.2-0.6-0.4-0.8-0.5C48.1,32.8,47.8,32.7,47.5,32.6z"/>
	</g>
	<path class="st1" d="M51.4,29.4c0,0,0.1,1.5-0.5,2.4c-0.6,0.9-2,0.9-2.5,0.9"/>
	<path class="st1" d="M60.9,32.7c0,0-0.6-0.1-1.2,0.6s-0.8,1.4-1.1,1.8"/>
	<path class="st1" d="M51,47.1c0,0-0.1,2.6-0.4,3.6c-0.3,1-0.6,3.1-1.3,3.5"/>
	<path class="st1" d="M36.6,48.5c0,0-0.3-0.1-0.9,1.1S34.4,52,34.4,53s0.5,2.7,0.5,3.6c0,0.9,0.3,2-0.2,2.6
		c-0.5,0.5-0.4,3.1-0.8,4.4c-0.4,1.3-0.8,4.3-0.8,4.9s-0.1,1.2-0.8,1.8c-0.7,0.7-1.1,1.5-1.4,1.8S29,73,28,74.8
		c-1,1.8-3.5,5.4-4.2,6.8C23,83,20.9,86,20.2,86.7c-0.6,0.6-2.5,3-2.5,4.3c0,0-0.4,2-0.2,2s1.2-0.4,1.6-0.5s2.1-0.7,2.5-0.7
		s1.7-0.3,2-0.3c0.4,0,0.8,0,0.7-0.1c-0.2-0.2-0.2-0.4,0.1-0.7c0.2-0.2,1-0.6,1.2-0.9c0.3-0.3,0.3-0.8,0.5-1s1.5-1.7,2.1-2.3
		c0.6-0.6,2.7-2.7,3.1-3.4c0.5-0.7,2.5-3.7,3-4.5s3.3-5.1,4.1-6c0.7-0.9,2.8-3.6,3.7-4.3c1-0.8,3.6-3.3,3.9-3.8
		c0.3-0.5,2.7-2.5,3-2.4s2,0.3,2.5,0.6s1.4,0.5,1.7,0.9c0.3,0.3,2.4,2.1,3.3,2.8c0.9,0.7,3,1.7,3.2,1.9s2,1.4,2.3,1.5s0.6-0.1,0.6,0
		c0.1,0.1,0.3,0.4,0.3,0.6s-0.1,1.4-0.1,1.7c0,0.4,0,2.5,0.1,2.9s0,1.4,0,1.6s0,1.8,0.2,2.2s0.6,1.2,0.5,1.3c0,0-1,1.4-1.2,1.8
		s-0.1,1.2,0.2,1.7s0.3,0.7,0.3,1s-0.2,1.1-0.4,1.3c-0.2,0.2-0.9,1.7-0.6,1.7s2.3,0.1,2.8-0.1s2-1,2.3-1s1.1-0.3,1.5-0.3
		s0.8-0.1,0.8-0.3s-0.1-0.6-0.1-0.8s0-0.5-0.3-0.7s-0.3-0.7-0.1-1.1c0.2-0.4-0.1-0.7,0.2-1.2s0.6-1.1,0.5-1.7
		c-0.1-0.5-0.2-3.9-0.2-4.4s0.4-3.2,0.4-3.7s0.2-4.1,0.2-4.7s-0.3-0.9-0.6-1.3c-0.3-0.5-2.3-3.8-2.6-4.1c-0.3-0.3-1.6-2.7-2.3-3.3
		s-2-2.5-2.8-3.3s-2.1-2-2.4-2.3c-0.3-0.3-0.6-0.8-0.9-1.2c-0.3-0.3-0.7-1-0.9-1.2S56.9,50,56.6,50S56,49.7,56,49.4"/>
	<path class="st1" d="M24,91.7c0,0,0.4,0.7,0.4,0.9s0,0.6,0.1,0.7s0.4,0.3,0.6,0.4c0.1,0.1,1.3,1.2,1.4,1.3c0.2,0.2,0.4,0.9,0.2,1.3
		C26.5,96.7,26,97,25.5,97c0,0.1,0.1,0.3,0,0.4c0,0-0.1,0-0.1,0.1c-0.2,0.1-0.4,0.1-0.6,0.1h-0.1c-0.2-0.1,0-0.4-0.4-0.4
		c-0.1,0-0.2,0-0.3,0c-0.1,0-0.2,0-0.3,0c-0.1,0.1-0.1,0.2-0.3,0.3c-0.1,0-0.4,0-0.5-0.1c-0.2-0.1-0.2-0.4-0.4-0.5
		c-0.2-0.1-0.4-0.2-0.6-0.2c-0.2-0.1-0.4-0.2-0.6-0.3c-0.4-0.2-0.8-0.5-1.1-0.8c-0.3-0.3-0.7-0.6-1.1-0.6c-0.1,0-0.2,0-0.3-0.1
		c-0.1,0-0.2-0.1-0.3-0.2c-0.2-0.2-0.4-0.3-0.5-0.6c0-0.1,0-0.3,0-0.5c0-0.2,0-0.4,0-0.6"/>
	<g>
		<path class="st2" d="M26.6,95.6c-0.4-0.1-0.8-0.1-1.1,0c-0.4,0.1-0.7,0.2-1,0.4c-0.3,0.2-0.6,0.6-1.1,0.6s-0.8-0.1-1.2-0.3
			c-0.4-0.1-0.7-0.4-1.1-0.5c-0.4-0.2-0.7-0.4-1-0.6c-0.6-0.5-1.2-1-1.7-1.6c0.7,0.4,1.3,0.9,1.9,1.3c0.3,0.2,0.7,0.4,1,0.5
			c0.3,0.2,0.7,0.4,1,0.5s0.7,0.3,1,0.3s0.5-0.2,0.9-0.4C25,95.3,26,95.2,26.6,95.6z"/>
	</g>
	<g>
		<path class="st2" d="M23,93.9c0-0.4,0.3-0.7,0.7-0.9c0.2,0,0.4-0.1,0.6,0s0.3,0.2,0.5,0.3c-0.4,0.1-0.7,0.1-0.9,0.1
			C23.6,93.6,23.3,93.7,23,93.9z"/>
	</g>
	<g>
		<path class="st2" d="M23.4,94.4c0-0.4,0.3-0.7,0.7-0.9c0.2,0,0.4-0.1,0.6,0s0.3,0.2,0.5,0.3C24.8,94,24.5,94,24.3,94
			C24,94.1,23.8,94.2,23.4,94.4z"/>
	</g>
	<g>
		<path class="st2" d="M68.2,88.1c0-0.4,0.3-0.7,0.7-0.9c0.2,0,0.4-0.1,0.6,0s0.3,0.2,0.5,0.3c-0.4,0.1-0.7,0.1-0.9,0.1
			C68.8,87.8,68.5,87.9,68.2,88.1z"/>
	</g>
	<g>
		<path class="st2" d="M68.7,88.6c0-0.4,0.3-0.7,0.7-0.9c0.2,0,0.4-0.1,0.6,0s0.3,0.2,0.5,0.3c-0.4,0.1-0.7,0.1-0.9,0.1
			C69.2,88.3,69,88.4,68.7,88.6z"/>
	</g>
	<path class="st1" d="M69,86.2c0.3,0.3,0.8,0.8,1,1.1s0.8,1.1,0.8,1.4s0.4,0.5,0.7,0.8c0.3,0.3,1.1,1.2,0.7,1.8
		c-0.2,0.4-0.6,0.6-1,0.7c-0.2,0-0.4,0-0.6,0c-0.3,0-0.2,0.1-0.3,0.3c-0.1,0.2-0.6,0.1-0.7,0.1c-0.4,0-0.3-0.3-0.6-0.5
		c-0.1-0.1-0.2-0.1-0.3-0.1c-0.1,0-0.4-0.1-0.5-0.1s-0.1,0.2-0.2,0.2h-0.1c-0.2,0-0.6,0-0.7-0.2s0-0.3-0.1-0.5
		c-0.1-0.3-0.8-0.8-1.1-0.9c-0.4-0.2-0.9-0.1-1.3-0.1h-0.1c0,0,0,0.1-0.1,0.2l-0.1,0.1c-0.2,0-0.4,0-0.6,0c-0.2-0.1-0.4-0.2-0.4-0.3
		c0-0.1,0-0.3-0.1-0.4c-0.2-0.3-0.6-0.3-0.9-0.5C62,89.1,62,88.9,62,88.7c0-0.4,0-0.8,0-1.2"/>
	<g>
		<path class="st2" d="M71.9,90.4c-0.4,0-0.8,0.2-1.1,0.5c-0.1,0.1-0.3,0.3-0.6,0.4c-0.2,0.1-0.5,0.1-0.7,0.1
			c-0.9-0.1-1.7-0.5-2.5-0.8s-1.6-0.7-2.4-1.1c-0.4-0.2-0.8-0.5-1.1-0.7l-0.6-0.4c-0.2-0.1-0.4-0.2-0.4-0.5c0.1,0.2,0.3,0.3,0.5,0.4
			l0.6,0.3c0.4,0.2,0.8,0.4,1.2,0.6c0.8,0.4,1.6,0.7,2.4,1s1.6,0.6,2.4,0.8c0.2,0,0.4,0.1,0.6,0c0.2,0,0.3-0.2,0.5-0.3
			C71,90.5,71.5,90.4,71.9,90.4z"/>
	</g>
	<g>
		<path class="st2" d="M36.9,50.3c-0.5,0.2-0.9,0.5-1,1.1c-0.1,0.3,0.1,0.5,0.2,0.7c0.1,0.1,0.1,0.3,0.1,0.4c0,0.1-0.1,0.3-0.2,0.4
			c-0.2,0.2-0.3,0.4-0.2,0.6c0,0.1,0.2,0.1,0.3,0.3c0.1,0.1,0.2,0.3,0.2,0.4c0,0.3,0,0.6-0.2,0.8s-0.4,0.4-0.5,0.6
			c-0.1,0.2,0,0.4,0.1,0.6c0.1,0.2,0.3,0.4,0.4,0.7c0.1,0.3,0,0.6-0.2,0.9c-0.2,0.2-0.4,0.4-0.5,0.6c-0.2,0.4,0.2,0.8,0.3,1.4
			c0,0.6-0.1,1.1-0.4,1.6c-0.3,0.5-0.5,0.9-0.5,1.3c0,0.2,0.1,0.5,0.1,0.8c0,0.1,0,0.3,0,0.4l-0.1,0.4c0,0.3-0.1,0.6-0.3,0.8
			c-0.1,0.1-0.2,0.2-0.3,0.3c-0.1,0.1-0.1,0.2-0.1,0.3c-0.1,0.4,0.1,0.9,0.2,1.4c0.1,0.6,0.1,1.1-0.1,1.7c-0.1,0.3-0.2,0.6-0.4,0.7
			c-0.1,0.1-0.1,0.4-0.2,0.6c0,0.3-0.1,0.5-0.2,0.8c0,0.1-0.1,0.3-0.2,0.4c0,0.1-0.1,0.2-0.2,0.2l-0.1,0.1L32.3,72
			c-0.2,0.2-0.3,0.3-0.3,0.5c-0.1,0.2-0.1,0.6-0.4,0.8L31.1,74c-0.3,0.4-0.7,0.8-1,1.2c-0.7,0.8-1.3,1.6-1.9,2.4
			c-1.1,1.7-1.9,3.7-3.2,5.3c-0.7,0.7-1.4,1.5-2,2.3c-0.3,0.4-0.5,0.9-0.8,1.3c-0.4,0.4-0.9,0.6-1.2,0.9c-0.8,0.7-1.5,1.4-2.1,2.3
			c-0.3,0.4-0.4,0.9-0.5,1.4L18,92.7l0.3-1.5c0.1-0.5,0.2-1,0.5-1.5c0.5-0.9,1.3-1.7,2-2.4c0.4-0.4,0.9-0.6,1.2-1
			c0.3-0.4,0.5-0.9,0.8-1.3c0.6-0.9,1.3-1.7,2-2.4c1.2-1.6,2-3.5,3.1-5.3c0.6-0.9,1.2-1.7,1.9-2.5c0.3-0.4,0.7-0.8,1-1.2l0.5-0.6
			c0.1-0.2,0.2-0.4,0.3-0.6c0-0.3,0.3-0.6,0.5-0.8l0.6-0.5c0.3-0.3,0.4-0.8,0.5-1.3c0.1-0.3,0.1-0.5,0.2-0.8
			c0.2-0.2,0.2-0.4,0.3-0.6c0.1-0.5,0.2-1,0.1-1.4c-0.1-0.5-0.4-1-0.2-1.6c0-0.1,0.1-0.3,0.2-0.4c0.1-0.1,0.2-0.2,0.2-0.3
			c0.1-0.2,0.2-0.4,0.2-0.6l0.1-0.4c0-0.1,0-0.2,0-0.3c0-0.2-0.1-0.5-0.1-0.8c0-0.6,0.3-1.1,0.6-1.5c0.2-0.4,0.4-0.9,0.4-1.4
			c0-0.4-0.4-0.9-0.2-1.6c0.1-0.3,0.4-0.4,0.5-0.6c0.2-0.2,0.2-0.4,0.2-0.6c-0.1-0.2-0.2-0.4-0.4-0.6c-0.1-0.1-0.1-0.2-0.2-0.4
			c0-0.2,0-0.3,0.1-0.5c0.2-0.2,0.4-0.4,0.5-0.6c0.1-0.2,0.2-0.4,0.2-0.7c0-0.1-0.1-0.2-0.1-0.3c-0.1-0.1-0.2-0.2-0.3-0.3
			c-0.1-0.3,0.1-0.6,0.2-0.8c0.2-0.2,0.3-0.4,0.1-0.7c-0.1-0.2-0.2-0.5-0.2-0.8C35.9,50.8,36.4,50.5,36.9,50.3z"/>
	</g>
	<g>
		<path class="st2" d="M51.7,62.9c0.7-0.3,1.5-0.3,2.3-0.5c0.8-0.1,1.5-0.1,2.3-0.2c0.8,0,1.6,0,2.3,0c0.8,0,1.6,0.1,2.3,0.3
			c-0.8,0-1.5,0.1-2.3,0.1l-2.3,0.1L54,62.8h-1.2C52.4,62.8,52.1,62.8,51.7,62.9z"/>
	</g>
	<g>
		<path class="st2" d="M63.7,80.2c0.6-1.4,1.3-2.7,1.9-4c0.3-0.7,0.5-1.4,0.8-2.1s0.5-1.4,1.1-1.9c-0.2,0.3-0.3,0.7-0.4,1
			s-0.2,0.7-0.3,1.1c-0.2,0.7-0.4,1.4-0.7,2.1c-0.3,0.7-0.7,1.3-1,2C64.6,79,64.2,79.6,63.7,80.2z"/>
	</g>
	<g>
		<path class="st2" d="M36.5,55.7c1-0.1,2.1-0.2,3.1-0.1c1,0,2.1,0.2,3.1,0.4s2,0.7,2.9,1.1c1,0.4,1.9,0.7,3,0.8
			c-1,0.2-2.1-0.1-3.1-0.4c-1-0.3-1.9-0.8-2.9-1C40.6,56,38.6,55.8,36.5,55.7z"/>
	</g>
	<g>
		<path class="st2" d="M57.9,51.3c0.2,0.8-0.3,1.5-0.9,2.1c-0.6,0.5-1.1,1-1.7,1.5c-0.6,0.5-1.1,1-1.8,1.4c-0.6,0.4-1.2,0.9-1.9,1.2
			c0.6-0.5,1.1-1,1.7-1.5c0.5-0.5,1.1-1,1.7-1.5c0.6-0.5,1.2-0.9,1.8-1.4c0.3-0.2,0.5-0.5,0.7-0.8S57.9,51.7,57.9,51.3z"/>
	</g>
	<g>
		<path class="st2" d="M44.1,23.5c0.1,0.4,0.4,0.6,0.8,0.8c0.3,0.2,0.7,0.3,1.1,0.4c0.8,0.3,1.5,0.6,2.2,0.7
			c0.7,0.2,1.5,0.2,2.3,0.2s1.6,0,2.3-0.4c-0.6,0.6-1.5,0.8-2.3,1c-0.8,0.1-1.7,0.1-2.5-0.1s-1.6-0.5-2.3-0.9
			c-0.3-0.2-0.7-0.4-1.1-0.6c-0.2-0.1-0.3-0.3-0.4-0.5C44.1,23.9,44.1,23.7,44.1,23.5z"/>
	</g>
	<g>
		<path class="st2" d="M44,30c0.1-0.1,0.3-0.1,0.4-0.1c0.2,0.1,0.3,0.2,0.4,0.2c0.1,0,0.1,0.1,0.3,0.1c0.1,0,0.3,0,0.4,0.1
			c0.3,0.1,0.5,0.2,0.7,0.3c0.2,0.1,0.5,0.1,0.8,0.2C46.7,31,46.4,31,46.1,31c-0.3,0-0.5-0.1-0.8-0.2c-0.1,0-0.2-0.1-0.4-0.1
			c-0.1,0-0.3-0.1-0.4-0.2c-0.1-0.1-0.2-0.2-0.2-0.3C44.3,30.1,44.2,30,44,30z"/>
	</g>
	<g>
		<path class="st2" d="M41.9,43.6c-0.8,0.4-1.6,0.8-2.4,1.2c-0.4,0.2-0.8,0.4-1.2,0.6c-0.4,0.2-0.8,0.4-1.3,0.5
			c0.4-0.3,0.7-0.5,1-0.8s0.8-0.5,1.1-0.7C40.2,44,41,43.7,41.9,43.6z"/>
	</g>
	<g>
		<path class="st2" d="M42.3,44c-0.5,0.7-1.1,1.4-1.7,2c-0.6,0.6-1.3,1.2-2.1,1.6c0.5-0.7,1.1-1.4,1.7-2C40.8,45,41.5,44.5,42.3,44z
			"/>
	</g>
	<g>
		<path class="st2" d="M52.8,27.3c0.2,0.6,0.4,1.2,0.6,1.9l0.5,1.9c0.2,0.6,0.4,1.3,0.4,1.9c0.1,0.7,0.1,1.3-0.1,2
			c0-0.7-0.2-1.3-0.3-1.9c-0.1-0.6-0.3-1.2-0.5-1.8c-0.2-0.6-0.3-1.3-0.4-1.9C52.9,28.6,52.8,27.9,52.8,27.3z"/>
	</g>
	<g>
		<path class="st2" d="M39.1,31.9c0.2-0.5,0.5-0.9,0.8-1.2c0.4-0.3,0.9-0.5,1.4-0.6c0.5,0,1,0,1.5,0.2c0.2,0.1,0.4,0.2,0.6,0.3
			c0.2,0.1,0.4,0.2,0.6,0.4c-0.2-0.1-0.4-0.1-0.7-0.2c-0.2-0.1-0.5-0.2-0.7-0.2c-0.4-0.1-0.9-0.1-1.3-0.1
			C40.5,30.7,39.7,31.2,39.1,31.9z"/>
	</g>
	<g>
		<path class="st2" d="M46.7,32.9c0.3,0.2,0.6,0.4,0.9,0.7c0.3,0.2,0.5,0.5,0.7,0.9c0.2,0.3,0.3,0.7,0.4,1.1c0,0.2,0,0.4,0,0.5v0.3
			v0.1l0,0c0,0.1-0.1,0-0.1,0l0,0v-0.1v0.1l0,0c0,0,0,0-0.1,0l0,0v-0.1L48.4,36c-0.1-0.2-0.1-0.3-0.2-0.5c-0.1-0.3-0.3-0.6-0.4-0.9
			C47.5,34.1,47.1,33.5,46.7,32.9z"/>
	</g>
	<path class="st1" d="M53.1,21.3c2.5,2.6,5.5,5.6,5.4,5.9"/>
	<path class="st1" d="M59.9,26.8c0,0-11.8-14-14.4-17.2c-2.7-3.4-3.8-4.3-6.1-6.9C39,2.3,38.8,2.2,38,2.5S36.4,4,37,4.6
		s4.7,5.3,5.6,6.1s6.9,6.8,7.6,7.5c0.1,0.1,0.5,0.5,1.1,1.1"/>
</g>
</svg>
