<?xml version="1.0" encoding="utf-8"?>
<!-- Generator: Adobe Illustrator 21.0.0, SVG Export Plug-In . SVG Version: 6.00 Build 0)  -->
<svg version="1.1" id="pitcher1_2_" xmlns="http://www.w3.org/2000/svg" xmlns:xlink="http://www.w3.org/1999/xlink" x="0px"
	 y="0px" viewBox="0 0 100 100" style="enable-background:new 0 0 100 100;" xml:space="preserve">
<style type="text/css">
	.st0{fill:#5C7DB1;fill-opacity:0.5;}
	.st1{fill:#5C7DB1;}
	.st2{fill:none;stroke:#5C7DB1;stroke-width:0.5;stroke-miterlimit:10;}
	.st3{fill:none;stroke:#5C7DB1;stroke-width:0.75;stroke-miterlimit:10;}
</style>
<g id="pitcher1">
	<path class="st0" d="M13.5,74.3c0.1,0.1,0.1,0.2,0.2,0.3c0.1,0.1,0.4,0.2,0.5,0.1s0.2-0.2,0.3-0.3c0.6-0.3,1.6,0.3,2.3,0.2
		c0.4,0,0.8-0.1,1.2-0.2c0.3,0,0.6,0,0.9,0c0.6,0,1.3,0.3,1.8,0c0.6-0.3,0.9-0.9,1.4-1.3s1-0.7,1.6-0.9c0.2-0.1,0.4-0.2,0.6-0.3
		c0.1-0.1,0.1-0.2,0.2-0.3c0.1-0.1,0.2-0.2,0.3-0.2c0.5-0.2,1-0.4,1.6-0.5c0.2-0.1,0.5-0.2,0.7-0.3c0.6-0.3,1-0.8,1.5-1.2
		c0.8-0.6,1.5-0.5,2.4-0.8c0.6-0.1,1-0.6,1.6-0.8c0.5-0.2,1.2-0.2,1.6-0.7c0.1-0.2,0.2-0.3,0.3-0.4c0.3-0.2,0.7-0.1,1-0.2
		c0.4-0.1,0.7-0.4,1.1-0.6c0.1,0,0.1-0.1,0.2-0.1c0.1-0.1,0.1-0.2,0.1-0.3c0-0.1,0.1-0.2,0.2-0.3c0.4-0.4,1-0.9,1.3-1.4
		c0.4-0.7,0.7-1.3,1.1-2c0.4-0.7,0.7-1.3,1.1-2c0.4-0.6,0.7-1.4,1.2-1.9c0.2-0.4,0.4-0.7,0.4-1.1c0-0.5-0.2-0.9,0-1.3
		c0.3-0.4,0.9-0.6,0.9-1c0-0.2-0.1-0.5,0-0.6c0,0,0.1,0,0.2-0.1s0.1-0.2,0.1-0.3c0-0.4-0.2-0.9,0.1-1.2s0.2-0.4,0.2-0.8
		c0-0.3,0-0.6,0-0.9c0-0.6,0-1.1,0.1-1.7c0.1-1,0.6-2,0.9-3c0.1-0.3,0.2-0.7,0.4-1c0.2-0.2,0.5-0.4,0.7-0.6c0.1-0.1,0.2-0.2,0.3-0.3
		c0.2-0.2,0.4-1.1,0.4-1.4c0-0.2-0.8-1-0.9-0.9c0.1-0.1,0.2-0.3,0.4-0.3c0.1-0.3,0-0.6-0.1-0.9c-0.3-0.9-1.2-1.7-1.2-2.7
		c0-0.6,0-1.2,0.1-1.8c0-0.1,0.1-0.3,0.1-0.4c0.1-0.4,0.2-0.7-0.1-1.1c-0.1-0.1-0.2-0.2-0.3-0.3c-0.1-0.2-0.2-0.5-0.3-0.7
		c-0.1-0.3-0.2-0.5-0.3-0.8c-0.2-0.5-0.4-1-0.6-1.5c-0.2-0.6-0.4-1.1-0.7-1.6c-0.2-0.4-0.4-0.9-0.7-1.3c-0.7-1-1.7-1.5-2.7-2.1
		c-0.3-0.1-0.7-0.3-1-0.2c-0.2,0.1-0.4,0.2-0.6,0.1c-0.1-0.1-0.2-0.2-0.3-0.4c0,0-0.1,0-0.2,0c-0.9,0-1.9-0.1-2.8-0.1
		c-1.1-0.1-2.2-0.1-3.3-0.4c-0.5-0.2-1-0.4-1.4-0.7c-0.5-0.4-0.7-1-1-1.5c-0.4-0.6-0.6-1.3-0.9-1.9c-0.4-1-0.8-2.1-1.1-3.2
		C26.1,16,25.8,14,25.8,12c0-0.2,0-0.5-0.1-0.7c-0.3-0.5-0.7-0.6-0.8-1.3c-0.2-0.6,0-1.1,0-1.8c0-0.4,0.1-0.8,0.2-1.2S25,6.3,25.2,6
		c0-0.1,0-0.3,0.1-0.4c0-0.1,0-0.2,0-0.3c-0.1,0-0.2,0-0.2-0.1c-0.1-0.1,0-0.3,0-0.4c0.1-0.2,0.1-0.4,0.2-0.5s0.1-0.2,0.2-0.3
		c0.2-0.2,0.4-0.6,0.6-0.8C26.4,3,26.8,3.1,27.2,3c0.2,0,0.4-0.1,0.6-0.2c0.4-0.2,0.8-0.3,1.2-0.3c0.6-0.1,0.4,0.3,0.7,0.5l-0.2-0.1
		c0.1,0.1,0.3,0,0.5,0.2c0.1,0.2,0.3,0.3,0.4,0.5c0.1,0.1,0.2,0.2,0.2,0.3c0.1,0.1,0,0.3,0,0.4c-0.1,0.5-0.2,0.9-0.4,1.3
		c-0.2,0.3-0.2,0.7-0.4,1c-0.3,0.8-0.7,1.5-1,2.2c0,0.1-0.1,0.2-0.1,0.3c-0.1,0.3-0.5,0.7-0.5,1.1c0.1,0.4,0.4,0.7,0.5,1
		c0.1,0.4,0.2,0.9,0.4,1.3c0.3,1,0.7,1.9,1.1,2.8c0.3,0.6,0.5,1.3,0.9,1.9s0.8,1.2,1.3,1.8c0.2,0.2,0.7,1,1,1c0.5,0.1,1,0,1.4,0
		c0-0.1,0-0.2,0-0.3v-0.1h0.1c1.1,0.1,2.1,0.1,3.2,0c0.2,0,0.4,0,0.6-0.1c0.3-0.1,0.5-0.4,0.8-0.6c0.2-0.1,0.5-0.2,0.7-0.3
		c0.3-0.1,0.7-0.3,1.1-0.5c0.3-0.2,0.7-0.4,1-0.5c0.7-0.2,1.6,0,2.3,0.1c1.3,0.2,2.8,0,4.1-0.4c0.2-0.1,0.4-0.1,0.6-0.3
		c0.2-0.1,0.3-0.3,0.4-0.4c0.3-0.4,0.6-0.7,0.6-1.2c0-0.3-0.1-0.5-0.1-0.7c-0.1-0.3-0.2-0.3-0.4-0.5c-0.4-0.4-0.5-0.9-0.8-1.4
		c0-0.1-0.1-0.1-0.1-0.2c-0.1-0.1-0.2-0.3-0.2-0.4h-0.1c0-0.1-0.1-0.4-0.1-0.5c-0.1-0.3-0.1-0.5-0.2-0.7c-0.1-0.5-0.2-0.9-0.2-1.4
		c0-0.4,0-0.7,0-1c0-0.7,0.2-1.4,0.6-2.1c0.1-0.3,0.2-0.5,0.4-0.7c0.3-0.4,0.7-0.8,1.1-1.1c0.9-0.7,2.2-0.9,3.3-1.1
		c1.7-0.3,2.6-0.2,3.7,0.4c0.7,0.4,1.1,1.1,1.5,1.7c0.1,0.2,0.2,0.7,0.4,0.9c0.3,0.3,0.9,0.1,1.2,0c0.5-0.1,1,0,1.4,0
		c0.2,0,0.4,0,0.6,0.1c0.2,0.1,0.4,0.2,0.4,0.4c0.1,0.3-0.1,0.5-0.3,0.7C62,8.4,61.6,8.7,61.2,9c-0.7,0.5-1.7,0.5-1.6,1.5
		c0,0.6,0.2,1.1,0.4,1.7c0.1,0.2,0.2,0.4,0.2,0.6c0,0.2,0,0.5-0.2,0.6c-0.1,0.1-0.2,0.1-0.3,0.2c-0.1,0.1-0.1,0.2,0,0.4
		c0,0.2,0.1,0.5,0.1,0.7c0,0.3,0.1,0.6-0.2,0.7c-0.1,0.1-0.2,0.1-0.3,0.1c-0.2,0.1-0.2,0.4-0.3,0.6c-0.1,0.4-0.1,0.8,0,1.2
		c0.1,0.5,0.5,0.7,0.9,0.8c0.4,0.2,0.7,0.4,1.1,0.6c0.3,0.1,0.7,0.1,1,0.2c0.3,0,0.7,0.1,1.1,0.2c0.5,0.1,0.9,0.4,1.4,0.6
		c0.2,0.1,0.5,0.2,0.7,0.3c0.1,0.1,0.3,0.2,0.4,0.3c0.8,0.5,1.5,1.1,2.2,1.8c0.1,0.2,0.2,0.4,0.4,0.5c0.2,0.1,0.4,0.2,0.6,0.3
		c0.6,0.3,1.1,0.5,1.7,0.7c0.6,0,0.7,0.8,0.5,1.3c0,0.1-0.1,0.2-0.1,0.3c-0.1,0.4,0.2,0.7,0.5,1c0.8,0.8,1.6,1.6,2.2,2.5
		c0.5,0.8,1.4,1.2,2,1.9c0.2,0.2,0.4,0.4,0.6,0.6c0.3,0.3,0.7,0.6,1.1,0.9c0.7,0.5,1.3,1.4,1.8,2.1c0.8,1,1.7,1.9,2.6,2.9
		c0.2,0.4,0.5,0.6,0.8,1c0.2,0.2,0.3,0.6,0.2,1c-0.1,0.3-0.2,0.6-0.3,1c-0.2,0.6-0.4,1-0.3,1.6c0,0.6-0.1,1.2-0.5,1.7
		c-0.1,0.2-0.5,0.7-0.8,0.5l-0.1-0.1c-0.4-0.4-0.8-0.4-1.3-0.2c-0.4,0.2-0.6,0.6-0.7,1c0,0.2,0,0.5-0.1,0.7
		c-0.1,0.3-0.5,0.4-0.8,0.5c-0.6,0.1-1.1,0.2-1.7,0.2c-0.3,0-0.6,0-0.9,0s-0.5,0-0.7-0.1h-0.1c-0.1-0.1-0.3-0.1-0.5-0.1
		c-0.3-0.1-0.5-0.2-0.7-0.3c-0.3-0.1-0.6-0.2-0.9-0.4s-0.7-0.5-1.1-0.7c-0.5-0.3-1-0.6-1.5-1c-0.3-0.3-0.9-0.7-0.6-1.2
		c0.1,0,0.1-0.1,0.1-0.1c0-0.1,0-0.2-0.1-0.2c-0.3-0.2-0.4-0.5-0.3-0.9c0.1-0.2,0.3-0.4,0.4-0.7c0-0.3-0.1-0.6-0.1-0.9
		c0-0.2,0.2-0.3,0.3-0.5c0.2-0.2,0.3-0.4,0.4-0.6c0.1-0.3,0.3-0.5,0.5-0.7s0.6-0.4,0.9-0.4c0.3,0.1,0.6,0.4,0.9,0.3
		c0,0,0.1-0.1,0.2-0.1c0.1-0.1,0.2-0.1,0.3-0.1c0.1,0,0.2,0.1,0.3,0.2c0.1,0.2,0.3,0.3,0.4,0.5c0.1,0.1,0.2,0.2,0.3,0.2
		c0.2,0,0.3-0.2,0.4-0.3c0.6-0.5,1,0.2,1.5,0.3c0.2,0,0.4,0.1,0.6,0.2c0.1,0.1,0.3,0.2,0.4,0.2l0.1-0.1c0.5-0.3,1-0.4,1.5-0.3
		c0.2,0,0.3,0.1,0.4,0s0.2-0.2,0.3-0.3c-0.3-0.4-0.8-0.7-1.2-1c-0.5-0.3-1.1-0.7-1.6-1c-0.9-0.6-2-0.8-2.8-1.5
		c-0.3-0.3-0.8-0.5-1.2-0.8c-0.8-0.6-1.6-1.1-2.4-1.8c-0.5-0.4-1.1-0.8-1.6-1.2s-1-0.9-1.5-1.3c-0.2,0-0.5-0.4-0.7-0.5
		c-0.5-0.4-0.9-1.3-1.5-1.4c-0.3,0-0.6,0.3-0.6,0.5c0,0.1,0,0.3,0,0.4c0,0.3-0.2,0.5-0.3,0.8s-0.2,0.5-0.2,0.8
		c-0.1,1.2-0.6,2.1-0.9,3.2c-0.3,1.1-0.5,2.3-0.4,3.5c0,0.3,0,0.7,0,1.1c0,0.5-0.1,1-0.3,1.5c-0.3,1.5-0.5,2.9-0.2,4.4
		c0,0.2,0.1,0.4,0.3,0.5s0.4,0,0.6,0c0.4,0,0.7,0.5,0.8,0.9s0,0.8-0.1,1.2c-0.1,1.3,0.8,1.3,1.8,1.8c0.8,0.4,1.5,1,2.3,1.4
		c0.7,0.4,1.3,0.7,2,1.1c0.3,0.2,0.7,0.4,1,0.6s0.6,0.3,0.9,0.5c0.6,0.3,1.1,0.8,1.6,1.2s1,0.8,1.6,1.1c0.5,0.3,1.1,0.6,1.6,1
		c0.5,0.3,2.3,1.6,2.7,2s0.9,0.8,1.3,1.2c0.2,0.1,0.3,0.3,0.5,0.4c0.6,0.5,1,1.1,1.3,1.8c0.5,1,0.9,2.1,1.4,3.2
		c0.3,0.7,0.6,1.4,0.9,2.1c0.1,0.2,0.2,0.5,0.3,0.8c0.1,0.6,0.3,1.2,0.5,1.7c0.1,0.3,0.3,0.5,0.4,0.7s0.2,0.4,0.2,0.6
		c0.1,0.4,0.1,0.7,0.2,1.1c0.1,0.3,0.1,0.5,0.2,0.8c0.2,0.4,0.3,0.7,0.5,1.1c0.4,0.9,0.5,1.8,0.9,2.6c0.3,0.9,0.5,1.8,0.7,2.8
		c0.2,0.8,0.4,1.5,0.6,2.2c0.1,0.5,0.2,1,0.4,1.4c0.2,0.4,0.6,0.6,0.8,1c0.1,0.2,0.2,0.4,0.3,0.6c0,0.2,0,0.4,0.1,0.6
		s0.2,0.4,0.2,0.7c0,0.4,0,0.9,0,1.3c0,0.1,0,0.2,0,0.3c-0.1,0.2-0.3,0.2-0.3,0.5c0,0.2,0.1,0.4,0.1,0.6v0.1
		c0.1,0.3,0.4,0.5,0.7,0.7c0.7,0.5,1.4,1,2.2,1.4c0.7,0.4,1.6,0.6,2.4,1c0.5,0.2,0.9,0.4,1.2,0.7c0.6,0.6,0.5,1.4-0.4,1.7
		c-0.5,0.3-1,0.2-1.6,0.2c-2.6-0.2-5.2-0.3-7.8-0.5c-1.7-0.1-3.3-0.3-5-0.3c-0.7,0-1.4,0-2-0.3c-0.6-0.2-1.1-0.8-1.1-1.5
		c0-0.4,0.3-0.8,0.3-1.1c-0.2-0.4,0.1-0.8,0.2-1.2c0.1-0.5,0.4-1,0.3-1.4c0-0.3,0.2-0.5,0.3-0.7s0.1-0.5,0-0.7s-0.2-0.4-0.2-0.6
		c0-0.4,0.2-0.6,0.3-0.9s0.1-0.7,0.1-1c0-0.1,0-0.2-0.1-0.3c0-0.1-0.2-0.2-0.3-0.3c-0.2-0.2-0.1-0.6-0.1-0.9c0-0.4,0-0.6-0.2-1
		c0,0-0.1-0.1-0.1-0.2C79,79.7,79,79.6,79,79.5c0-0.3,0-0.6-0.1-0.9c-0.2-0.5-0.5-1-0.7-1.5c-0.4-0.9-0.2-2.1-0.8-2.8
		c-0.3-0.4-0.1-1-0.3-1.4c-0.2-0.3-0.7-0.4-0.9-0.8c0-0.1-0.1-0.3-0.1-0.4c-0.4-1.3-0.7-2.7-1-4c-0.1-0.6-0.5-1.2-0.9-1.8
		c-0.1-0.2-0.2-0.4-0.3-0.7c-0.1-0.1-0.1-0.3-0.1-0.4c-0.1-0.1-0.2-0.3-0.4-0.4c-0.2-0.2-0.4-0.3-0.6-0.3c-0.4,0-0.8,0.1-1-0.3
		c0-0.1,0-0.2-0.1-0.3s-0.3-0.2-0.4-0.3c-1.2-0.9-2.7-1.1-4-1.7c-1.4-0.6-2.9-0.8-4.3-1.2c-0.4-0.1-0.7-0.2-1-0.4
		c-0.1-0.1-0.3-0.3-0.4-0.4c-0.2-0.1-0.4-0.2-0.6-0.3c-0.6-0.3-1.3-0.9-1.9-1c-0.3-0.1-0.8,0.1-1.1,0.2c-0.5,0.1-0.9,0.2-1.4,0.3
		c-1.1,0.2-2.2,1.2-3,2C52.4,61.5,51,63,50,64.1c-0.9,0.9-1.3,1.3-2.2,2.2c-0.5,0.5-1,1.1-1.5,1.7c-0.7,1-1.5,1.9-2.3,2.8
		c-0.3,0.4-0.7,0.8-1.2,1.1c-0.2,0.6-0.6,1.1-1,1.5c-0.5,0.5-1,1.1-1.7,1.3c-0.6,0.2-1.2,0.1-1.7,0.3c-0.3,0.2-0.6,0.3-0.9,0.5
		c-1.8,1-4,0.6-5.9,1.4c-0.5,0.2-0.9,0.4-1.4,0.5c-0.3,0-0.6,0.1-0.9,0.1c-0.4,0-0.7,0.1-1.1,0.2c-1.4,0.3-2.8,0.7-4.2,1
		c-0.3,0.1-0.7,0.1-1,0.3c-0.4,0.3-0.7,0.6-1.1,0.9s-1,0.5-1.4,0.7c-1.1,0.5-2.1,1-3.1,1.5c-0.5,0.3-1.1,0.5-1.7,0.8
		c-0.1,0.1-0.3,0.2-0.5,0.2C15.1,83.1,15,83,15,83c0-0.1-0.1-0.1-0.1-0.2c-0.1-0.3-0.2-0.5-0.3-0.7c-0.5,0.4-1,0.7-1.6,0.9
		c-0.3,0.1-0.6,0.2-0.9,0.3s-0.5,0.3-0.8,0.4c-0.4,0.1-0.7,0.4-1,0.6c-0.2,0.3-0.4,0.5-0.7,0.7C9,85.4,8.5,85.9,8,86.4
		c-0.3,0.3-0.6,0.5-0.9,0.7c-0.3,0.3-0.8,0.3-1.2,0.2c-0.3,0-0.5,0-0.7-0.3C5,86.5,5,86.3,5.1,85.8c0.2-0.6,0.2-1.1,0.1-1.7
		c0-0.1,0-0.1,0-0.2s0.1-0.1,0.2-0.2c0.3-0.2,0.4-0.6,0.4-0.9c0.1-0.4,0.1-0.9,0-1.4c0-0.1,0-0.2,0-0.2c0-0.1,0.1-0.1,0.2-0.1
		c0.2-0.1,0.4-0.2,0.6-0.4c0.4,0,0.6-0.4,0.7-0.7s0.2-0.6,0.3-0.9c0.1-0.2,0.2-0.5,0.2-0.7c0-0.3-0.1-0.5-0.1-0.8c0-0.1,0-0.2,0-0.3
		c0-0.1,0.2-0.2,0.3-0.2c0.6-0.2,1.2-0.2,1.4-1c0.1-0.3,0.1-0.6,0.2-1c0-0.2,0-0.5,0.1-0.7c0-0.1,0-0.2,0-0.2c0-0.1,0.1-0.1,0.1-0.1
		c0.4-0.4,1-0.3,1.5-0.5c0.2-0.1,0.5-0.2,0.7-0.3c0.3,0,0.9,0.1,1.1,0.3c0.1,0.1,0.2,0.3,0.3,0.5C13.5,74.2,13.5,74.2,13.5,74.3z"/>
	<g>
		<path class="st1" d="M56.6,58.7c-0.7,0.2-1.4,0.6-1.9,1.1c-0.6,0.5-1.1,1.1-1.6,1.7C52,62.7,51,64,49.8,65.1
			c-0.6,0.6-1.2,1.1-1.7,1.7l-1.6,1.8l-1.6,1.9c-0.5,0.6-1,1.3-1.9,1.8l0.2-0.3c-0.2,0.6-0.5,1.1-0.9,1.5c-0.3,0.4-0.7,0.8-1.1,1.1
			c-0.4,0.3-1.1,0.6-1.6,0.6s-0.9,0.1-1.3,0.3c-0.4,0.2-0.9,0.5-1.4,0.7s-1,0.3-1.5,0.3c-1,0.1-2,0.2-2.9,0.5
			c-0.5,0.1-0.9,0.3-1.4,0.5s-1,0.3-1.5,0.4c-0.9,0.2-1.9,0.4-2.9,0.7l-2.9,0.7c-0.5,0.1-0.8,0.3-1.1,0.7c-0.4,0.4-1,0.6-1.4,0.8
			c-1.8,0.9-3.6,1.8-5.4,2.6c-0.1,0.1-0.3,0.1-0.5,0.1c-0.1,0-0.3-0.1-0.4-0.2c-0.1-0.1-0.1-0.2-0.2-0.3c-0.1-0.2-0.2-0.5-0.3-0.7
			c-0.2-0.5-0.3-1-0.4-1.5c-0.2-1.1,0-2.1,0.1-3.1c0.1-0.5,0.2-1,0.3-1.5c0-0.2,0.1-0.5,0-0.6c0-0.1,0-0.2-0.1-0.2
			c0-0.1-0.1-0.1-0.2-0.3c-0.1-0.1-0.1-0.2-0.1-0.4c0-0.2,0.1-0.3,0.2-0.4c0.2-0.2,0.4-0.3,0.6-0.2c0.4,0,0.5,0.1,0.8,0.2
			c0.5,0.1,1,0.2,1.4,0.2s0.9-0.2,1.5-0.2c0.6-0.1,1.1,0,1.5,0c0.5,0,0.8-0.2,1.1-0.5c0.2-0.1,0.3-0.3,0.5-0.5L22,73
			c0.1-0.1,0.3-0.3,0.5-0.3s0.2,0,0.2,0s0.1-0.1,0.2-0.2c0.3-0.3,0.7-0.3,0.9-0.3c0.1,0,0.2,0,0.2-0.1c0,0,0,0.1,0-0.1
			s0.3-0.5,0.5-0.5c0.2-0.1,0.3-0.1,0.4-0.1s0.2,0,0.2,0s0-0.1,0.2-0.3c0.3-0.3,0.7-0.3,0.9-0.3c0.3,0,0.4,0,0.5-0.1
			s0.4-0.3,0.5-0.5c0.4-0.3,0.7-0.7,1.2-1c0.4-0.3,1-0.6,1.5-0.6c0.5-0.1,0.8-0.1,1.2-0.4c0.2-0.1,0.4-0.3,0.7-0.4s0.5-0.2,0.8-0.2
			c0.2-0.1,0.4-0.1,0.6-0.2c0.2-0.1,0.2-0.2,0.5-0.5c0.1-0.1,0.3-0.3,0.5-0.3s0.3,0,0.5,0c0.3,0,0.5,0,0.5-0.1c0,0,0.1-0.1,0.3-0.3
			c0.2-0.1,0.4-0.1,0.5-0.1s0.1,0,0.1,0s0.1-0.1,0.1-0.3c0.1-0.1,0.1-0.3,0.4-0.5c0.2-0.1,0.3-0.1,0.3-0.1c0.1,0,0.2-0.3,0.3-0.5
			l3-5.3l0.8-1.3c0.3-0.4,0.5-0.8,0.4-1.2c0-0.2-0.1-0.5,0-0.8c0-0.4,0.3-0.7,0.6-0.8c0.2-0.2,0.4-0.3,0.4-0.3s0,0,0-0.2
			c0-0.1,0-0.2,0-0.3s0.1-0.3,0.2-0.4c0.4,0,0-0.4,0.2-1.2c0-0.2,0.3-0.4,0.3-0.4c0.1-0.1,0-0.1,0.1-0.1V52v-0.4
			c0-0.5,0.1-1,0.1-1.5s0.1-1,0.2-1.6c0.1-0.5,0.3-1,0.5-1.5s0.3-0.9,0.6-1.4l0.1-0.4c0.1-0.2,0.2-0.3,0.3-0.4
			c0.2-0.2,0.5-0.4,0.6-0.5c0.2-0.1,0.2-0.2,0.3-0.4s0.1-0.4,0.1-0.7c0-0.1,0-0.3,0.1-0.5c0-0.2,0.3-0.4,0.5-0.5
			c0.4-0.1,0.6,0,0.9,0l1.5,0.2c1,0.1,2,0.4,2.9,0.5l0,0l0,0c0.3,0.1,0.6,0.1,1,0.2c0.2,0.1,0.3,0.1,0.4,0.2c0,0,0.1,0,0,0l-0.1,0.1
			c0,0.1,0,0.1,0,0c0,0,0-0.2,0.1-0.3s0.2-0.1,0.3-0.2c0.2,0,0.3,0,0.3,0l0.5,0.1l1,0.1l0.5,0.1c0.1,0,0.1,0,0.4,0.1
			c0.2,0.1,0.2,0.2,0.2,0.3s0,0.1,0,0.2c0,0.1,0,0.1,0,0.1l-0.1-0.1c0.1,0,0.3,0,0.4,0c0.6,0,1.3,0,1.9,0l1.9-0.1h0.5h0.2
			c0.1,0,0.2,0,0.1,0c-0.1,0.1,0,0,0,0s0,0.1,0.1-0.1c0.1-0.1,0.2-0.1,0.2-0.1c0.1,0,0.2,0,0.3,0c0.2,0,0.3,0,0.6,0
			c0.1,0,0.2,0,0.3,0.1s0.2,0.2,0.2,0.3c0.1,0.2,0.1,0.3,0.1,0.4v0.5v1c0,0.2,0,0.3,0,0.5c0,0.1-0.1,0.3-0.1,0.3v-0.1
			c0,0,0.2,0.1,0.3,0.1s0.3,0.1,0.5,0.2c0.6,0.3,1.2,0.6,1.8,0.9l1.6,1c1.1,0.7,2.3,1.3,3.4,1.9l0.9,0.5c0.3,0.2,0.6,0.4,0.8,0.6
			c0.3,0.2,0.5,0.4,0.7,0.6l0.8,0.5c1,0.7,2.2,1.4,3.2,2.2c0.5,0.4,1.1,0.8,1.6,1.2c0.6,0.5,1,0.9,1.5,1.3l0.7,0.7
			c0.3,0.2,0.5,0.5,0.7,0.8c0.4,0.6,0.7,1.2,0.9,1.8c0.5,1.2,1,2.4,1.5,3.6c0.3,0.6,0.5,1.2,0.8,1.8l0.6,1.8
			c0.1,0.2,0.4,0.5,0.5,0.9s0.1,0.7,0.2,1c0.1,0.7,0.2,1.2,0.4,1.8c0.2,0.6,0.5,1.2,0.7,1.8c0.2,0.6,0.4,1.2,0.6,1.8
			c0.2,0.6,0.4,1.3,0.5,1.9c0.1,0.7,0.3,1.2,0.4,1.9c0.1,0.6,0.3,1.2,0.5,1.8l0.1,0.2c0,0.1,0,0.1,0.1,0.2s0.2,0.2,0.3,0.3
			c0.2,0.2,0.5,0.5,0.6,0.9c0.1,0.2,0.2,0.4,0.2,0.6s0,0.2,0.1,0.4c0.1,0.2,0.2,0.3,0.2,0.6c0,0.2,0,0.4,0,0.6v1c0,0.1,0,0.2,0,0.3
			v0.2c0,0.1-0.1,0.1-0.1,0.2C90.3,86,90.2,86,90.2,86l0,0c0,0.1,0,0.2,0.1,0.4c0,0.1,0,0.3-0.1,0.4c0,0.1-0.1,0.2-0.1,0.3
			c-0.2,0.3-0.3,0.6-0.5,0.9c-0.5,0.6-1.1,0.9-1.7,1.3c-2.4,1.2-5.3,1.4-7.8,0.6c-0.3-0.1-0.6-0.2-0.9-0.4c-0.2-0.1-0.4-0.2-0.5-0.5
			s-0.1-0.5-0.1-0.7s0.1-0.4,0.2-0.5s0.1-0.2,0.1-0.4c0.1-0.3,0.2-0.6,0.2-0.9c0-0.1,0-0.1,0-0.2s0-0.3,0-0.4
			c0.1-0.2,0.2-0.4,0.2-0.5c0.1-0.2,0.1-0.4,0-0.7c-0.1-0.2-0.1-0.3-0.1-0.6c0-0.2,0.1-0.5,0.2-0.7c0.2-0.3,0.2-0.5,0.2-0.8
			c0-0.1,0-0.3,0-0.5c0-0.1,0-0.1,0-0.1l0,0c-0.1,0-0.2-0.1-0.3-0.2c-0.1-0.1-0.1-0.2-0.2-0.3c-0.1,0-0.1-0.2-0.1-0.4
			c0-0.4,0.1-0.6,0-0.8c0-0.1-0.1-0.2-0.2-0.4c-0.1-0.2-0.1-0.4-0.2-0.6c0-0.4,0-0.6-0.1-0.8l-0.4-0.9c-0.1-0.3-0.3-0.6-0.4-0.9
			c-0.1-0.4-0.1-0.7-0.2-1c0-0.3-0.1-0.6-0.2-0.9c0-0.1-0.1-0.2-0.2-0.3L77,74.4l-0.1-0.1c0.1-0.2,0.1-0.3,0-0.4
			c-0.1-0.4,0-0.7-0.1-0.9c0-0.1-0.3-0.3-0.6-0.5c-0.4-0.2-0.5-0.8-0.6-1l-0.2-0.9l-0.4-2l-0.2-0.9c-0.1-0.3-0.2-0.6-0.3-0.8
			c-0.1-0.3-0.3-0.5-0.5-0.8s-0.4-0.5-0.5-1c0-0.2-0.1-0.3-0.1-0.4s-0.1-0.1-0.2-0.2s-0.2-0.2-0.3-0.2c-0.1,0-0.2,0-0.4,0
			c-0.2,0-0.4,0-0.6-0.1c-0.3-0.1-0.4-0.4-0.4-0.5c-0.1-0.2-0.1-0.2-0.2-0.3s-0.2-0.2-0.4-0.2c-1.1-0.6-2.3-0.9-3.6-1.4
			c-1.1-0.6-2.4-0.8-3.6-1.1c-0.3-0.1-0.6-0.1-1-0.2c-0.3-0.1-0.8-0.3-1-0.5c-0.3-0.3-0.4-0.4-0.7-0.5s-0.6-0.3-0.9-0.5
			c-0.3-0.2-0.5-0.3-0.8-0.4c-0.1,0-0.2-0.1-0.3-0.1s-0.2,0-0.4,0.1C57.9,58.6,57.3,58.6,56.6,58.7L56.6,58.7z M56.5,58.1
			c0.6-0.2,1.3-0.2,1.8-0.5c0.2-0.1,0.3-0.1,0.6-0.1c0.2,0,0.4,0.1,0.6,0.1c0.4,0.1,0.6,0.3,0.9,0.5c0.3,0.2,0.5,0.3,0.8,0.5
			c0.1,0.1,0.3,0.1,0.5,0.3c0.2,0.1,0.3,0.2,0.4,0.3c0.2,0.2,0.4,0.3,0.7,0.4c0.3,0.1,0.6,0.2,0.9,0.2c1.2,0.3,2.6,0.6,3.8,1.1
			c1.1,0.5,2.4,0.8,3.6,1.5c0.2,0.1,0.3,0.2,0.4,0.3c0.2,0.1,0.3,0.4,0.4,0.5c0.1,0.2,0.1,0.2,0.2,0.2c0,0,0.1,0,0.3,0
			c0.2,0,0.4,0,0.6,0.1s0.4,0.2,0.5,0.3s0.3,0.2,0.4,0.5c0.1,0.2,0.1,0.4,0.1,0.6s0.2,0.5,0.4,0.7c0.2,0.3,0.4,0.6,0.5,0.9
			c0.2,0.3,0.3,0.6,0.4,1l0.2,0.9l0.5,1.9l0.2,0.9c0.1,0.3,0.1,0.5,0.3,0.6c0.2,0.2,0.6,0.3,0.8,0.8c0.2,0.4,0.1,0.8,0.1,1v0.1
			l0.1,0.2c0.1,0.2,0.2,0.3,0.3,0.5c0.1,0.4,0.2,0.7,0.2,1s0.1,0.6,0.2,0.9c0.1,0.2,0.2,0.5,0.4,0.8L79,78c0.1,0.1,0.1,0.4,0.1,0.6
			v0.5c0,0.1,0,0.2,0.1,0.3c0,0.1,0.2,0.3,0.2,0.5c0.1,0.4,0,0.8,0,1.1c0,0.1,0,0.3,0,0.4v0.1c0,0,0,0,0.1,0.1
			c0.1,0,0.2,0.1,0.3,0.3c0.1,0.2,0.1,0.3,0.1,0.4c0,0.2,0,0.3,0,0.5s0,0.4-0.1,0.6s-0.2,0.4-0.2,0.5c-0.1,0.2-0.1,0.3,0,0.7
			c0.1,0.3,0.2,0.8,0,1.2c-0.1,0.2-0.2,0.3-0.2,0.4c0,0,0,0,0,0.1s0,0.2,0,0.3c0,0.4-0.2,0.7-0.3,1c0,0.1-0.1,0.3-0.2,0.5
			s-0.1,0.3-0.1,0.4c0,0.3-0.1,0.2,0.2,0.4c0.3,0.1,0.6,0.2,0.9,0.3c2.4,0.8,5.1,0.6,7.3-0.6c0.6-0.3,1.1-0.6,1.4-1.1
			c0.2-0.2,0.3-0.5,0.5-0.8c0-0.1,0.1-0.1,0.1-0.2c0,0,0,0,0-0.1s-0.1-0.2-0.1-0.5c0-0.1,0-0.3,0.2-0.4c0.1-0.1,0.1-0.2,0.2-0.2
			c0,0,0,0,0-0.1s0-0.1,0-0.2v-1c0-0.4,0-0.5-0.1-0.8c0,0-0.1-0.2-0.1-0.3c0-0.1,0-0.2,0-0.3c0-0.1-0.1-0.2-0.1-0.4
			c-0.1-0.3-0.3-0.5-0.5-0.7c-0.1-0.1-0.2-0.3-0.3-0.4c-0.1-0.1-0.1-0.2-0.1-0.3l-0.1-0.2c-0.2-0.6-0.4-1.3-0.5-1.9
			c-0.4-1.3-0.5-2.6-0.9-3.7c-0.2-0.5-0.5-1.2-0.6-1.9c-0.2-0.6-0.4-1.2-0.7-1.8c-0.3-0.6-0.4-1.3-0.5-1.9c-0.1-0.3-0.1-0.7-0.2-0.9
			c-0.1-0.2-0.2-0.4-0.4-0.8L83.9,66c-0.2-0.6-0.5-1.2-0.7-1.7c-0.5-1.2-1-2.4-1.5-3.6c-0.2-0.6-0.5-1.2-0.9-1.7
			c-0.3-0.5-0.8-0.9-1.3-1.3c-0.5-0.4-1-0.9-1.4-1.3c-0.5-0.4-1-0.8-1.5-1.1c-1-0.8-2.1-1.4-3.2-2.1l-0.8-0.6
			c-0.3-0.2-0.5-0.4-0.8-0.6c-0.2-0.2-0.5-0.4-0.7-0.6l-0.8-0.5c-1.1-0.6-2.3-1.2-3.4-1.9l-1.7-1c-0.6-0.4-1.1-0.6-1.7-0.9
			c-0.2-0.1-0.6-0.1-1-0.4c-0.1-0.1-0.2-0.4-0.2-0.6c0.1-0.2,0.1-0.1,0.1-0.2c0-0.1,0-0.3,0-0.4v-1V44c0-0.1,0-0.1,0-0.1
			s0,0,0.1,0.1l0,0c0,0-0.3,0-0.4,0c-0.1,0-0.2,0-0.2,0s0,0,0.1-0.1s0,0,0,0c-0.1,0.1,0,0-0.1,0.2c-0.3,0.2-0.3,0.1-0.4,0.1h-0.2
			h-0.5l-2,0.1c-0.6,0-1.3,0.1-2,0c-0.2,0-0.3,0-0.5,0s-0.4-0.2-0.5-0.4c0-0.2,0-0.3,0-0.3v-0.1c0,0.1,0,0,0.1,0.1s0,0-0.1,0
			l-0.5-0.1l-1-0.1l-0.5-0.1c-0.1,0-0.2,0-0.1,0c0,0,0,0,0.1-0.1s0.1-0.2,0.1-0.1c0,0,0,0.1-0.1,0.3c-0.1,0.1-0.2,0.2-0.3,0.3
			c-0.2,0.1-0.3,0-0.4,0c-0.2-0.1-0.4-0.1-0.5-0.2c-0.2-0.1-0.6-0.1-0.9-0.1l0,0c-0.6,0-1.1-0.1-1.6-0.2c-0.5-0.1-1-0.2-1.5-0.2
			l-1.5-0.2c-0.2,0-0.6-0.1-0.6-0.1l0,0c0,0.1,0,0.2-0.1,0.3c0,0.4-0.1,1.2-0.7,1.6c-0.3,0.2-0.4,0.3-0.6,0.4c0,0-0.1,0.1-0.1,0.2
			l-0.1,0.3c-0.2,0.4-0.4,0.9-0.5,1.4c-0.2,0.5-0.3,0.9-0.5,1.4c-0.1,0.5-0.2,0.9-0.2,1.4s-0.1,1-0.1,1.5c0,0.3,0,0.5,0,0.8
			c0,0.2-0.1,0.4-0.2,0.6c-0.2,0.2-0.1,0.1-0.1,0.2c0,0.1,0,0.4,0,0.6c0,0.1,0,0.3-0.1,0.5c0,0.1-0.1,0.3-0.3,0.3
			c-0.1,0.1-0.2,0.1-0.1,0.1l0.1-0.1c0,0,0,0,0,0.1s0.1,0.3,0,0.6c-0.2,0.5-0.5,0.6-0.7,0.7C42,55.8,42,55.8,41.9,56
			c0,0.2,0,0.4,0,0.7c0.1,0.7-0.3,1.2-0.5,1.6l-0.7,1.3l-3,5.2c-0.1,0.2-0.2,0.5-0.5,0.7c-0.5,0.3-0.3,0.1-0.4,0.3
			c0,0.1-0.1,0.2-0.2,0.4c-0.1,0.2-0.4,0.3-0.6,0.3c-0.4,0.1-0.1-0.1-0.4,0.3c-0.4,0.3-0.7,0.2-1,0.2s-0.3,0-0.4,0.1
			c-0.1,0.1-0.4,0.5-0.6,0.6c-0.3,0.2-0.5,0.2-0.8,0.3c-0.5,0.1-0.8,0.2-1.3,0.5c-0.2,0.1-0.4,0.3-0.7,0.4c-0.5,0.1-0.7,0.1-1,0.1
			c-0.9,0.1-1.6,0.8-2.4,1.4c-0.2,0.2-0.3,0.3-0.6,0.5c-0.3,0.2-0.7,0.2-0.9,0.2c-0.3,0-0.4,0.1-0.5,0.1c0,0-0.1,0.2-0.3,0.3
			c-0.2,0.2-0.4,0.2-0.5,0.2s-0.3,0-0.3,0.1c0,0,0-0.1,0,0s-0.1,0.4-0.3,0.5c-0.2,0.1-0.4,0.2-0.5,0.2c-0.3,0-0.4,0-0.5,0.1
			c-0.1,0-0.1,0.2-0.3,0.3c-0.2,0.2-0.4,0.2-0.5,0.2s0,0-0.1,0.1l-0.2,0.3c-0.2,0.2-0.3,0.4-0.5,0.6c-0.4,0.4-1,0.6-1.6,0.6
			c-0.5,0-1,0-1.5,0c-0.4,0-0.9,0.2-1.5,0.2s-1.1-0.1-1.6-0.2c-0.2-0.1-0.5-0.1-0.7-0.1c-0.1,0-0.1,0-0.1,0s0-0.2,0-0.1
			c0,0,0.2,0.2,0.3,0.3c0.1,0.2,0.1,0.3,0.2,0.5c0,0.3,0,0.6,0,0.9c-0.1,0.5-0.2,1-0.3,1.5c-0.1,1-0.2,2-0.1,2.9
			c0.1,0.5,0.2,0.9,0.4,1.4c0.1,0.2,0.2,0.5,0.3,0.7c0,0.1,0,0.1,0,0.1h-0.1c0,0,0.1,0,0.2,0c1.8-0.8,3.6-1.8,5.4-2.6
			c0.5-0.2,0.9-0.4,1.2-0.7c0.2-0.2,0.4-0.4,0.6-0.5c0.3-0.2,0.5-0.2,0.8-0.3l2.9-0.7c1-0.2,1.9-0.5,3-0.7c0.5-0.1,1-0.1,1.4-0.3
			c0.4-0.2,0.9-0.4,1.4-0.6c1-0.3,2.1-0.3,3-0.5c0.5-0.1,1-0.2,1.4-0.3c0.5-0.2,0.8-0.4,1.3-0.6c0.5-0.3,1.1-0.3,1.6-0.4
			c0.5,0,0.8-0.2,1.2-0.5s0.7-0.6,1-1s0.6-0.7,0.7-1.1v-0.2l0.2-0.1c0.6-0.3,1.1-1,1.6-1.6l1.5-1.9l1.6-1.9c0.5-0.6,1.1-1.2,1.7-1.8
			c1.2-1.1,2.3-2.3,3.4-3.5C53.5,59.9,54.7,58.5,56.5,58.1L56.5,58.1z"/>
	</g>
	<g>
		<path class="st1" d="M73.7,38.1c-0.2,0.1-0.4,0.3-0.5,0.5c-0.1,0.1-0.1,0.2-0.1,0.3s-0.1,0.3-0.2,0.4c-0.1,0.1-0.2,0.2-0.2,0.3
			c-0.1,0.1-0.1,0.2-0.1,0.3c0,0-0.1,0.3-0.2,0.4c0,0.1-0.1,0.1-0.1,0.2l-0.1,0.1c-0.1,0.2-0.2,0.4-0.4,0.7
			c-0.2,0.2-0.4,0.5-0.6,0.6C71.1,42,71,42,71,42.1l-0.2,0.3c-0.1,0.2-0.3,0.4-0.1,0.7c-0.1,0-0.2-0.2-0.2-0.4s0-0.3,0-0.4l0.1-0.4
			c0-0.2,0.2-0.3,0.2-0.4c0.3-0.4,0.4-0.7,0.7-1.3c0.3-0.4,0.2-0.2,0.4-0.6c0.1-0.2,0.2-0.3,0.3-0.4c0.1-0.1,0.3-0.2,0.3-0.3
			c0.1-0.1,0.1-0.1,0.2-0.2c0-0.1,0.1-0.3,0.2-0.4C73.1,38.1,73.4,38,73.7,38.1z"/>
	</g>
	<g>
		<path class="st1" d="M46.8,60.8c-0.2-0.1-0.4-0.3-0.6-0.4l-0.5-0.5c-0.3-0.3-0.6-0.7-0.8-1.1c-0.5-0.8-0.9-1.6-1.2-2.6
			c0.8,0.6,1.3,1.4,1.8,2.2c0.2,0.4,0.5,0.8,0.7,1.2c0.1,0.2,0.2,0.4,0.3,0.6C46.5,60.4,46.6,60.6,46.8,60.8z"/>
	</g>
	<g>
		<path class="st1" d="M44.2,51.3c0.2,0.3,0.5,0.6,0.8,0.8s0.7,0.3,1.1,0.4c0.7,0.3,1.4,0.6,2.2,1c0.3,0.2,0.7,0.5,1,0.7
			s0.6,0.4,1,0.5c0.7,0.3,1.4,0.7,2.1,1.1c-0.8-0.1-1.6-0.3-2.3-0.5c-0.2,0-0.4-0.1-0.6-0.2c-0.2-0.1-0.4-0.2-0.6-0.3
			c-0.4-0.2-0.6-0.5-1-0.6c-0.6-0.4-1.3-0.7-2-1.1c-0.3-0.2-0.7-0.4-1-0.7C44.5,52.1,44.3,51.7,44.2,51.3z"/>
	</g>
	<g>
		<path class="st1" d="M63.2,50.6c-0.5,1-1.2,1.8-1.9,2.6c-0.4,0.4-0.9,0.7-1.4,0.9c-0.5,0.3-1,0.3-1.4,0.7c0.2-0.6,0.7-0.9,1.1-1.2
			c0.4-0.3,0.8-0.6,1.2-1C61.5,51.9,62.3,51.2,63.2,50.6z"/>
	</g>
	<g>
		<path class="st1" d="M64.6,47.3c0.2-0.1,0.3,0.3,0.2,0.4c-0.1,0.2-0.1,0.3-0.2,0.4c-0.1,0.3-0.3,0.5-0.5,0.7
			c-0.2,0.2-0.4,0.4-0.7,0.6c-0.2,0.2-0.5,0.3-0.8,0.4c0.1-0.3,0.3-0.6,0.4-0.8l0.5-0.6c0.2-0.2,0.4-0.4,0.6-0.6
			c0.1-0.1,0.2-0.2,0.3-0.2C64.6,47.5,64.7,47.4,64.6,47.3z"/>
	</g>
	<path class="st2" d="M72.8,37.4c0.1,0.4,0.4,0.8,0.8,1.1c0.3,0.2,0.6,0.4,0.9,0.6c0.3,0.2,0.6,0.4,0.9,0.5c0.4,0.1,0.8,0.3,1.2,0.5
		c0.4,0.2,0.8,0.4,1.2,0.7c0.2,0.2,0.4,0.4,0.5,0.6c0.1,0.1,0.2,0.3,0.2,0.4c0.1,0.3,0.1,0.7,0.1,1"/>
	<path class="st2" d="M70.2,38.1c0.3,0.2,0.7,0.3,1,0.5c0.1,0.1,0.2,0.3,0.4,0.4c0.2,0.1,0.4,0.3,0.6,0.4"/>
	<path class="st2" d="M69.6,39.5c0.2,0.2,0.4,0.3,0.6,0.5s0.3,0.4,0.5,0.6c0.1,0.1,0.3,0.2,0.4,0.4c0.1,0.1,0.1,0.1,0.2,0.1"/>
	<path class="st2" d="M69,40.8c0.2,0.2,0.5,0.3,0.7,0.5s0.3,0.4,0.5,0.6c0.1,0.1,0.2,0.2,0.4,0.3"/>
	<g>
		<path class="st1" d="M80.2,37.5c-0.1-0.1-0.1-0.3,0-0.4c0.1-0.1,0.2-0.2,0.3-0.3c0.1,0,0.2-0.1,0.4-0.1c0.1,0,0.3,0.1,0.4,0.2
			c-0.1,0.1-0.1,0.3-0.2,0.3c-0.1,0.1-0.1,0.1-0.2,0.2c-0.1,0-0.1,0.1-0.2,0C80.5,37.5,80.4,37.4,80.2,37.5z"/>
	</g>
	<path class="st3" d="M14.7,82.2c-0.5,0.4-1,0.7-1.6,0.9c-0.3,0.1-0.6,0.1-0.9,0.3c-0.3,0.1-0.5,0.3-0.8,0.4c-0.4,0.2-0.7,0.4-1,0.6
		s-0.4,0.5-0.7,0.7c-0.6,0.4-1.1,1-1.6,1.4c-0.3,0.3-0.6,0.5-0.9,0.7c-0.4,0.2-0.8,0.2-1.2,0.2c-0.3,0-0.5-0.1-0.7-0.3
		C5.1,86.8,5,86.6,5,86.3c0-0.4,0.1-0.8,0.2-1.2c0.1-0.2,0.2-0.4,0-0.6C5.1,84.4,5,84.3,5,84.1C5,84,5,84,5.1,83.9
		c0-0.1,0.1-0.2,0.1-0.3l0,0c0,0,0,0,0.1,0s0.1,0,0.2-0.1s0.1-0.1,0.1-0.2c0.1-0.3,0.2-0.6,0.3-0.9C6,82.2,6,82.1,6,82
		s-0.2-0.3-0.2-0.3c0.1-0.2,0.1-0.3,0.2-0.5c0.1-0.1,0.1-0.3,0.2-0.3s0.2,0,0.2,0c0.1,0,0.2,0,0.3,0c0.5-0.2,0.6-1.2,0.8-1.7
		c0.2-0.4,0.6-1,0.3-1.4c-0.2-0.2-0.2,0-0.1-0.3C7.8,77.3,7.9,77,8,77c0.1,0,0.1,0,0.2,0c0.2,0,0.4,0.1,0.5-0.1s0.1-0.4,0.2-0.6
		C9,76.1,9.1,76,9.2,75.8c0.2-0.3,0.4-0.6,0.5-1c-0.5,0,0-0.9,0.2-1s0.3,0.1,0.5,0.1s0.3-0.1,0.5-0.2c0.4-0.2,0.9-0.3,1.4-0.3
		c0.4,0,0.8,0.1,1,0.5c0.1,0.2,0.2,0.4,0.2,0.6c0,0.1,0,0.1,0,0.2c0.1,0.2,0.3,0.3,0.5,0.3"/>
	<g>
		<path class="st1" d="M10.2,82.9c0.4,0,0.6,0.3,0.7,0.5c0.1,0.2,0.1,0.5-0.1,0.8c-0.3-0.2-0.5-0.3-0.6-0.5
			C10.1,83.5,10.1,83.2,10.2,82.9z"/>
	</g>
	<g>
		<path class="st1" d="M10.7,82.8c0.4,0,0.5,0.2,0.6,0.4c0.1,0.2,0.1,0.5-0.1,0.7c-0.3-0.1-0.5-0.3-0.6-0.4
			C10.6,83.3,10.6,83.1,10.7,82.8z"/>
	</g>
	<path class="st3" d="M89.9,86.8c0.1,0.3,0.4,0.6,0.7,0.7c0.7,0.5,1.4,1,2.2,1.4c0.8,0.4,1.6,0.7,2.4,1c0.4,0.2,0.8,0.4,1.2,0.7
		c0.6,0.6,0.5,1.4-0.3,1.8c-0.5,0.2-1.1,0.2-1.6,0.2c-2.6-0.2-5.2-0.3-7.8-0.5c-1.7-0.1-3.3-0.2-5-0.3c-0.7,0-1.3,0-2-0.3
		c-0.6-0.3-1.1-0.9-1.1-1.5c0-0.3,0.3-0.7,0.3-1.1"/>
	<g>
		<path class="st1" d="M96,91.9c-1.4,0.5-2.9,0.4-4.4,0.3c-0.8,0-1.5-0.2-2.2-0.2c-0.3,0-0.7,0-1.1,0s-0.8-0.1-1.1-0.2
			c-0.7-0.2-1.4-0.4-2.1-0.5s-1.4-0.1-2.1-0.1s-1.5,0.1-2.3-0.3c-0.7-0.3-1.4-0.7-1.7-1.4c0.5,0.6,1.2,0.7,1.9,1
			c0.6,0.2,1.3,0.1,2.1,0c0.7,0,1.5,0,2.2,0c0.8,0.1,1.5,0.4,2.2,0.5c0.7,0.2,1.3,0.2,2.1,0.3c0.8,0.1,1.4,0.3,2.2,0.4
			C93.1,91.8,94.6,92.1,96,91.9z"/>
	</g>
	<g>
		<path class="st1" d="M90.7,88.7c-0.1-0.3,0-0.5,0.2-0.6s0.4-0.1,0.7,0.1c0,0.3-0.1,0.5-0.2,0.6C91.2,88.7,91,88.7,90.7,88.7z"/>
	</g>
	<g>
		<path class="st1" d="M59.3,57.6c0.8,0.1,1.7-0.4,2.6-0.8c0.9-0.5,1.9-0.8,2.8-1.1l2.9-0.8c1-0.2,2-0.3,3-0.5
			c-0.9,0.4-1.8,0.9-2.8,1.2s-1.9,0.5-2.9,0.8C64,56.7,63,57,62.2,57.5c-0.9,0.4-1.8,1-3,0.9L59.3,57.6z"/>
	</g>
	<g>
		<path class="st1" d="M61.7,57.2c1.3,0.2,2.6,0.5,3.9,1.1c1.3,0.5,2.5,1.1,3.7,1.6c0.6,0.3,1.2,0.5,1.9,0.7
			c0.7,0.3,1.2,0.7,1.7,1.2c1,0.9,2.1,1.8,2.8,3c0.4,0.6,0.7,1.2,0.8,1.9c0.2,0.6,0.4,1.3,0.6,1.9s0.5,1.2,0.9,1.8
			c0.2,0.3,0.3,0.6,0.4,1s0.1,0.7,0.1,1c0.1,0.6,0.4,1.2,0.7,1.8c0.4,0.6,0.6,1.3,0.7,1.9c0.1,0.7,0.3,1.3,0.5,2l0.5,1.9l-0.5-2
			c-0.2-0.6-0.4-1.3-0.6-1.9c-0.1-0.7-0.3-1.3-0.7-1.8c-0.4-0.6-0.7-1.2-0.8-1.9c0-0.3,0-0.7-0.1-1s-0.2-0.6-0.4-0.9
			c-0.4-0.6-0.7-1.2-0.9-1.8c-0.5-1.3-0.7-2.6-1.5-3.7c-0.7-1.1-1.7-2-2.7-2.9c-0.5-0.4-1-0.9-1.6-1.1c-0.6-0.2-1.3-0.5-1.9-0.8
			C66.7,59.1,64.4,57.7,61.7,57.2z"/>
	</g>
	<g>
		<path class="st1" d="M46,44C45.9,43.9,46,44,46,44l0.2,0.1l0.3,0.1l0.7,0.3c0.5,0.2,0.9,0.4,1.4,0.5c1,0.3,2,0.4,3,0.6
			c1,0.2,2,0.5,3,0.7c1,0.3,2,0.3,3,0.4c-1,0.1-2.1,0.2-3.1,0.1c-1-0.1-2-0.2-3.1-0.4c-1-0.2-2-0.3-3.1-0.6c-0.5-0.1-1-0.3-1.5-0.5
			L46.1,45c-0.1,0-0.2-0.1-0.4-0.2l-0.2-0.1c-0.1-0.1-0.1-0.1-0.3-0.3L46,44z"/>
	</g>
	<g>
		<path class="st1" d="M45.4,52.6c-0.2,0.2-0.3,0.4-0.4,0.6c-0.1,0.2-0.3,0.4-0.4,0.6c-0.1,0.2-0.1,0.4-0.1,0.7
			c0,0.1-0.1,0.1-0.2,0.2c-0.1,0-0.1,0-0.2,0c-0.1,0-0.2,0.1-0.3,0.2c-0.3,0.3-0.4,0.7-0.2,1.1c0,0.1,0.1,0.2,0.2,0.4
			c0,0.2-0.1,0.3-0.1,0.4l-0.2,0.7c-0.4,0.9-0.9,1.7-1.3,2.5c-0.3,0.4-0.3,0.8-0.5,1.3c-0.2,0.4-0.5,0.8-0.7,1.2
			c-0.4,0.8-0.8,1.6-1.1,2.5c-0.4,0.9-0.8,1.7-1.3,2.5c-0.2,0.4-0.5,0.8-0.6,1.2c-0.1,0.2-0.2,0.4-0.3,0.6s-0.2,0.3-0.3,0.5
			c0,0.1,0,0.2,0,0.4c0,0.1,0,0.3-0.1,0.4c-0.2,0.2-0.4,0.3-0.6,0.4c-0.4,0.3-0.8,0.5-1.2,0.8c-0.8,0.5-1.6,1-2.5,1.3
			s-1.8,0.6-2.6,1c-1.7,0.8-3.5,1.5-5.3,1.9c-0.9,0.3-1.9,0.3-2.8,0.4c-0.9,0-1.7,0.3-2.6,0.7c-1,0.3-1.9,0.2-2.6,0.7
			c-0.1,0.1-0.2,0.1-0.4,0.2c-0.2,0-0.3,0-0.5,0c-0.3-0.1-0.4-0.2-0.7-0.2c-0.4-0.1-0.9-0.2-1.3-0.3V77c0.5,0,1,0.1,1.4,0.3
			c0.2,0.1,0.5,0.2,0.6,0.2c0.2,0.1,0.3,0,0.4-0.1c0.4-0.3,0.9-0.5,1.4-0.5c0.5-0.1,0.9-0.1,1.3-0.3c0.4-0.2,0.8-0.4,1.3-0.5
			s1-0.2,1.4-0.2c1-0.1,1.8-0.1,2.7-0.4c1.8-0.4,3.5-1.1,5.2-1.9c0.8-0.4,1.7-0.7,2.6-1c0.8-0.3,1.6-0.8,2.4-1.3
			c0.4-0.2,0.8-0.5,1.2-0.8c0.2-0.1,0.4-0.3,0.5-0.4c0.2,0,0.3-0.3,0.1-0.5c-0.1-0.1,0-0.3,0.1-0.4s0.1-0.2,0.2-0.3
			c0.1-0.2,0.2-0.4,0.3-0.6c0.2-0.4,0.4-0.9,0.6-1.3c0.4-0.8,0.9-1.6,1.2-2.5s0.7-1.7,1.1-2.6c0.2-0.4,0.5-0.8,0.6-1.2
			c0.2-0.4,0.2-0.9,0.5-1.3c0.5-0.9,0.9-1.6,1.3-2.5l0.3-0.6c0.1-0.3,0.1-0.2,0-0.5c-0.2-0.5-0.1-1.1,0.4-1.4
			c0.1-0.1,0.2-0.1,0.3-0.2c0.1,0,0.3,0,0.2-0.1c0-0.2,0-0.5,0.1-0.7s0.3-0.4,0.4-0.6C45.1,53,45.2,52.8,45.4,52.6z"/>
	</g>
	<g>
		<path class="st1" d="M47.2,45.7c0.1,0.3-0.1,0.5-0.2,0.7c-0.1,0.1-0.2,0.3-0.2,0.5s0,0.4-0.1,0.6c0,0.1,0,0.1,0,0.3
			c0,0.1,0,0.3,0,0.5c-0.1,0.3-0.3,0.4-0.4,0.6c-0.1,0.2-0.2,0.3-0.3,0.5s-0.1,0.4-0.1,0.5c-0.1,0.2-0.1,0.4,0,0.6
			c-0.2-0.1-0.4-0.3-0.5-0.6c0-0.3,0-0.5,0.1-0.8c0.1-0.2,0.2-0.4,0.3-0.6c0.1-0.2,0.3-0.4,0.3-0.5s0-0.1,0-0.2
			c0-0.1-0.1-0.3-0.1-0.4c0-0.2,0-0.5,0.1-0.7c0-0.2,0.2-0.5,0.3-0.7C46.9,45.9,47,45.9,47.2,45.7z"/>
	</g>
	<g>
		<path class="st1" d="M59.3,46.5c0,0.1,0,0.3,0,0.4c0,0.1,0,0.3-0.1,0.5c-0.2,0.3-0.5,0.5-0.9,0.4c-0.2,0-0.4-0.1-0.5-0.3
			c-0.1-0.1-0.2-0.3-0.3-0.4c-0.1-0.3-0.2-0.6-0.2-0.9c0-0.4,0.1-0.6,0.2-0.9c0-0.1,0.1-0.3,0.2-0.5c0.1-0.1,0.2-0.2,0.3-0.3
			s0.3-0.2,0.5-0.2s0.4,0,0.6,0.2c0.2,0.3,0.3,0.6,0.3,0.9c-0.1-0.2-0.3-0.5-0.5-0.6c-0.1-0.1-0.3,0-0.4,0.2
			c-0.1,0.1-0.1,0.2-0.2,0.3c0,0.1-0.1,0.1-0.1,0.3s-0.2,0.5-0.1,0.7c0,0.2,0,0.5,0.1,0.7c0,0.1,0.1,0.2,0.1,0.3s0.1,0.1,0.1,0.1
			c0.1,0.1,0.3,0,0.5-0.1C59.1,47,59.1,46.7,59.3,46.5z"/>
	</g>
	<g>
		<path class="st1" d="M12.5,73.9c-0.8,0.9-1.7,1.7-2.2,2.7c-0.6,1-1,2.1-1.9,3.1c-0.3,0.4-0.6,0.9-0.8,1.5
			c-0.2,0.5-0.5,1.1-0.7,1.6s-0.5,1.1-0.7,1.6c-0.3,0.5-0.5,1.1-0.5,1.7c-0.2-0.6,0-1.2,0.1-1.8c0.2-0.6,0.4-1.1,0.5-1.7
			c0.2-0.6,0.4-1.1,0.6-1.7c0.2-0.5,0.4-1.1,0.9-1.7c0.7-0.8,1.2-1.9,1.9-2.9C10.5,75.3,11.5,74.6,12.5,73.9z"/>
	</g>
	<g>
		<path class="st1" d="M13.4,83.5c-0.1,0.2-0.2,0.4-0.3,0.7c-0.1,0.2-0.4,0.4-0.6,0.4c-0.5,0.1-1.2-0.1-1.2-0.8
			c0-0.2,0.1-0.3,0.2-0.5c0.1-0.1,0.2-0.2,0.4-0.2c0.2-0.1,0.4-0.2,0.7-0.3c0.2-0.1,0.4-0.1,0.7,0c0.1,0.1,0.3,0.1,0.4,0.3
			C13.6,83.4,13.5,83.4,13.4,83.5z M13.4,83.5c0-0.1,0.1-0.2,0-0.2c0,0-0.1,0.1-0.2,0.1c-0.2,0.1-0.4,0.2-0.6,0.3
			c-0.2,0.1-0.4,0.1-0.6,0.1c-0.1,0-0.1,0-0.2,0.1c0,0-0.1,0-0.2,0.1c-0.1,0.1,0,0.4,0.1,0.4c0.2,0,0.3-0.1,0.5-0.2s0.3-0.2,0.5-0.2
			C13,83.8,13.3,83.7,13.4,83.5z"/>
	</g>
	<path class="st2" d="M26.1,5.6c-0.2-0.7,0.1-1.6,0.7-2.1c0.2-0.2,0.5-0.3,0.7-0.4c0,0,0.1,0,0.3-0.1"/>
	<path class="st2" d="M29.8,4.4C30,4.8,30,5.3,30,5.3c-0.1,0.5-0.3,1-0.8,1.4c-0.8,0.6-1.9,0.5-2.6-0.1"/>
	<g>
		<path class="st1" d="M62.8,46.5c-0.3,0.3-0.6,0.4-0.8,0.5c-0.3,0-0.5,0-0.8,0l-0.8,0.1h-0.2c-0.1,0-0.1,0-0.2,0
			c-0.1-0.1-0.3-0.2-0.4-0.3c0.1-0.1,0.2-0.2,0.4-0.3c0.1-0.1,0.1,0,0.2-0.1h0.2l0.7-0.1c0.2,0,0.5-0.1,0.7-0.1s0.4-0.1,0.5-0.2
			L62.8,46.5z"/>
	</g>
	<g>
		<path class="st1" d="M52.6,12.5c0.2,0.1,0.2,0.3,0.2,0.5c0,0.1-0.1,0.3-0.2,0.3c-0.1,0.1-0.2,0.1-0.3,0.2c-0.4,0.1-0.8,0-1-0.2
			c-0.3-0.2-0.4-0.6-0.5-0.8c-0.1-0.3-0.3-0.5-0.4-0.8c-0.1-0.3-0.2-0.6-0.2-0.9c0-0.3,0.1-0.7,0.3-1c0.3-0.3,0.6-0.5,1.1-0.4
			c0.2,0,0.4,0.2,0.5,0.4s0,0.3,0,0.5H52c-0.1-0.1-0.2-0.3-0.2-0.3c-0.1-0.1-0.2,0-0.2,0c-0.1,0-0.3,0.2-0.4,0.3
			c-0.1,0.2-0.2,0.3-0.2,0.5s-0.1,0.5-0.1,0.8s0.1,0.5,0.2,0.8c0.2,0.2,0.4,0.3,0.6,0.4c0.2,0.1,0.4,0.2,0.6,0.2h0.1c0,0,0,0,0.1,0
			C52.4,12.8,52.5,12.7,52.6,12.5L52.6,12.5z"/>
	</g>
	<g>
		<path class="st1" d="M53.6,8.9c-0.2,0.1-0.1,0.5,0,0.3l1.3-0.3c0.8-0.2,1.6-0.4,2.5-0.6l2.5-0.6l1.3-0.3c0.4-0.1,0.9-0.1,1.3,0
			c0.1,0,0.2,0,0.2,0s0,0.1,0,0s-0.3-0.2-0.4-0.3C61.9,7,61.4,7,61,7c-0.8,0.1-1.7,0.4-2.5,0.5C57.7,7.7,56.9,8,56,8.2L53.6,8.9
			L53.6,8.9z M53.5,8.4c1.6-0.6,3.2-1.1,4.9-1.5c0.9-0.1,1.7-0.3,2.6-0.3c0.2,0,0.4,0,0.7,0c0.2,0,0.5,0,0.7,0.1s0.4,0.2,0.6,0.5
			c0,0.1,0.1,0.2,0,0.3c0,0.1-0.1,0.2-0.2,0.3c-0.2,0.1-0.3,0-0.4,0c-0.4,0-0.8,0-1.2,0.1L60,8.2c-0.8,0.2-1.6,0.5-2.5,0.8
			c-0.8,0.3-1.7,0.4-2.5,0.6c-0.4,0.1-0.9,0.1-1.3,0.2c0,0-0.4,0.1-0.5-0.1C53,9.6,53,9.4,53,9.2C52.9,8.8,53.2,8.5,53.5,8.4
			L53.5,8.4z"/>
	</g>
	<g>
		<path class="st1" d="M58.9,7.1c-0.3-0.8-0.7-1.6-1.3-2.2c-0.3-0.3-0.6-0.5-1-0.7c-0.4-0.2-0.8-0.3-1.2-0.3c-0.8-0.1-1.7,0-2.6,0.2
			c-0.9,0.1-1.7,0.3-2.5,0.8C49.6,5.4,49,6,48.6,6.8s-0.5,1.6-0.4,2.5c-0.1,0.8,0.2,1.6,0.4,2.5c0,0.1,0.1,0.2,0,0.1
			c-0.1-0.1-0.2,0-0.2,0s0,0,0.1,0c0.1-0.1,0.3-0.3,0.5-0.4c0.4-0.3,0.8-0.5,1.2-0.7l0.3,0.4c-0.3,0.3-0.7,0.6-1,0.8
			c-0.1,0.1-0.3,0.3-0.5,0.5c0,0-0.1,0.1-0.2,0.1c-0.1,0-0.3,0.1-0.5-0.1c-0.2-0.3-0.2-0.4-0.2-0.5c-0.2-0.8-0.6-1.7-0.4-2.7
			c0-1.8,1-3.7,2.5-4.7c0.9-0.6,1.8-0.8,2.7-1s1.8-0.5,2.7-0.4c0.5,0,1,0.2,1.4,0.4s0.9,0.5,1.2,0.9c0.6,0.8,1,1.6,1.2,2.5L58.9,7.1
			z"/>
	</g>
	<g>
		<path class="st1" d="M51.9,9.9c0.2-0.2,0.4-0.4,0.7-0.4s0.5-0.1,0.8-0.1c0.3-0.1,0.5-0.2,0.7-0.3C54.3,9,54.5,9,54.8,9l0.1,0.4
			c-0.2,0.2-0.5,0.3-0.7,0.3c-0.3,0-0.5,0-0.7,0c-0.2,0.1-0.4,0.2-0.6,0.4c-0.2,0.1-0.5,0.2-0.8,0.1L51.9,9.9z"/>
	</g>
	<g>
		<path class="st1" d="M48.7,12.2c0.1,0.2,0.3,0.4,0.5,0.5c0.2,0.2,0.3,0.4,0.4,0.6c0.1,0.2,0.2,0.4,0.4,0.5l0.3,0.2
			c0.1,0.1,0.2,0.3,0.3,0.5c0.1,0.5,0,1.1-0.2,1.6c-0.3,0.5-0.8,0.8-1.2,0.9c0.2-0.1,0.4-0.3,0.5-0.5s0.2-0.4,0.2-0.6
			c0.1-0.4,0.1-0.8,0-1.2c0-0.1,0-0.1-0.1-0.1c-0.1-0.1-0.2-0.1-0.3-0.3c-0.2-0.2-0.3-0.5-0.4-0.7S49,13.2,48.9,13
			C48.8,12.7,48.7,12.5,48.7,12.2z"/>
	</g>
	<g>
		<path class="st1" d="M58.3,13c0.2-0.1,0-0.2,0.1-0.2s0.3,0,0.4,0c0.1,0,0.3,0,0.5,0s0.3,0.1,0.4,0.1c0.1,0,0.1,0,0.1,0
			s0.1-0.1,0-0.2c0-0.3-0.2-0.6-0.2-0.9c-0.1-0.3-0.1-0.6-0.2-0.8c0-0.1-0.1-0.2-0.1-0.3v-0.3V9.9l-0.1-0.8c0-0.2-0.1-0.5-0.2-0.8
			V8.2c0,0,0,0.1,0.1,0.1L59.3,8c0.1,0,0.1,0.1,0.1,0.2V8.1c0.2,0.2,0.4,0.5,0.5,0.9C60,9.3,60,9.6,60,10c0,0.2,0,0.3-0.1,0.4v0.2
			c0,0,0,0.1,0,0.2c0.1,0.3,0.1,0.6,0.1,0.9c0.1,0.3,0.2,0.6,0.3,0.9c0,0.2,0.1,0.4,0,0.6c-0.1,0.3-0.5,0.4-0.7,0.4h-0.4
			c-0.1,0-0.2,0-0.4,0s-0.3,0-0.5-0.1c-0.1,0-0.2-0.1-0.3-0.3s-0.1-0.4,0.2-0.5L58.3,13z"/>
	</g>
	<g>
		<path class="st1" d="M58,14.2c0.2-0.1,0.4-0.2,0.6-0.3c0.1,0,0.2-0.1,0.3-0.1s0.3,0,0.3,0c0.1,0,0.1,0,0.1,0l0,0l0,0
			c0,0,0-0.2,0.1-0.4c0.1-0.1,0.1-0.2,0.2-0.3c0.1,0.1,0.1,0.2,0.2,0.3c0,0.1,0.1,0.1,0.2,0.3c0,0.1,0,0.2,0,0.3s-0.1,0.2-0.2,0.3
			c-0.2,0.2-0.4,0.2-0.5,0.2c-0.2,0-0.2,0-0.3,0s-0.2,0-0.3,0C58.5,14.5,58.2,14.4,58,14.2z"/>
	</g>
	<g>
		<path class="st1" d="M58.5,15.2c0.2-0.1,0.4-0.2,0.5-0.3c0.2-0.1,0.4-0.1,0.4-0.1c-0.1,0.1,0,0.1,0,0s0.1-0.1,0-0.2
			c0,0-0.1-0.1-0.1-0.2c0-0.1,0.1-0.2,0.1-0.2c0,0.1,0.1,0,0.2,0.1c0.1,0,0.3,0.1,0.4,0.2c0.1,0.1,0.1,0.3,0.1,0.4
			c0,0.2-0.1,0.4-0.3,0.5c-0.3,0.1-0.5,0.1-0.7,0C58.9,15.5,58.7,15.4,58.5,15.2z"/>
	</g>
	<g>
		<path class="st1" d="M59.4,10.5c0.2,0.3,0.4,0.6,0.5,0.9c0.1,0.1,0.1,0.3,0.3,0.4c0.2,0.1,0.1,0.3-0.1,0.6H60
			c-0.4-0.1-0.5-0.2-0.4-0.4s0-0.3,0-0.5C59.4,11.2,59.4,10.9,59.4,10.5L59.4,10.5z"/>
	</g>
	<g>
		<path class="st1" d="M59.3,15.3c-0.1,0.4-0.3,0.7-0.2,1s0.1,0.8-0.1,1.2c-0.3,0.8-1.3,1.2-2.2,1c-0.4-0.1-0.8-0.3-1.1-0.5
			s-0.6-0.4-0.9-0.6c-0.3-0.3-0.5-0.5-0.8-0.8c-0.2-0.3-0.4-0.6-0.5-1c0.4,0.6,1.1,1,1.6,1.4l1,0.5c0.3,0.2,0.6,0.3,0.9,0.4
			c0.6,0.2,1.2-0.1,1.5-0.6c0.2-0.3,0.2-0.6,0.3-0.9C58.8,15.9,59.1,15.5,59.3,15.3z"/>
	</g>
	<g>
		<path class="st1" d="M52.5,18.9c-0.3,0.2-0.7,0.2-1.1,0.2c-0.4,0-0.7-0.1-1.1-0.2c-0.4-0.2-0.7-0.5-0.9-0.8s-0.3-0.8-0.1-1.1
			c0.2,0.3,0.4,0.5,0.6,0.7c0.2,0.2,0.5,0.4,0.7,0.5c0.3,0.1,0.6,0.2,0.9,0.3C51.8,18.7,52.2,18.8,52.5,18.9z"/>
	</g>
	<path class="st3" d="M62.8,7.4c0,0-1.4,1.8-3.3,2"/>
	<g>
		<path class="st1" d="M50.5,11.2c-0.2,0.3-0.2,0.5-0.2,0.7s0.2,0.4,0.3,0.8c0.1,0.3,0,0.7,0,0.9c0,0.1-0.1,0.3-0.2,0.4
			c0,0.1-0.1,0.2-0.2,0.2c-0.1,0.1-0.2,0-0.3,0c0.2,0,0.1-0.1,0.1-0.2c0-0.1-0.1-0.3-0.1-0.4c0-0.3-0.1-0.5-0.1-0.8
			c0-0.2-0.2-0.5-0.1-0.9C49.8,11.5,50.2,11.3,50.5,11.2z"/>
	</g>
	<path class="st2" d="M58.3,42.7c-0.7-0.6-1.1-1.3-1.6-2c-0.5-0.6-1.2-1.1-1.4-2c-0.1-0.4,0-0.7-0.1-1.1C55,37,54.6,36.5,54.3,36
		c-0.3-0.4-0.7-0.8-1-1.3c-0.3-0.4-0.8-0.8-1-1.2c-0.3-0.7-0.5-1.8-0.6-2.6c-0.1-0.6,0-1.2-0.2-1.7c-0.1-0.2-0.1-0.4-0.2-0.5
		c-0.1-0.2,0-0.5-0.1-0.7c-0.1-0.6-0.3-1.1-0.4-1.7c-0.2-0.9-0.1-1.9-0.2-2.8c-0.1-0.8-0.4-1.6-0.9-2.3c-0.4-0.5-0.7-1-1.2-1.3
		c-0.7-0.5-1.4-1-1.3-2c0,0,0,0,0-0.1c0,0,0,0,0.1,0s2.1-0.7,2.1-0.5"/>
	<path class="st2" d="M58.9,17.5c-0.7,0.7-1.9,1.6-3.6,2.3c-0.7,0.3-1.6,1.1-1.6,2.1c0,1.3,0.1,2.6,0.2,3.9c0,0.3,0.1,0.6,0.1,0.9
		c0.1,0.3,0.2,0.5,0.2,0.8s0,0.6,0,1c0,0.7,0.1,1.3,0.1,2c0,0.2,0.1,0.5,0.2,0.7c0.1,0.2,0.1,0.3,0.2,0.5c0.1,0.4,0,0.8,0.1,1.1
		s0.3,0.5,0.4,0.8c0.2,0.5-0.1,1.1,0.2,1.6c0.1,0.2,0.4,0.4,0.6,0.5c0.2,0.2,0.5,0.4,0.7,0.6c0.3,0.2,0.6,0.5,0.7,0.8
		c0.1,0.3,0,0.7,0,1c-0.1,0.5-0.1,1.1,0.1,1.6c0.3,0.6,1,0.9,1.2,1.5c0.1,0.2,0.2,0,0.3,0.2c0.1,0.1,0.1,0.3,0.1,0.4
		c0.1,0.2,0.2,0.4,0.4,0.5c0.3,0.3,0.5,0.5,0.7,0.9c0.2,0.3,0.2,0.6,0.3,0.9"/>
	<path class="st2" d="M56.4,18c-0.7,0.3-1.6,0.4-2.3,0.5c-0.8,0.1-1.7,0.3-2.2,1c-0.4,0.6-0.5,1.4-0.5,2.1"/>
	<g>
		<path class="st1" d="M47.1,18.2c-0.6,0.2-1,0.2-1.4,0.2l-1.3-0.1c-0.8-0.1-1.6-0.2-2.2,0c-0.3,0.1-0.6,0.4-1,0.5l-1.1,0.5
			c-0.2,0.1-0.3,0.2-0.5,0.2c-0.1,0.1-0.3,0.2-0.4,0.4c-0.2,0.1-0.5,0.3-0.7,0.4c-0.3,0.1-0.5,0.1-0.7,0.1h-2.5H35h-0.2
			c0,0-0.1,0,0,0c0,0,0.2-0.1,0.2-0.2c0.1-0.1,0.1-0.1,0.1-0.1v0.1v0.3c0,0.4,0,0.7,0.1,1.1c0.1,0.3,0.2,0.6,0.4,1l0.6,1.1l0.6,1.1
			l0.3,0.5c0.1,0.1,0.3,0.5,0.3,0.5l0,0c0,0-0.1,0,0,0s0.5-0.1,0.8-0.1s0.5,0.1,0.7,0.3l0.5,0.3c0.7,0.4,1.4,0.9,2,1.6
			c0.3,0.3,0.6,0.7,0.7,1.1c0.2,0.4,0.3,0.7,0.5,1.1c0.3,0.8,0.6,1.5,0.9,2.3c0.1,0.4,0.3,0.7,0.5,1.1c0.1,0.2,0.2,0.5,0.2,0.6
			s0.1,0.1,0.1,0.1l0.2,0.2c0.1,0.1,0.3,0.5,0.4,0.8c0,0.3-0.1,0.6-0.1,0.8s-0.1,0.3-0.1,0.5v0.6c0,0.4-0.1,0.8,0,1.1
			c0,0.2,0,0.3,0.1,0.5s0.1,0.3,0.2,0.5l0.6,1c0.1,0.2,0.2,0.3,0.3,0.5s0.2,0.5,0.1,0.8v0.1h-0.1l-0.3,0.2l-0.1,0.1l0,0
			c0-0.1,0,0,0.1,0c0.2,0,0.3,0.2,0.4,0.3c0.1,0.1,0.1,0.3,0.3,0.3c-0.2,0.1-0.3-0.1-0.4-0.2c-0.1-0.1-0.2-0.2-0.4-0.2
			c-0.1,0-0.2,0-0.3-0.2c0-0.1,0-0.1,0.1-0.2l0.1-0.1l0.4-0.4l-0.1,0.1c0.1-0.2-0.3-0.5-0.5-0.8l-0.8-1c-0.1-0.2-0.2-0.4-0.4-0.6
			c-0.1-0.2-0.1-0.5-0.2-0.7c0-0.5,0-0.8,0-1.3v-0.6c0-0.2,0.1-0.5,0.1-0.7c0.1-0.2,0.1-0.3,0.1-0.4c0-0.1,0-0.1-0.2-0.3l-0.2-0.2
			c-0.1-0.1-0.2-0.3-0.2-0.4c-0.1-0.3-0.1-0.3-0.2-0.5c-0.2-0.4-0.3-0.8-0.5-1.1c-0.3-0.8-0.6-1.5-0.9-2.2c-0.1-0.4-0.3-0.8-0.5-1.1
			c-0.2-0.3-0.3-0.6-0.6-0.9c-0.5-0.5-1.1-1-1.8-1.4l-0.5-0.3c-0.1-0.1-0.3-0.1-0.4-0.1c-0.1,0-0.1,0-0.4,0.1c-0.1,0-0.3,0.1-0.6,0
			c-0.2-0.1-0.4-0.3-0.5-0.4c-0.2-0.3-0.2-0.3-0.3-0.5l-0.3-0.5L35.5,24l-0.6-1c-0.2-0.3-0.4-0.8-0.5-1.2c-0.1-0.4-0.2-0.9-0.1-1.3
			v-0.3V20c0-0.1,0-0.2,0.1-0.3c0.1-0.1,0.3-0.2,0.4-0.2c0.2,0,0.2,0,0.3,0h0.1h0.3h2.4c0.2,0,0.4,0,0.5,0s0.2-0.1,0.3-0.2
			s0.3-0.2,0.5-0.4c0.2-0.1,0.4-0.2,0.6-0.3l1.1-0.5c0.4-0.1,0.6-0.4,1.1-0.6c1-0.3,1.9-0.1,2.6,0l1.1,0.1c0.4,0,0.8,0,1-0.1
			L47.1,18.2z"/>
	</g>
	<path class="st3" d="M34.7,20.3c-0.4,0-0.9,0.1-1.4,0c-0.3,0-0.8-0.8-1-1c-0.5-0.6-0.9-1.2-1.3-1.8c-0.4-0.6-0.6-1.3-0.9-1.9
		c-0.4-0.9-0.8-1.8-1.1-2.8c-0.2-0.4-0.3-0.9-0.4-1.3c-0.1-0.3-0.4-0.6-0.5-1c0-0.4,0.4-0.8,0.5-1.1c0-0.1,0.1-0.2,0.1-0.3
		c0.3-0.7,0.7-1.4,1-2.2c0.2-0.3,0.2-0.7,0.4-1c0.2-0.4,0.3-0.8,0.4-1.3c0-0.1,0.1-0.3,0-0.4c0-0.1-0.1-0.2-0.2-0.3
		c-0.1-0.2-0.3-0.3-0.4-0.5c0.2,0.1,0.1,0,0.1,0c-0.1,0-0.1,0-0.2,0c-0.3,0-0.7,0.1-0.9,0.3c0,0.1-0.1,0.1,0,0.2
		c0,0.1,0,0.1,0.1,0.2c0.2,0.2,0.7,0.4,1,0.2"/>
	<path class="st2" d="M26.4,18.4c0.4,0,1.9-0.2,2.6-0.7c0.4-0.3,1.3-1.1,1.5-1.5"/>
	<g>
		<path class="st1" d="M58.8,17l1.3,0.2c0.2,0,0.5,0.1,0.8,0.3c0.3,0.2,0.5,0.4,0.5,0.4l1.2,0.2l0.7,0.1c0.2,0,0.5,0.1,0.7,0.2
			l1.2,0.6l0.6,0.3c0.1,0,0.3,0.2,0.4,0.2c0.1,0.1,0.2,0.1,0.2,0.2c0.7,0.5,1.5,1,2.1,1.7c0.1,0.1,0.2,0.2,0.3,0.3l0.2,0.2
			c0,0.1,0.3,0.2,0.4,0.3c0.3,0.2,0.7,0.4,1.1,0.5c0.2,0.1,0.4,0.1,0.6,0.2s0.7,0.2,0.8,0.7c0.1,0.3,0,0.5-0.1,0.7
			c-0.1,0.1-0.2,0.2-0.2,0.3c-0.1,0.1-0.1,0.1-0.1,0.2l-0.1,0.3c-0.2,0.5-0.5,0.9-0.7,1.2c-0.1,0.1-0.2,0.4-0.3,0.6
			c-0.1,0.2-0.3,0.4-0.4,0.6c-0.3,0.4-0.6,0.7-1,1c-0.2,0.1-0.4,0.3-0.6,0.4s-0.4,0.2-0.6,0.3c-0.1,0-0.2,0.1-0.4,0.1
			c-0.1,0-0.3,0.1-0.6,0c-0.4-0.2-0.6-0.3-0.7-0.5c-0.4-0.3-0.6-0.8-0.9-1c-0.1-0.1-0.3-0.3-0.4-0.3c0,0,0,0-0.1,0c0,0-0.1,0,0,0
			s0,0,0,0c-0.1,0.1,0,0-0.1,0.3c0,0.1,0,0.3-0.1,0.4s-0.1,0.3-0.2,0.4c-0.1,0.2-0.1,0.3-0.2,0.5L64,29.6c-0.1,0.5-0.2,0.9-0.4,1.3
			c-0.3,0.9-0.6,1.6-0.7,2.5c-0.1,0.8-0.2,1.7-0.2,2.5c0,0.5,0.1,0.9,0,1.4s-0.2,1-0.3,1.4c-0.2,0.5-0.5,0.8-0.6,1.2
			s-0.2,0.8-0.2,1.2c-0.1,0.9-0.2,1.7,0,2.6c-0.4-0.8-0.4-1.8-0.5-2.6c0-0.4-0.1-0.9,0-1.4s0.3-0.9,0.4-1.3c0.1-0.4,0.3-0.8,0.3-1.2
			s0-0.8,0-1.2c0-0.9,0-1.8,0.2-2.7c0.1-0.9,0.5-1.8,0.7-2.6c0.1-0.4,0.3-0.8,0.3-1.2l0.1-0.7c0-0.2,0.2-0.6,0.3-0.8
			c0.1-0.1,0.1-0.2,0.1-0.2c0-0.1,0-0.1,0-0.2v-0.2c0-0.1,0-0.1,0.1-0.3c0.1-0.2,0.2-0.3,0.3-0.5c0.1-0.1,0.3-0.2,0.6-0.3
			c0.2,0,0.3,0,0.3,0c0.1,0,0.2,0.1,0.2,0.1c0.3,0.2,0.5,0.4,0.6,0.5c0.3,0.4,0.5,0.7,0.8,1c0.1,0.1,0.3,0.3,0.3,0.3
			c-0.1,0,0,0,0.1,0s0.2-0.1,0.3-0.1c0.2-0.1,0.4-0.2,0.6-0.3c0.2-0.1,0.3-0.2,0.5-0.3c0.3-0.2,0.6-0.5,0.9-0.8
			c0.1-0.2,0.3-0.3,0.4-0.5c0.1-0.1,0.2-0.3,0.3-0.5c0.2-0.4,0.5-0.8,0.6-1.1l0.1-0.4c0.1-0.2,0.2-0.3,0.2-0.4
			c0.2-0.2,0.2-0.3,0.2-0.2c0,0.1,0.1,0-0.2,0c-0.2-0.1-0.4-0.1-0.6-0.2c-0.4-0.2-0.9-0.4-1.3-0.6c-0.2-0.1-0.4-0.2-0.7-0.4
			c-0.1-0.1-0.2-0.2-0.2-0.3c0-0.1-0.1-0.1-0.2-0.2c-0.6-0.6-1.3-1.1-2-1.6c-0.1-0.1-0.2-0.2-0.3-0.2C65.3,20,65.3,20,65.2,20
			l-0.6-0.3l-1.2-0.5C63,19,62.7,19,62.2,18.9l-0.6-0.1l-0.3-0.1h-0.2c-0.1,0-0.2,0-0.3-0.1c-0.4-0.2-0.5-0.4-0.6-0.4
			c-0.1-0.1-0.3-0.1-0.5-0.2l-1.3-0.2L58.8,17z"/>
	</g>
	<g>
		<path class="st1" d="M70.9,25c0.6,0.5,1.3,1.1,1.8,1.8c0.1,0.1,0.1,0.2,0.2,0.3c0.1,0.1,0.1,0.2,0.2,0.3c0.1,0.2,0.1,0.3,0.3,0.5
			c0.2,0.3,0.5,0.6,0.8,0.8c0.6,0.5,1.3,0.9,2,1.5c0.4,0.3,0.6,0.6,0.9,0.8c0.3,0.2,0.7,0.5,1,0.8c0.7,0.6,1.1,1.3,1.7,1.9l1.7,1.8
			l0.8,0.9c0.3,0.3,0.6,0.7,0.8,1.2c0.2,1-0.3,1.9-0.9,2.5c0.3-0.8,0.5-1.7,0.1-2.3c-0.1-0.3-0.3-0.6-0.6-0.9L80.9,36l-1.7-1.9
			c-0.6-0.6-1-1.4-1.6-1.8c-0.3-0.3-0.6-0.5-1-0.7c-0.4-0.3-0.7-0.6-0.9-0.9c-0.6-0.5-1.3-0.9-2-1.5c-0.3-0.3-0.7-0.6-0.9-1
			c-0.1-0.2-0.3-0.5-0.3-0.6s-0.1-0.2-0.1-0.2l-0.2-0.2c-0.5-0.6-1.1-1.2-1.7-1.7L70.9,25z"/>
	</g>
	<g>
		<path class="st1" d="M66.9,28.5c0.5,0.4,1,0.8,1.5,1.2c0.4,0.4,1,0.7,1.5,1.2c1,0.8,2,1.5,3,2.2c0.3,0.2,0.5,0.4,0.8,0.6
			c0.2,0.2,0.5,0.3,0.7,0.5c0.5,0.3,1.1,0.5,1.7,0.8c0.3,0.2,0.6,0.3,0.8,0.5l0.4,0.3c0.1,0.1,0.3,0.2,0.4,0.3
			c0.4,0.5,1,0.9,1.3,1.5c-0.5-0.4-1.1-0.6-1.7-0.9c-0.5-0.3-1.1-0.7-1.6-1s-1.1-0.5-1.7-0.8c-0.3-0.2-0.6-0.3-0.9-0.6
			c-0.2-0.2-0.5-0.3-0.7-0.5c-1.1-0.7-2.1-1.4-3.1-2.3c-0.5-0.4-1-0.7-1.5-1.2c-0.5-0.4-0.9-0.8-1.4-1.2L66.9,28.5z"/>
	</g>
	<path class="st2" d="M74.7,34.7c-0.2-0.4,0.1-1.6,0.3-2c0.3-0.5,1.3-1.5,1.8-1.3"/>
	<path class="st3" d="M72.6,37c0.1-0.1,0.2-0.1,0.3-0.1c0.1,0,0.2,0.1,0.3,0.2c0.1,0.2,0.3,0.3,0.4,0.5c0.1,0.1,0.2,0.2,0.3,0.2
		c0.2,0,0.3-0.2,0.4-0.3c0.6-0.5,1,0.3,1.5,0.3c0.2,0,0.4,0.1,0.6,0.2c0.1,0.1,0.2,0.2,0.4,0.2c0,0,0.1,0,0.1-0.1
		c0.4-0.3,1-0.4,1.5-0.3c0.1,0,0.3,0.1,0.4,0c0.2-0.2,0.2-0.4,0.5-0.4c0.2,0,0.3,0.1,0.5,0.1s0.5,0,0.7,0s0.5,0.2,0.6,0.4
		c0,0.1,0,0.3,0,0.4c0,0.1,0.1,0.2,0.1,0.4c0.2,0.3,0.5,0.6,0.7,1c0.6,0.9,0.6,2.5,0,3.4c-0.2,0.2-0.5,0.6-0.8,0.5L81,43.5
		c-0.4-0.3-0.9-0.4-1.3-0.2s-0.6,0.5-0.7,1c0,0.2,0,0.5-0.1,0.7c-0.2,0.3-0.5,0.4-0.8,0.5c-0.6,0.1-1.1,0.2-1.7,0.2
		c-0.3,0-0.6,0-0.9,0c-0.2,0-0.5,0-0.7-0.1h-0.1c-0.2,0-0.4,0-0.5-0.1c-0.2,0-0.4-0.2-0.7-0.3c-0.3-0.1-0.6-0.2-0.9-0.4
		c-0.4-0.2-0.8-0.5-1.1-0.7c-0.5-0.3-1-0.6-1.5-1c-0.4-0.3-1-0.7-0.6-1.2l0.1-0.1c0-0.1-0.1-0.2-0.1-0.2c-0.3-0.2-0.4-0.5-0.3-0.9
		c0.1-0.3,0.4-0.4,0.4-0.7c0.1-0.3-0.1-0.6-0.1-0.9c0-0.2,0.2-0.3,0.3-0.5c0.2-0.2,0.2-0.4,0.4-0.6c0.1-0.3,0.3-0.5,0.5-0.7
		s0.6-0.4,0.9-0.4s0.6,0.3,0.9,0.3C72.4,37.1,72.5,37,72.6,37z"/>
	<path class="st2" d="M82.4,41.3c0.1-0.4-0.2-0.4-0.5-0.5s-0.6-0.1-1-0.2l0,0c0,0.1,0,0.8,0,0.8c0,0.4-0.1,0.8,0,1.2
		c0.1,0.3,0.3,0.5,0.3,0.7"/>
	<path class="st2" d="M73,41.4c0.1-0.1,0.2-0.2,0.2-0.2c0.1,0,0.2,0.1,0.2,0.2c0,0.1,0,0.1-0.1,0.2c-0.1,0.2-0.3,0.4-0.4,0.6
		c-0.1,0.1-0.3,0.4-0.5,0.4c-0.3,0,0-0.6,0-0.7C72.7,41.7,72.8,41.5,73,41.4z"/>
	<path class="st2" d="M29.3,3.1c-0.3,0.5-0.9,0.4-1.4,0.2c0,0-0.1,0-0.1-0.1c-0.1-0.1-0.1-0.3,0-0.4c0.1-0.1,0.2-0.2,0.4-0.2
		c0.1,0,0.2-0.1,0.3-0.1c0.1,0,0.2-0.1,0.3-0.1c0.1,0,0.3,0.1,0.4,0.1s0.2,0.2,0.3,0.3c0.1,0.1,0.2,0.2,0.2,0.3
		c0.1,0.1,0.1,0.1,0.1,0.2"/>
	<path class="st2" d="M27.3,8.6C27,8.5,26.7,8.2,26.5,8S26.2,7.5,26,7.4s-0.4-0.3-0.5-0.5c-0.2-0.4-0.2-0.9,0.2-1.1
		c0.3-0.2,0.6,0,0.7,0.3c0,0.1,0,0.3,0.1,0.4s0.2,0.2,0.3,0.3c0.3,0.3,0.6,0.5,0.9,0.6c0.2,0.1,0.4,0.2,0.5,0.3
		c0.2,0.1,0.3,0.3,0.3,0.5c0,0.3,0,0.5,0,0.8"/>
	<path class="st2" d="M26,4.9c-0.1,0.2-0.3,0.3-0.5,0.3s-0.3,0-0.4-0.1s0-0.3,0-0.4c0-0.2,0.1-0.3,0.2-0.5c0-0.1,0.1-0.2,0.2-0.3
		c0.2-0.3,0.5-0.5,0.8-0.7s0.7-0.2,1-0.1"/>
	<g>
		<path class="st1" d="M25.2,5.2c0.1,0.1,0.3,0.3,0.3,0.3V5.4l0,0c0,0,0.1-0.1,0.2,0c0.1,0,0.2-0.2,0.4-0.3c0.1,0.2,0.2,0.3,0.2,0.5
			C26.1,5.9,26,6,25.8,6.1c-0.1,0-0.2,0.1-0.4,0c-0.2-0.1-0.3-0.2-0.3-0.3C25,5.5,25.1,5.4,25.2,5.2z"/>
	</g>
	<g>
		<path class="st1" d="M25.4,5.6c-0.1,0.2-0.1,0.5-0.1,0.8S25.2,7,25.2,7.3C25.1,7.6,25,7.9,25,8.1c0,0.2,0,0.6,0,0.9
			c-0.1,0.6-0.1,1.1,0.2,1.5c0.1,0.2,0.4,0.4,0.5,0.8c0.2,0.4,0.1,0.7,0.2,1c0,2.3,0.2,4.7,0.9,6.9c0.4,1.1,0.8,2.2,1.4,3.2
			c0.2,0.5,0.5,1.1,0.8,1.5c0.2,0.2,0.3,0.4,0.5,0.5s0.5,0.3,0.7,0.4c1,0.4,2.1,0.5,3.3,0.5c0.6,0,1.2,0.1,1.8,0.1l0.9,0.1
			c0.3,0,0.6,0.1,0.8,0l0.1,0.4c-0.3,0.1-0.6,0-0.9,0.1h-0.9h-1.8c-1.1,0-2.4,0-3.6-0.6c-0.3-0.1-0.6-0.3-0.8-0.5
			c-0.3-0.2-0.5-0.5-0.6-0.8c-0.3-0.5-0.5-1-0.8-1.6c-0.5-1.1-1-2.1-1.3-3.3c-0.7-2.3-1.1-4.6-1.2-7c0-0.3,0-0.6-0.1-0.7
			c-0.1-0.2-0.3-0.4-0.5-0.7c-0.4-0.7-0.3-1.4-0.3-1.9c0-0.3,0.1-0.5,0.1-0.9c0-0.3,0.1-0.6,0.2-0.9l0.2-0.8
			c0.1-0.3,0.1-0.5,0.3-0.9L25.4,5.6z"/>
	</g>
	<path class="st2" d="M26.7,8.1c-0.1,0.1-0.2,0.3-0.3,0.4c-0.3,0.5-0.6,1-0.6,1.6"/>
	<path class="st2" d="M26.3,10.8c0.3,0.1,0.6,0.1,0.9,0.1c0.4-0.1,0.8-0.2,0.9-0.5"/>
</g>
</svg>
