<?xml version="1.0" encoding="utf-8"?>
<!-- Generator: Adobe Illustrator 21.0.0, SVG Export Plug-In . SVG Version: 6.00 Build 0)  -->
<svg version="1.1" id="pitcher2_1_" xmlns="http://www.w3.org/2000/svg" xmlns:xlink="http://www.w3.org/1999/xlink" x="0px"
	 y="0px" viewBox="0 0 100 100" style="enable-background:new 0 0 100 100;" xml:space="preserve">
<style type="text/css">
	.st0{fill:#5C7DB1;fill-opacity:0.5;}
	.st1{fill:#5C7DB1;}
	.st2{fill:#5C7DB1;stroke:#5C7DB1;stroke-width:0.25;stroke-miterlimit:10;}
	.st3{fill:none;stroke:#5C7DB1;stroke-width:0.25;stroke-miterlimit:10;}
	.st4{fill:none;stroke:#5C7DB1;stroke-width:0.75;stroke-miterlimit:10;}
</style>
<g id="pitcher2">
	<path class="st0" d="M41.2,32.6c0.2,0.1,0.3,0.2,0.3,0.3c0,0.3-0.6,0.8-0.8,1.1c-0.3,0.5-0.4,1.2-0.8,1.7c-0.2,0.3-0.6,0.5-0.8,0.8
		s-0.2,0.7-0.4,1c-0.1,0.1-0.2,0.2-0.3,0.2c-0.1,0.2-0.2,0.4-0.2,0.6c-0.3,1.5-1.7,2.5-2.6,3.7c-0.4,0.4-0.9,1-1.1,1.5
		c-0.1,0.3-0.2,0.5-0.2,0.8c-0.1,0.7-0.2,1.4-0.2,2c0,0.4-0.1,0.8-0.1,1.1c0,0.2,0.1,0.7,0,0.9c0,0.1-0.1,0.2-0.1,0.3
		c-0.2,0.4-0.2,0.9-0.2,1.4c0,0.3,0,0.7,0.3,1c0.2,0.2,0.1,0.3,0,0.5s-0.1,0.3,0,0.5c0.2,0.3,0.4,0.6,0.3,1
		c-0.1,0.5-0.4,0.9-0.6,1.3c-0.1,0.2,0,0.3-0.1,0.6c0,0.2-0.2,0.5-0.2,0.7c-0.2,0.4-0.2,0.9-0.3,1.4c-0.2,0.8-0.2,1.7-0.4,2.5
		c-0.1,0.5-0.4,1-0.6,1.5c-0.2,0.5-0.4,0.9-0.6,1.4c-0.1,0.4-0.2,0.8-0.5,1.1c-0.8,0.7-1.6,1.2-2.5,1.6c-0.5,0.2-1.1,0.5-1.6,0.7
		c-0.9,0.3-1.9,0.5-2.8,0.9c-1.8,0.8-2.9,1.2-4.6,2.1c-0.4,0.2-0.9,0.5-1.3,0.7c-1.5,0.7-3.1,1.2-4.6,1.6c-0.5,0.1-0.9,0.2-1.4,0.3
		c-0.5,0.1-1,0.1-1.4-0.1c-0.2-0.1-0.4-0.2-0.6-0.1c0,0-0.1,0-0.1,0.1c-0.1,0-0.1,0.1-0.2,0.1c-0.1,0-0.2,0-0.3,0
		c-0.2,0-0.5,0-0.7-0.1c-0.1,0-0.1,0-0.2-0.1c-0.1-0.1-0.1-0.1-0.2-0.2c-0.1,0-0.1,0-0.2,0c-0.2-0.1-0.3-0.2-0.5-0.2
		c-0.6-0.2-1.3-0.3-2-0.2c-0.4,0-0.8,0.2-1.1,0.4c-0.1,0.1-0.2,0.2-0.3,0.3c-0.1,0.1-0.1,0.2-0.2,0.3c-0.2,0.2-0.5,0-0.7,0.2
		s-0.3,1.2,0.1,1c0,0.4-0.3,2.1-0.2,2.3c0,0.2-0.3,0.2-0.4,0.3c-0.1,0-0.1,0-0.2,0.1c-0.1,0.1-0.2,0.4-0.1,0.6
		c0,0.4,0.1,0.2,0.3,0.3c0.5,0.2,0.4,1.2,0.4,1.5c0,0.4,0.1,1.4-0.2,1.8c-0.1,0.1-0.2,0.1-0.3,0.1s-0.2,0-0.2,0.1
		c-0.1,0.1-0.1,0.2-0.1,0.4c0,0.2,0,0.4,0,0.5c0,0,0.3,0.1,0.3,0.2c0.1,0.1,0,0.3,0.1,0.4c0,0.3,0,0.7,0,1c0,0.1,0,0.2,0,0.3
		c0,0.1-0.1,0.1-0.1,0.1c0,0.1,0,0.2,0,0.3c0,0.1,0,0.1,0,0.2c0,0.2,0.2,0.2,0.3,0.3c0.2,0.2,0.2,0.4,0.2,0.6s0,0.4,0.1,0.6
		c0,0.2,0.1,0.3,0.2,0.4c0.2,0.3,0.4,0.5,0.7,0.6c0.2,0.1,0.4,0.1,0.6,0.1s0.4,0,0.6-0.1c0.3-0.1,0.5-0.4,0.7-0.6
		c0.2-0.3,0.3-0.6,0.4-0.8c0.1-0.4,0.2-0.8,0.4-1.2c0.3-0.8,0.7-1.5,1.2-2.2c0.3-0.4,0.6-0.7,1-0.9c0.2-0.1,0.8-0.3,1-0.2
		c0.3,0.2,0,0.6,0.2,0.9c0.1,0.1,0.2,0.1,0.4,0.1c0.4,0,0.8,0.1,1.2,0.1c0.1,0,0.2,0,0.4,0c0.2-0.1,0.4-0.2,0.5-0.4
		c0.4-0.3,0.8-0.5,1.3-0.5c0.4,0,0.8,0.1,1.2,0s0.7-0.3,1-0.5c2.8-1.9,6.2-2.8,9-4.6c0.7-0.4,1.3-0.9,2-1.1c0.8-0.3,1.7-0.2,2.6-0.3
		c0.9,0,1.8-0.2,2.4-0.8c0.2-0.2,0.3-0.3,0.5-0.5c0.9-0.5,1.8,0.2,2.6-0.8c0.1-0.2,0.2-0.4,0.4-0.5s0.4-0.1,0.6-0.2
		c0.2-0.1,0.3-0.3,0.5-0.5c0.4-0.3,0.6-0.3,1-0.7c0.5-0.5,0.9-1.1,1.4-1.6c0.9-1.1,1.9-2.2,2.8-3.2c0.3-0.4,0.7-0.8,1-1.2
		c1.5-1.7,3-3.5,4.6-5.2c0.1-0.1,0.2-0.2,0.3-0.2s0.5,0.5,0.6,0.6c0.6,0.6,1.1,1.3,1.7,1.9c0.8,0.8,1.5,1.6,2.2,2.4
		c0.2,0.2,0.5,0.5,0.6,0.8c0.1,0.2,0.2,0.4,0.3,0.5c0.2,0.1,0.4,0.1,0.5,0.2c0.2,0.1,0.3,0.4,0.4,0.7c0.3,0.7,1.1,0.9,1.7,1.3
		c0.1,0.1,0.2,0.2,0.3,0.3c0.1,0.2,0,0.4,0,0.5c0.1,0.2,0.2,0.4,0.3,0.6c0.2,0.4,0.5,0.9,0.7,1.4c0.4,0.9,0.7,1.9,0.8,2.9
		c0.1,0.9,0.5,1.6,0.9,2.3c0.1,0.3,0.3,0.5,0.5,0.7s0.4,0.3,0.6,0.5c0.5,0.5,0.4,1.3,0.6,2c0.2,0.7,0.6,1.4,0.7,2.2
		c0,0.5-0.1,1.1,0.3,1.4c0.2,0.1,0.4,0.2,0.5,0.4c0.1,0.3-0.2,0.5-0.2,0.8c0,0.4,0.4,0.7,0.7,1c0.4,0.4,0.5,1,0.3,1.5
		s-0.6,1-0.6,1.5c0.1,0.4-0.2,0.9-0.3,1.4c-0.1,0.2-0.1,0.5,0,0.7c-0.3,0.5-0.3,0.7-0.3,1c0,0.5-0.2,0.8,0.1,1.3
		c0.2,0.4,0.7,0.6,1.1,0.7c0.7,0.2,1.3,0.1,2,0.1s1.3,0.1,2,0.2c1.2,0.1,2.3,0.2,3.5,0.2c1.6,0,3.2,0.2,4.7,0.3
		c0.7,0.1,1.5,0.2,2.2,0.1c0.8-0.1,2.6-0.5,1.9-1.6c-0.2-0.3-0.5-0.5-0.8-0.6C77.2,89.5,75.4,89,74,88c-0.5-0.3-0.9-0.8-0.9-1.4
		c0-0.2,0-0.3,0-0.5s-0.1-0.3-0.2-0.5c-0.2-0.4-0.2-0.9-0.4-1.3c-0.2-0.8-0.8-1.3-1.1-2c-0.4-0.9-0.8-1.7-1.3-2.5
		c-1-1.6-2.5-3.6-2.5-5.6c0-0.7-0.2-1.5-0.6-2.1c-0.2-0.4-0.5-0.7-0.8-1c-0.5-0.6-0.8-1.3-1.1-2c-0.2-0.7-0.2-1.2-0.2-1.9
		c0-0.3-0.1-0.6-0.3-0.9c-0.2-0.3-0.4-0.6-0.6-1c-0.2-0.4-0.2-0.7-0.1-1c0.1-0.3,0.2-0.6,0.1-0.9c-0.1-0.5-0.3-0.9-0.5-1.3
		c-0.4-0.9-1-1.8-1.6-2.7c-0.4-0.6-0.9-1.2-1.3-1.9c-0.6-0.8-1.1-1.7-1.7-2.5c-0.5-0.6-1-1.1-1.5-1.7c-0.4-0.5-0.8-0.9-1.1-1.5
		c-0.7-1.2-1.5-2.4-2.6-3.2c-0.4-0.3-0.8-0.6-1.2-0.8s-0.9-0.6-1.2-1c-0.1-0.1-0.1-0.2-0.1-0.3s0.6-1.4,0.6-1.6
		c0-0.2,0.2-0.3,0.3-0.5c0.3-0.3,0.6-0.6,0.8-1c0.1-0.2,0.2-0.3,0.2-0.5c0.6-0.1,1.1,0.3,1.7,0.4c0.4,0,0.8-0.1,1-0.3
		s0.5-0.4,0.6-0.7c0.2-0.2,0.3-0.5,0.3-0.8c0-0.1,0-0.1,0-0.2c0,0,0,0,0.1,0c0.2-0.1,0.5,0,0.6,0.1c0.2,0.1,0.3,0.2,0.5,0.3
		c0.3,0.1,0.6,0.3,0.9,0.3c0.3,0,0.5,0,0.7-0.1c0.1,0.1,0.2,0.1,0.3,0.2c0.6,0.6,1,0.9,1.9,0.7c0.5-0.1,0.8-0.1,1.1-0.5
		c0.2-0.3,0.3-0.6,0.5-0.8c0.5-0.4,1.3-0.1,1.8-0.5c0.4-0.3,0.6-0.8,1-0.9c0.2,0,0.3,0,0.5,0c0.6-0.1,0.9-0.7,0.9-1.3
		c0-0.2,0-0.4,0.1-0.6c0.1-0.2,0.3-0.3,0.4-0.4c0.7-0.6,0.8-1.6,0.8-2.4c0-0.3,0-0.6-0.1-0.9c-0.1-0.2-0.2-0.4-0.3-0.6
		c-0.1-0.2-0.2-0.3-0.3-0.5c-0.5-0.9-1.2-1.4-2.1-2c-0.6-0.4-1.2-0.6-1.9-0.9c-0.3-0.1-0.7-0.3-1,0c-0.2,0.1-0.4,0.5-0.6,0.4h-0.1
		v-0.1c0.3-0.7,0.7-1.1,1.3-1.6c0.6-0.5,1.2-1,1.7-1.6c0.1-0.2,0.3-0.3,0.4-0.4s0.3-0.1,0.4-0.2c0.5-0.2,1-0.5,1.4-0.9
		c0.3-0.3,0.6-0.6,0.8-0.8c0.2-0.2,0.5-0.7,0.7-0.8c0.3-0.1,1,0.2,1.4,0.3c0.5,0.1,1,0.5,1.5,0.7c0.2,0.1,0.5,0.2,0.8,0.2
		c0.2,0,0.5-0.2,0.6-0.4c0.2-0.2,0.4-0.5,0.6-0.8c0.1,0,0.1,0,0.2,0c1.3,0.1,2,0.3,3.3,0.4c0.7,0.1,4.1,0.5,4.5,0.7
		c1.5,0.8,3.5,2.3,4,2.7c0.5,0.5,1.5,1.4,1.8,1.7c0.8,0.7,1.6,1.7,2.4,2.3c0.6,0.4,1,1,1.5,1.4s0.9,1.1,0.9,1.8c0,0.5-0.2,1.1,0,1.6
		c0.2,0.7,0.9,1.1,0.9,1.8c0,0.3-0.1,0.7,0.2,0.8c0.1,0.1,0.3,0.1,0.5,0.1c0.3,0.1,0.3,0.4,0.5,0.5c0.2,0.2,0.6,0.3,0.8,0.3
		c0.1,0,0.3,0,0.4-0.1s0.2-0.2,0.4-0.3c0.3-0.3,0.6-0.6,0.6-1c0-0.1,0-0.3-0.1-0.4s0-0.3,0.2-0.3c0.1,0,0.2,0,0.3,0
		c0.5,0,0.8-0.5,0.8-0.9c0-0.3-0.1-0.6-0.2-1s-0.3-0.8-0.5-1c-0.3-0.4-0.7-0.6-1-0.9c-0.3-0.4-0.7-0.7-1.1-1
		c-0.3-0.4-0.7-0.7-0.9-1.1c-0.4-0.6-0.7-1.3-1.1-1.9c-0.4-0.8-0.9-1.5-1.4-2.2c-0.4-0.6-1.4-2.3-2.6-3.6c-0.7-0.7-3.5-2.9-4.2-3.3
		c-0.5-0.3-1.9-1.2-2.7-1.5c-1-0.3-5.5-1.3-7.8-1.4h-0.1c0-0.1,0-0.3-0.1-0.4s-0.2-0.1-0.3-0.1c-0.6-0.1-1.1-0.2-1.6-0.3
		c-0.4-0.1-0.9-0.1-1.3-0.2c-0.3-0.1-0.7-0.1-0.9-0.2c-0.5-0.3-1.3-0.4-1.2-1.1c0-0.5-0.1-0.9-0.3-1.4c-0.1-0.3-0.4-0.6-0.1-0.9
		c0.1-0.1,0.2-0.2,0.3-0.2c0.3-0.1,0.7-0.3,1-0.4c0.8-0.3,1.7-0.7,2.2-1.4c0.1-0.2,0.2-0.5,0.1-0.7s-0.3-0.2-0.5-0.3
		c-0.6-0.1-1.3,0-1.9,0s-1,0-1.2-0.6C68.3,9.6,67.9,8.6,67,8c-1.4-1.1-3-1.7-4.8-1.1c-0.9,0.3-1.7,0.8-2.5,1.3
		c-0.6,0.4-1.2,0.8-1.5,1.4c-0.1,0.3-0.2,0.7-0.3,1c-0.1,0.6-0.2,1.2-0.2,1.7c0,0.6,0.2,1.1,0.3,1.7c0.1,0.7,0.6,1.9-0.1,2.4
		c-0.5,0.4-1.1,0.7-1.6,1c-0.8,0.4-1.7,0.4-2.5,0.7c-0.3,0.1-0.6,0.3-1,0.4c-1,0.2-1.8,0.9-2.8,1.1c-0.9,0.2-1.7,1.1-2.3,1.8
		c-0.4,0.4-0.7,0.9-1,1.4c-0.2,0.3-0.4,0.6-0.7,0.9s-0.8,0.4-1.2,0.6c-0.8,0.4-1.5,0.8-2.2,1.4c-0.3,0.3-0.6,0.6-0.8,1
		c-0.2,0.3-0.3,0.7-0.5,1c-0.3,0.6-0.7,1.1-1.2,1.5c-0.4,0.4-1.1,1-0.9,1.6c0.2,0.6,0.8,1.1,1.3,1.4C40.9,32.4,41.1,32.5,41.2,32.6z
		"/>
	<g>
		<path class="st1" d="M65.5,14.5c0,0.1,0.1,0.1,0.1,0.2c0,0.1-0.1,0.2-0.2,0.2c-0.2,0.1-0.4-0.1-0.5-0.1c-0.2-0.2-0.4-0.4-0.6-0.6
			c-0.1-0.2-0.2-0.5-0.3-0.7c-0.1-0.2-0.3-0.5-0.3-0.8c-0.1-0.5-0.1-1.1,0.3-1.7c0.1-0.1,0.3-0.2,0.5-0.2s0.4,0.1,0.5,0.2
			c0.1,0.1,0.2,0.2,0.3,0.3c0.1,0.1,0.1,0.3,0.1,0.4l0,0c-0.1-0.3-0.3-0.3-0.5-0.4c-0.2-0.1-0.3,0-0.4,0.1c-0.3,0.3-0.3,0.8-0.4,1.3
			s0.3,0.9,0.7,1.3c0.2,0.2,0.3,0.4,0.5,0.6C65.3,14.7,65.4,14.9,65.5,14.5L65.5,14.5z"/>
	</g>
	<g>
		<path class="st2" d="M68.5,11c-0.1-0.7-0.5-1.4-0.9-2c-0.2-0.3-0.4-0.6-0.7-0.8C66.6,8,66.3,7.7,66,7.6c-1.2-0.7-2.9-0.7-4.3-0.2
			c-0.7,0.3-1.4,0.7-2,1.1c-0.3,0.2-0.6,0.5-0.9,0.7c-0.3,0.3-0.4,0.6-0.5,0.9c-0.3,1.4-0.3,3.2,0.2,4.4c0,0,0.9-1.4,1.7-1.9
			c0.4-0.2,0.8-0.4,1.3-0.6c0.4-0.1,0.8-0.3,1.4-0.4l0,0l0.6-0.1l0.3-0.1c0.1,0,0.2,0,0.3-0.1V12l-0.5,0.2l-0.5,0.2l0,0
			c-0.4,0.1-0.8,0.3-1.2,0.4c-0.4,0.2-0.8,0.3-1.2,0.6c-0.7,0.4-1.5,0.9-1.9,1.6l0,0c-0.1,0.1-0.3,0.2-0.4,0.1L58.3,15
			c-0.1-0.2-0.1-0.2-0.1-0.2v-0.2l-0.1-0.3c0-0.2-0.1-0.4-0.1-0.6c0-0.4,0-0.8,0-1.2c0.1-0.8,0-1.6,0.3-2.4C58,11,58.3,9.3,58.6,9
			s0.6-0.5,0.9-0.8c0.6-0.5,1.3-0.9,2-1.3c0.7-0.3,1.6-0.5,2.4-0.6s1.7,0.1,2.4,0.6c0.4,0.2,0.7,0.4,1,0.7c0.3,0.3,0.6,0.6,0.8,1
			c0.4,0.7,0.8,1.4,0.8,2.3L68.5,11z"/>
	</g>
	<g>
		<path class="st1" d="M68.9,16.5c0,0,0-0.5-0.1-0.5c-0.2-0.2-0.3-0.5-0.4-0.8c-0.1-0.2-0.1-0.3-0.1-0.5s0-0.3,0.1-0.4
			c0-0.3,0.1-0.7,0.2-0.9c0-0.1,0-0.3,0.1-0.4c0.1-0.1,0.1-0.2,0.1-0.4c0-0.1,0-0.2,0-0.3s-0.1-0.1-0.2-0.1
			c-0.2-0.1-0.5-0.1-0.8-0.2c-0.3-0.1-0.5-0.2-0.8-0.4l0.1-0.4c0.3-0.1,0.7,0,0.9,0.1c0.2,0.1,0.6,0.1,0.9,0.4
			c0.1,0.1,0.3,0.3,0.4,0.5c0,0.2,0,0.4,0,0.5c0,0.2-0.1,0.3-0.2,0.5c-0.1,0.1,0,0.2-0.1,0.4c-0.1,0.3-0.1,0.5-0.1,0.8
			c0,0.1,0,0.4,0,0.4c0,0.1,0.1,0.2,0.1,0.3l0.3,0.8c0,0.1,0.1,0.2,0.1,0.3c0,0.1,0,0.2,0,0.3c0,0.2,0,0.3-0.2,0.6L68.9,16.5z"/>
	</g>
	<g>
		<path class="st1" d="M65,8.5c-0.3,0-0.6,0.3-0.7,0.5c-0.1,0.3-0.1,0.5-0.1,0.8s0.1,0.6,0.4,0.8s0.6,0.2,0.9,0.1
			c0.3-0.1,0.6-0.3,0.7-0.5s0.1-0.4,0.1-0.7c-0.1-0.3-0.2-0.5-0.4-0.7C65.6,8.6,65.3,8.4,65,8.5z M65,8.4c0.3,0,0.7-0.1,1,0
			c0.4,0.1,0.7,0.4,0.8,0.8c0.1,0.4,0.1,0.8-0.2,1.2c-0.3,0.3-0.6,0.4-1,0.4c-0.7,0.1-1.4-0.2-1.7-1c-0.1-0.3-0.1-0.8,0.2-1.1
			C64.3,8.6,64.7,8.5,65,8.4z"/>
	</g>
	<path class="st3" d="M66.6,36.2c-0.4-0.1-0.7-0.2-1.1-0.3c-0.6-0.2-1-0.3-1.3-0.8c-0.2-0.2-0.3-0.4-0.3-0.7"/>
	<path class="st4" d="M53.3,42.9c0.6-0.1,1.1,0.3,1.7,0.4c0.4,0,0.8-0.1,1-0.3s0.5-0.4,0.6-0.7c0.2-0.2,0.3-0.5,0.3-0.8
		c0.1-0.4,0.1-0.9,0.1-1.4c0-0.1,0-0.1,0-0.2c0-0.1,0.1-0.2,0.2-0.3c0.2-0.2,0.4-0.5,0.6-0.7c0.8-0.7,1.3-1.6,1.8-2.6
		c0.3-0.7,0.7-1.3,1-2c0.1-0.2,0.2-0.4,0.3-0.6c0.2-0.3,0.3-0.7,0.5-1c0.5-0.7,1.1-1.2,1.5-2c0.3-0.7,0.7-1.1,1.3-1.6
		c0.6-0.5,1.2-1,1.7-1.6c0.1-0.2,0.3-0.3,0.4-0.4s0.3-0.1,0.4-0.2c0.5-0.2,1-0.5,1.4-0.9c0.3-0.3,0.6-0.6,0.8-0.8
		c0.2-0.2,0.5-0.7,0.7-0.8c0.3-0.1,1,0.2,1.4,0.3c0.5,0.1,1,0.5,1.5,0.7c0.2,0.1,0.5,0.2,0.8,0.2c0.2,0,0.5-0.2,0.6-0.4
		c0.7-0.7,0.9-1.7,0.9-2.7c0-0.7-0.1-1.4-0.2-2.1c-0.1-0.6-0.2-1.2-0.2-1.8c0-0.2,0-0.4-0.1-0.5S74.1,18,74,18
		c-0.6-0.1-1.1-0.2-1.6-0.2c-0.4-0.1-0.9-0.1-1.3-0.2c-0.3-0.1-0.7-0.1-0.9-0.2c-0.6-0.3-1.1-0.7-1.7-0.8c-0.8-0.2-1.6-0.3-2.5-0.3
		c-0.4,0-0.8,0-1.2,0c-0.4,0.1-0.7,0.2-1.1,0.2c-0.3,0-0.6-0.2-0.9-0.3c-0.8-0.4-1.6-0.6-2.4-0.7c-0.6,0-1.6,0-2.1,0.4
		c-0.6,0.5-1.4,1-2.1,1.4c-0.8,0.4-1.7,0.4-2.5,0.7c-0.3,0.1-0.6,0.3-1,0.4c-1.1,0.5-2.3,0.9-3.3,1.7c-0.9,0.7-1.7,1.6-2.5,2.6
		c-0.4,0.5-0.7,1-1,1.6c-0.8,1.5-1.7,3.1-2.5,4.6c-0.2,0.4-0.5,0.8-0.6,1.3c-0.3,0.7-0.5,1.4-0.9,2c-0.2,0.3-0.2,0.7-0.4,1
		c-0.1,0.2-0.3,0.3-0.4,0.4c-0.1,0.1-0.2,0.3-0.3,0.5c-0.2,0.5-0.4,1-0.5,1.5"/>
	<path class="st4" d="M93.9,39L93.9,39c0-0.3,0-0.5-0.2-0.6c-0.2-0.2-0.3-0.3-0.4-0.6c-0.1-0.2-0.3-0.4-0.4-0.6
		c-0.2-0.4,0-1-0.1-1.4s-0.1-0.9-0.2-1.3c-0.1-0.2-0.2-0.4-0.3-0.6c-0.1-0.2-1.1-1.2-1.5-1.6c-0.8-0.7-1.7-1.6-2.4-2.3
		c-0.3-0.3-1.3-1.2-1.8-1.7s-2.5-1.9-4-2.7c-0.4-0.2-3.8-0.6-4.5-0.7c-1.3-0.1-2-0.4-3.3-0.4"/>
	<g>
		<path class="st1" d="M74.5,18.4c1.6,0,3.2,0.3,4.7,0.5c0.8,0.1,1.6,0.3,2.3,0.5c0.4,0.1,0.8,0.2,1.2,0.3c0.4,0.2,0.8,0.4,1.1,0.6
			c1.4,0.8,2.6,1.8,3.8,2.8c0.6,0.5,1.2,1,1.8,1.6c0.6,0.6,1,1.2,1.5,1.9c0.9,1.3,1.7,2.6,2.6,4c0.4,0.7,0.7,1.4,1.2,2l0.8,0.9
			c0.3,0.3,0.6,0.5,0.9,0.8s0.5,0.5,0.9,0.8c0.3,0.2,0.7,0.6,0.8,1l0.2,0.6c0.1,0.2,0.2,0.4,0.2,0.7s-0.1,0.5-0.2,0.8
			c-0.1,0.1-0.2,0.2-0.3,0.3c-0.1,0.1-0.3,0.2-0.4,0.2c-0.2,0-0.2,0.2-0.2,0.7c0,0.3-0.2,0.5-0.4,0.7c-0.2,0.1-0.3,0.2-0.4,0.4
			c-0.1,0.1-0.4,0.4-0.7,0.4c-0.2,0-0.3-0.1-0.4-0.1l-0.3-0.1l-0.5-0.2c-0.2-0.1-0.4-0.1-0.6-0.3l0.3-0.3c0.1,0.1,0.3,0.1,0.5,0.1
			l0.6,0.2l0.3,0.1c0.1,0,0.1,0.1,0.2,0.1c0,0,0.1,0,0.2-0.2s0.3-0.3,0.4-0.5c0.1-0.1,0.1-0.2,0.2-0.4c0-0.1,0-0.3,0-0.6
			c0-0.1,0.1-0.3,0.2-0.4c0.1-0.1,0.3-0.2,0.4-0.2c0.2,0,0.4-0.4,0.4-0.6c0-0.2-0.2-0.6-0.4-1c-0.1-0.3-0.3-0.5-0.6-0.8
			c-0.3-0.2-0.6-0.6-0.9-0.8c-0.3-0.3-0.6-0.5-0.8-0.9l-0.8-0.9c-0.5-0.6-0.8-1.4-1.2-2.1c-0.8-1.3-1.7-2.7-2.5-4
			c-0.5-0.6-0.9-1.2-1.5-1.8c-0.5-0.5-1.2-1-1.8-1.5c-0.6-0.5-1.3-0.9-1.9-1.4c-0.6-0.4-1.3-0.8-2-1.2c-0.3-0.2-0.7-0.4-1-0.5
			s-0.7-0.2-1.1-0.3c-0.8-0.2-1.5-0.4-2.3-0.5c-1.5-0.3-3.1-0.6-4.6-0.8L74.5,18.4z"/>
	</g>
	<path class="st4" d="M58.5,38.3c-0.1,0.2,0,0.5,0.1,0.7s0.3,0.4,0.4,0.6c0.2,0.3,0.2,0.6,0.3,1c0.1,0.3,0.2,0.6,0.4,0.9
		c0.1,0.1,0.2,0.3,0.3,0.4c0.1,0.1,0.2,0.1,0.3,0.2c0.3,0.3,0.5,0.6,0.9,0.7c0.2,0.1,0.5,0.1,0.7,0.1s0.4,0,0.6-0.1
		c0.2-0.1,0.3-0.2,0.4-0.4c0.3-0.4,0.5-0.9,0.9-1.1c0.1,0,0.2,0,0.4,0c0.6,0,1.1-0.3,1.5-0.7c0.2-0.2,0.3-0.5,0.4-0.6
		c0.2-0.2,0.7,0,0.9-0.1c0.3-0.1,0.5-0.4,0.6-0.7s0.1-0.6,0.1-1c0-0.2,0.1-0.5,0.3-0.5c0.1,0,0.2,0,0.3,0c0.1,0,0.2-0.2,0.2-0.3
		c0.1-0.7,0.3-1.4,0.3-2.1c0-0.4,0.1-1.1-0.2-1.4c-0.1-0.1-0.2-0.1-0.2-0.2c-0.2-0.2-0.3-0.5-0.4-0.8c-0.3-0.6-0.8-1.1-1.4-1.5
		s-1.2-0.6-1.9-0.9c-0.3-0.1-0.7-0.3-1,0c-0.2,0.1-0.4,0.5-0.6,0.4"/>
	<g>
		<path class="st1" d="M66.1,39.9c0,0,0-0.1,0-0.2c0-0.1,0-0.3,0-0.4c0-0.2-0.1-0.4-0.2-0.6c-0.1-0.4-0.4-0.9-0.4-1.4
			c0.1-0.5,0.4-0.9,0.8-1.2c0.2-0.1,0.4-0.3,0.6-0.3c0.2-0.1,0.5,0,0.7,0.1V36c-0.4-0.3-0.8,0-1.1,0.3c-0.3,0.3-0.6,0.7-0.6,1.1
			c0,0.4,0.2,0.8,0.4,1.2l0.2,0.3c0.1,0.1,0.1,0.3,0.1,0.4c0,0.1,0,0.2,0,0.3s0,0.3-0.1,0.5L66.1,39.9z"/>
	</g>
	<g>
		<path class="st1" d="M67.9,37.7c-0.1-0.2-0.1-0.4-0.1-0.6c0-0.2-0.1-0.3-0.2-0.6c-0.1-0.2-0.1-0.4-0.2-0.6
			c-0.1-0.2-0.2-0.4-0.3-0.6c-0.1-0.4-0.1-1,0.2-1.4c0.2-0.2,0.4-0.3,0.7-0.4c0.3-0.1,0.6,0,0.8,0.3L68.5,34c-0.2-0.2-0.6,0-0.8,0.2
			c-0.3,0.2-0.4,0.6-0.3,1c0.1,0.2,0.2,0.3,0.3,0.5c0.1,0.2,0.3,0.4,0.4,0.6c0.1,0.2,0.2,0.4,0.2,0.7c0,0.2,0,0.5-0.1,0.7H67.9z"/>
	</g>
	<g>
		<path class="st1" d="M65.7,38.7c-0.2,0.2-0.4,0.4-0.6,0.6c-0.1,0.1-0.2,0.2-0.3,0.3c-0.1,0.1-0.3,0.1-0.5,0l0,0
			c0.1-0.2,0.1-0.3,0.2-0.4c0.1-0.1,0.2-0.1,0.4-0.2C65.1,38.9,65.4,38.7,65.7,38.7L65.7,38.7z"/>
	</g>
	<g>
		<path class="st1" d="M67.5,36.7v0.4c0,0.1-0.1,0.3-0.2,0.4c-0.1,0.1,0,0.1-0.2,0.2c-0.1,0.1-0.3,0.3-0.5,0.1l0,0
			c0.1-0.2,0-0.2,0.1-0.3c0-0.1,0.2-0.3,0.4-0.3C67.2,37.2,67.3,36.9,67.5,36.7L67.5,36.7z"/>
	</g>
	<g>
		<path class="st1" d="M63.5,40.2c-0.2,0.5-0.5,0.7-0.9,1.1c-0.4,0.3-0.8,0.6-1.3,0.6c0.3-0.4,0.6-0.6,1-0.9
			C62.6,40.6,63,40.4,63.5,40.2z"/>
	</g>
	<g>
		<path class="st1" d="M68.4,34.4c-0.1,0.2,0,0.4-0.2,0.6c0,0.1-0.1,0.1-0.2,0.2c-0.1,0-0.1,0-0.1,0c-0.1,0-0.1,0-0.3,0.1l0,0
			c-0.1-0.2,0-0.3,0.1-0.4c0.2-0.2,0.2-0.1,0.3-0.1C68.1,34.8,68.2,34.5,68.4,34.4L68.4,34.4z"/>
	</g>
	<g>
		<path class="st1" d="M60.3,42.4c0-0.2-0.1-0.4-0.1-0.7c0-0.2,0.1-0.5,0.2-0.7c0.2-0.4,0.5-0.8,0.8-1.1c0.4-0.3,0.8-0.5,1.2-0.6
			c0.2-0.1,0.4-0.1,0.7-0.1c0.1,0,0.2,0.1,0.4,0.1c0.1,0,0.3,0.1,0.3,0.2h-0.1c-0.1-0.1-0.3,0-0.5,0.1c-0.2,0-0.4,0.1-0.6,0.1
			c-0.4,0.1-0.8,0.3-1.1,0.5c-0.3,0.3-0.6,0.6-0.7,0.9c-0.1,0.2-0.1,0.3-0.1,0.5c-0.1,0.2-0.1,0.4-0.2,0.6L60.3,42.4z"/>
	</g>
	<g>
		<path class="st1" d="M65.8,37.8c-0.3-0.2-0.8-0.1-1.1,0.1c-0.4,0.2-0.6,0.6-0.7,0.9c-0.1,0.4-0.1,0.8,0,1.2s0.4,0.8,0.5,1.1
			L64,41.4c-0.2-0.4-0.4-0.8-0.5-1.3s0-0.9,0.1-1.4c0.2-0.4,0.5-0.8,0.9-1S65.4,37.4,65.8,37.8L65.8,37.8z"/>
	</g>
	<path class="st4" d="M49.4,52.4c0,0.8-0.1,2.1-0.2,2.9c-0.1,0.8-0.4,1.3-0.9,2c-0.2,0.3-0.4,0.7-0.7,1c-0.3,0.4-0.6,0.7-0.9,1.1
		c-0.5,0.5-1.1,1.1-1.5,1.7c-0.4,0.6-0.7,1.2-1.2,1.8s-0.9,1.1-1.4,1.6c-0.5,0.6-1.1,1.2-1.6,1.7c-0.2,0.2-0.4,0.5-0.7,0.7
		s-0.5,0.4-0.7,0.6c-0.3,0.3-0.4,0.7-0.6,1c-0.1,0.2-0.3,0.3-0.4,0.5c-0.1,0.1-0.2,0.3-0.3,0.5c-0.2,0.4-0.6,0.9-1,0.9
		c-0.1,0-0.3,0-0.4,0c-0.3,0.1-0.2,0.4-0.4,0.6c-0.1,0.1-0.2,0.2-0.3,0.2c-0.1,0.1-0.2,0.1-0.4,0.2c-0.1,0-0.3,0-0.4,0.1
		c-0.2,0.1-0.2,0.3-0.3,0.5c0,0.1-0.1,0.2-0.2,0.3c-0.1,0.2-0.4,0.2-0.6,0.2c-0.3,0-0.5,0-0.8-0.1c-0.1,0-0.3-0.1-0.4-0.1
		c-0.4,0-0.5,0.4-0.7,0.7c-0.4,0.4-1.2,0.6-1.7,0.7c-0.7,0.2-1.5,0.3-2.2,0.2c-0.3,0-0.6,0-0.8,0c-0.4,0.1-0.6,0.2-0.9,0.4
		c-1,0.7-2.1,1.2-3.2,1.7c-0.5,0.2-0.8,0.6-1.3,0.8c-0.5,0.2-0.9,0.4-1.4,0.6c-0.9,0.4-1.9,0.8-2.8,1.4c-0.1,0.1-0.3,0.2-0.4,0.3
		c-0.3,0.1-0.6,0.2-0.9,0.3c-0.2,0.1-0.4,0.2-0.6,0.3c-0.2,0.2-0.4,0.4-0.7,0.5c-0.4,0.2-0.6,0-1-0.1c-0.3-0.1-0.6,0-0.9,0.2
		c-0.3,0.1-0.5,0.3-0.7,0.5s-0.5,0.3-0.8,0.3c-0.2,0-0.4-0.1-0.6-0.1c-0.3,0-0.5,0.1-0.7,0c-0.1,0-0.1,0-0.1-0.1v-0.1
		c0-0.4-0.1-0.7-0.1-1.1c0-0.3-0.1-0.6-0.1-0.8c0-0.3,0-0.7,0-1c0-0.2-0.1-0.4-0.1-0.6s0-0.4-0.1-0.5c0-0.1-0.1-0.3-0.1-0.4
		C10,76.2,10,76,10,75.8c0-0.7,0-1.4,0-2.1c0-0.6-0.1-1.1-0.1-1.7c0-0.2,0-0.3,0-0.5s0.1-0.3,0.3-0.4s0.4,0,0.6,0.1
		c0.5,0.2,0.9,0.2,1.4,0.1s0.9-0.2,1.4-0.3c1.6-0.5,3.2-0.9,4.6-1.6c0.4-0.2,0.9-0.5,1.3-0.7c1.7-0.9,2.8-1.3,4.6-2.1
		c0.9-0.4,1.8-0.6,2.8-0.9c0.6-0.2,1.1-0.4,1.6-0.7c0.9-0.4,1.8-0.9,2.5-1.6c0.3-0.3,0.4-0.7,0.5-1.1c0.2-0.5,0.4-0.9,0.6-1.4
		s0.5-1,0.6-1.5c0.2-0.8,0.2-1.7,0.4-2.5c0.1-0.5,0.2-0.9,0.3-1.4c0.1-0.2,0.2-0.5,0.2-0.7s0-0.4,0.1-0.6c0.2-0.4,0.5-0.8,0.6-1.3
		c0.1-0.4-0.2-0.6-0.3-1c-0.1-0.2-0.1-0.3,0-0.5s0.2-0.3,0-0.5s-0.3-0.7-0.3-1c0-0.5,0-1,0.2-1.4c0-0.1,0.1-0.2,0.1-0.3
		c0.1-0.2,0-0.4,0-0.6c0-0.2,0-0.5,0.1-0.7s0.1-0.3,0.1-0.5c0-0.1,0-0.2,0-0.4c0-0.1,0-0.2,0-0.2c0.1-0.4,0.1-0.9,0.2-1.3
		c0.2-0.5,0.3-0.9,0.5-1.4c0.3-0.5,0.7-1.1,1.1-1.5c0.3-0.3,0.6-0.6,0.9-0.9c0.3-0.4,0.6-0.7,0.9-1c0.2-0.2,0.4-1.8,0.6-2
		c0.1-0.1,0.3-0.1,0.3-0.2c0.1-0.1,0.1-0.3,0.1-0.4c0.2-0.4,0.4-0.7,0.7-1c0.2-0.2,0.4-0.5,0.6-0.6c0,0,1.7,0.5,2.2,0.6
		c0.7,0.2,1,0,1.4,0.2s4.8,2.9,5.1,2.9c0.6,0.1,1,0.6,1.6,0.9c0.6,0.4,1.1,0.5,1.8,0.9c0.3,0.2,0.5,0.5,0.6,0.8
		c0.1,0.2,0.2,0.5,0.3,0.7c0,0.2-0.1,0.4-0.2,0.6c-0.2,0.4-0.5,0.7-0.8,1c-0.1,0.1-0.2,0.3-0.3,0.5c0,0.1-0.6,1.4-0.6,1.6
		c0,0.1,0.1,0.2,0.1,0.3c0.3,0.4,0.7,0.7,1.2,1c0.4,0.3,0.8,0.5,1.2,0.8c1.1,0.8,1.8,2.1,2.6,3.2c0.3,0.5,0.8,1,1.1,1.5
		c0.4,0.6,1,1.1,1.5,1.7c0.6,0.8,1.1,1.6,1.7,2.5c0.4,0.6,0.9,1.2,1.3,1.9c0.6,0.8,1.1,1.7,1.6,2.7c0.2,0.4,0.4,0.8,0.5,1.3
		c0,0.3-0.1,0.6-0.1,0.9c-0.1,0.4-0.1,0.7,0.1,1c0.2,0.4,0.4,0.7,0.6,1s0.3,0.6,0.3,0.9c0.1,0.6,0,1.2,0.2,1.9
		c0.1,0.6,0.5,1.1,0.8,1.7c0,0.1,0.2,0.4,0.3,0.5c0.1,0.2,0.3,0.4,0.4,0.6c0.3,0.7,0.9,1.3,1,2.1c0.1,0.6,0,1.1,0.2,1.7
		c0.1,0.3,0.3,0.5,0.3,0.8c0.1,0.3,0.2,0.6,0.4,0.9c0.6,0.9,1.1,1.9,1.7,2.8c0.5,0.7,0.8,1.4,1.1,2.2c0.1,0.3,0.2,0.6,0.4,0.9
		c0.3,0.5,0.7,0.9,0.8,1.4c0.1,0.4,0,0.9,0.3,1.2c0.2,0.2,0.3,0.7,0.2,1c-0.3,0.4-0.9,0.7-1.3,1c-0.8,0.5-1.5,0.9-2.4,1.1
		s-1.9,0.3-2.8,0.4c-0.8,0-1.5,0-2.3-0.1c-0.5-0.1-1.3,0-1.7-0.5c-0.2-0.2-0.1-0.5,0-0.8c0.1-0.4,0.3-0.9,0.3-1.4
		c0-0.4,0.3-0.7,0.4-1.1c0-0.4,0-0.7-0.2-1.1c0-0.1-0.1-0.2-0.1-0.3c-0.1-0.1-0.3-0.2-0.4-0.3c-0.2-0.1-0.4-0.2-0.5-0.4
		c0-0.1,0-0.1,0-0.2s0-0.2,0-0.4c0.1-0.3,0.2-0.7-0.1-0.9c-0.1-0.1-0.3-0.1-0.3-0.2c-0.1-0.2-0.1-0.4-0.1-0.5c0-0.2,0-0.4-0.1-0.6
		c-0.1-0.4-0.2-0.8-0.3-1.2c-0.1-0.6-0.3-1.2-0.6-1.7c-0.1-0.2-0.2-0.4-0.3-0.6c-0.2-0.4-0.1-0.9-0.4-1.2c-0.2-0.2-0.4-0.3-0.5-0.5
		c-0.3-0.4-0.3-1-0.5-1.4c-0.1-0.1-0.2-0.2-0.2-0.3c-0.3-0.4-0.4-0.9-0.5-1.4c0-0.2,0-0.4,0-0.6s-0.1-0.5-0.2-0.7
		c-0.4-1-0.9-1.9-1.2-2.9c-0.1-0.3-0.1-0.7-0.3-0.9c-0.2-0.2-0.6-0.3-0.9-0.5c-0.2-0.1-0.4-0.2-0.6-0.4c-0.2-0.2-0.2-0.4-0.4-0.6
		s-0.3-0.4-0.4-0.6c-0.1-0.2-0.3-0.2-0.5-0.3c-0.2-0.1-0.3-0.4-0.4-0.6c-0.1-0.3-0.3-0.4-0.5-0.6c-0.1-0.1-0.2-0.2-0.3-0.3
		s-0.3-0.2-0.4-0.3c-0.1-0.1-0.3-0.3-0.4-0.5c-0.9-1.2-1.9-2.3-2.9-3.3c-0.3-0.3-0.4-0.3-0.7-0.7"/>
	<g>
		<path class="st1" d="M10.2,77.3c-0.3,0-0.5,0-0.8-0.2c-0.3-0.1-0.5-0.3-0.7-0.5s-0.3-0.5-0.4-0.8c-0.1-0.3-0.2-0.5-0.2-0.8
			c-0.1-0.5,0-1.2,0.4-1.7c0.4-0.4,0.9-0.8,1.4-0.8c-0.5,0.2-0.8,0.6-1.1,1s-0.3,0.9-0.2,1.3c0,0.2,0.1,0.5,0.2,0.7
			c0,0.5,0.1,0.7,0.2,0.9C9.3,76.9,9.7,77.1,10.2,77.3z"/>
	</g>
	<g>
		<path class="st1" d="M7.9,79c0.3,0,0.5,0.1,0.7,0.2c0.2,0.2,0.3,0.4,0.3,0.7c-0.3-0.1-0.5-0.2-0.6-0.3C8.1,79.4,8,79.3,7.9,79z"/>
	</g>
	<g>
		<path class="st1" d="M8.6,78.6c0.3,0,0.5,0.2,0.6,0.4c0.1,0.2,0.2,0.4,0.1,0.7c-0.3-0.1-0.4-0.3-0.5-0.4
			C8.7,79.1,8.6,78.9,8.6,78.6z"/>
	</g>
	<g>
		<path class="st1" d="M73.6,88.8c-0.1-0.3,0-0.5,0.2-0.6s0.4-0.1,0.6,0.1c0,0.3-0.1,0.5-0.2,0.6C74.1,88.9,73.9,88.9,73.6,88.8z"/>
	</g>
	<g>
		<path class="st1" d="M49.2,55.6c0.1-0.3,0.5-0.2,0.7-0.3c0.2,0,0.4-0.1,0.6-0.3c0.4-0.3,0.8-0.6,1.2-0.8c0.4-0.3,0.8-0.5,1.3-0.7
			c0.4-0.2,0.9-0.4,1.4-0.5c-0.4,0.3-0.8,0.6-1.2,0.9c-0.4,0.3-0.8,0.5-1.2,0.8s-0.8,0.5-1.2,0.7c-0.2,0.1-0.5,0.2-0.8,0.2
			C49.6,55.6,49.4,55.5,49.2,55.6z"/>
	</g>
	<g>
		<path class="st1" d="M49.3,55.7c1.8,1.9,3.9,3.6,5.7,5.6c0.9,1,1.7,2.1,2.2,3.4c0.5,1.2,1,2.5,1.5,3.7c0.3,0.6,0.6,1.2,0.9,1.8
			c0.2,0.3,0.3,0.6,0.5,0.9s0.2,0.7,0.3,1c0.1,0.2,0.1,0.3,0.2,0.5c0,0.2,0,0.3,0.1,0.5c0.1,0.3,0.2,0.6,0.4,0.9s0.3,0.6,0.5,0.8
			c0.2,0.3,0.4,0.5,0.5,0.9c0.1,0.3,0.2,0.6,0.3,1c0.1,0.3,0.2,0.7,0.2,1s0.1,0.7,0,1c0,0.4-0.2,0.7-0.1,0.9
			c0.1,0.3,0.4,0.5,0.6,0.8l0.6,0.8c0.4,0.5,0.8,1.1,1.2,1.6l-0.1,0.1c-0.4-0.5-0.8-1-1.2-1.6L63,80.5c-0.2-0.3-0.4-0.5-0.6-0.8
			c-0.2-0.4,0-0.7,0-1s0-0.6,0-1c0-0.3-0.1-0.7-0.2-1c-0.1-0.3-0.2-0.7-0.3-0.9c-0.1-0.3-0.3-0.5-0.5-0.8s-0.3-0.6-0.5-0.9
			s-0.3-0.6-0.4-0.9c0-0.2-0.1-0.4-0.1-0.5s-0.1-0.3-0.2-0.5c-0.1-0.4-0.1-0.6-0.3-0.9c-0.1-0.3-0.3-0.6-0.5-0.9
			c-0.3-0.6-0.6-1.2-0.9-1.8c-0.6-1.2-1.1-2.4-1.6-3.7c-0.5-1.2-1.3-2.3-2.1-3.3c-1.8-2-3.9-3.6-5.7-5.5L49.3,55.7z"/>
	</g>
	<g>
		<path class="st1" d="M68.6,14c0.7-0.2,1.5-0.4,2.1-0.8c0.3-0.2,0.6-0.4,0.9-0.7c0.3-0.2,0.5-0.5,0.7-0.8v0.1v-0.2c0,0,0,0-0.1-0.1
			c-0.2-0.1-0.5-0.1-0.7-0.2c-0.5-0.1-1.1-0.1-1.6-0.1s-1.1-0.1-1.6-0.1s-1.1-0.1-1.6,0c0,0,0,0,0.1-0.1c0-0.2,0-0.2,0-0.2h0.1
			c0.1,0,0.2,0,0.4,0h0.8c0.5,0,1.1,0,1.6,0s1.1,0,1.6,0.1c0.3,0,0.5,0,0.8,0.1c0.2,0,0.3,0,0.5,0.3c0.1,0.2,0.2,0.4,0.1,0.5h-0.4
			c0-0.1,0-0.2-0.1-0.2c0,0-0.1,0-0.2,0c-0.2,0-0.5,0-0.8,0c-0.5,0-1.1,0-1.6,0s-1.1,0-1.6-0.1c-0.3,0-0.5,0-0.8-0.1
			c-0.1,0-0.3-0.1-0.5-0.1c-0.1,0-0.2-0.1-0.3-0.1c0,0-0.2-0.1-0.1-0.3s0.2-0.2,0.3-0.2c1.2,0,2.2,0.1,3.3,0.1h1.6
			c0.3,0,0.6,0,0.9,0.1c0.2,0,0.4,0.1,0.5,0.4c0.1,0.3,0,0.4,0,0.6l0,0l0,0c-0.3,0.4-0.5,0.7-0.8,1s-0.7,0.5-1,0.7
			c-0.7,0.4-1.6,0.6-2.4,0.6L68.6,14z"/>
	</g>
	<g>
		<path class="st1" d="M66.6,11.2c-0.2,0.1-0.5,0.2-0.7,0.3c-0.1,0.1-0.2,0.1-0.3,0.1c-0.1,0-0.3-0.1-0.4-0.3v-0.1
			c0.1-0.2,0.2-0.3,0.3-0.4c0.1-0.1,0.3,0,0.4,0C66.1,11,66.4,11,66.6,11.2L66.6,11.2z"/>
	</g>
	<g>
		<path class="st1" d="M59.8,15.4c0.2-0.3,0.4-0.5,0.6-0.6c0.1,0,0.3-0.1,0.3-0.2c0.1-0.1,0.1-0.2,0.1-0.4C61,14,61,13.9,61,13.8
			c0-0.1,0-0.3,0-0.4c0.1-0.3,0.1-0.6,0.3-0.8l0,0c0.1,0.3,0.1,0.6,0.1,0.9c0,0.1,0,0.3-0.1,0.4c0,0.2-0.2,0.4-0.3,0.4
			c-0.1,0.2-0.2,0.6-0.4,0.8C60.5,15.3,60.2,15.4,59.8,15.4L59.8,15.4z"/>
	</g>
	<g>
		<path class="st1" d="M58.4,14.7c0.2,0.1,0.1,0.4,0.1,0.4s0.1,0.4-0.1,0.6h-0.1c-0.2,0.1-0.2-0.6-0.2-0.6S58,14.8,58.4,14.7
			L58.4,14.7z"/>
	</g>
	<g>
		<path class="st1" d="M87.4,29.3c0-0.4,0.2-0.8,0.4-1.1c0.2-0.3,0.5-0.6,0.8-0.8c0.3-0.2,0.6-0.4,1-0.6c0.3-0.1,0.7-0.3,1.1-0.2
			c-0.4,0.1-0.6,0.3-0.9,0.5s-0.6,0.4-0.8,0.6c-0.3,0.2-0.5,0.5-0.8,0.7C87.9,28.7,87.6,28.9,87.4,29.3z"/>
	</g>
	<g>
		<path class="st1" d="M38.9,37.3c0.8,0,1.3,0.5,1.8,0.7l1.6,0.9l3.3,1.8c1.1,0.6,2.2,1.2,3.3,1.9c0.5,0.4,1.1,0.7,1.5,1.2
			s0.8,0.9,1.5,1c-0.7,0.2-1.3-0.3-1.8-0.6c-0.4-0.4-0.9-0.7-1.5-1.1c-1-0.7-2.1-1.3-3.2-1.9l-3.3-1.8l-1.6-0.9
			c-0.6-0.3-1.1-0.7-1.6-0.7V37.3z"/>
	</g>
	<g>
		<path class="st1" d="M42.2,48.6c-0.1,0.5,0.1,1,0,1.5c0,0.5-0.2,1-0.4,1.5c-0.1,0.2-0.2,0.4-0.2,0.6c0,0.2-0.1,0.5-0.2,0.7
			c-0.1,0.5-0.4,1-0.6,1.4c-0.1,0.2-0.2,0.4-0.3,0.7c-0.1,0.2-0.2,0.4-0.2,0.6c0,0.3-0.2,0.6-0.3,0.8s-0.1,0.3-0.2,0.6
			c-0.2,0.5-0.4,0.9-0.7,1.4c-0.2,0.4-0.4,0.9-0.7,1.3c-0.9,1.7-1.9,3.5-2.8,5.1c-0.4,1-1.2,1.5-1.5,2.5c-0.4,0.9-1.3,1.7-2.2,2
			c0.9-0.5,1.5-1.2,1.8-2.1c0.1-0.5,0.4-0.9,0.7-1.3s0.6-0.8,0.8-1.2c1-1.7,1.9-3.4,2.8-5.1c0.2-0.4,0.4-0.9,0.6-1.3l0.6-1.3
			c0.1-0.2,0.1-0.5,0.2-0.8c0.1-0.2,0.2-0.4,0.2-0.6c0-0.3,0.1-0.6,0.2-0.8c0.1-0.2,0.1-0.5,0.3-0.7c0.3-0.4,0.4-0.8,0.6-1.3
			c0.1-0.2,0.1-0.5,0.2-0.7c0-0.2,0.1-0.6,0.3-0.8c0.2-0.4,0.5-0.8,0.6-1.3C42.1,49.6,42.1,49.1,42.2,48.6z"/>
	</g>
	<g>
		<path class="st1" d="M32.3,70.1c-0.2,0.4-0.5,0.7-1,0.8C30.9,71,30.4,71,30,71c-0.4-0.1-0.8-0.2-1.2-0.2c-0.4,0-0.7,0.2-1.1,0.4
			c-0.4,0.2-0.7,0.4-1,0.7c-0.2,0.2-0.5,0.2-0.7,0.3c-0.2,0-0.4,0-0.6,0.1c-0.8,0.2-1.5,0.5-2.3,0.9c-0.7,0.4-1.5,0.9-2.3,1.2
			c-0.8,0.4-1.7,0.4-2.4,0.7c-0.4,0.2-0.8,0.3-1.3,0.4c-0.4,0.1-0.9,0.1-1.3,0.1c-0.4,0-0.7,0.2-1.1,0.4c-0.4,0.2-0.7,0.4-1,0.7
			c0.2-0.4,0.6-0.6,0.9-0.9c0.3-0.2,0.7-0.6,1.2-0.6c0.9,0,1.6-0.1,2.4-0.5c0.4-0.2,0.9-0.3,1.2-0.4c0.4-0.1,0.8-0.2,1.2-0.3
			c0.7-0.3,1.5-0.8,2.2-1.2c0.7-0.4,1.5-0.8,2.4-1c0.4-0.1,0.9-0.1,1.1-0.3c0.3-0.3,0.7-0.5,1.1-0.7s0.8-0.4,1.3-0.4
			s0.9,0.1,1.3,0.2s0.8,0.2,1.2,0.2C31.7,70.7,32.1,70.5,32.3,70.1z"/>
	</g>
	<g>
		<path class="st1" d="M10.3,77.2c0.4,0.1,0.8,0,1.2-0.3c0.2-0.1,0.5-0.2,0.8-0.2s0.5,0,0.8,0.1L13,76.9c-0.2,0-0.4,0-0.7,0
			c-0.2,0-0.4,0.1-0.6,0.3c-0.2,0.1-0.4,0.3-0.6,0.5c-0.3,0.1-0.5,0.2-0.8,0.2L10.3,77.2z"/>
	</g>
	<g>
		<path class="st1" d="M10,79.9c0,0.2,0,0.5-0.1,0.8c0,0.3-0.2,0.5-0.4,0.7c-0.2,0.1-0.5,0.2-0.8,0.3c-0.3,0-0.6,0-0.8-0.4
			c-0.1-0.4,0.1-0.7,0.3-0.9c0.2-0.2,0.3-0.4,0.5-0.5c0.2-0.2,0.4-0.3,0.7-0.3c0.2,0,0.3,0,0.5,0c0.1,0,0.2,0.2,0.1,0.2
			C10,79.8,10,79.9,10,79.9z M9.9,79.9c0-0.1,0-0.3-0.1-0.2c0,0-0.1,0.1-0.2,0.2c-0.1,0.2-0.3,0.4-0.4,0.5c-0.3,0.3-0.8,0.6-0.9,0.7
			c-0.1,0.1,0.2,0.3,0.3,0.2C8.8,81.2,8.9,81,9,80.8s0.3-0.3,0.5-0.4S9.9,80.1,9.9,79.9z"/>
	</g>
	<g>
		<path class="st1" d="M57,41.3c0.2-0.2,0.6-0.2,0.9-0.1c0.2,0,0.4,0.1,0.7,0.2c0.2,0.1,0.4,0.2,0.6,0.2c0.3,0,0.5,0.1,0.8,0.2
			c-0.2,0.2-0.5,0.3-0.8,0.4c-0.3,0.1-0.7,0-0.9-0.1s-0.5-0.2-0.7-0.4C57.4,41.5,57.3,41.4,57,41.3z"/>
	</g>
	<g>
		<path class="st1" d="M54.3,17.8c0.1-0.2,0.2-0.2,0.2-0.2c0.1,0,0,0.1,0,0.2l0,0l0,0c0,0,0-0.1-0.1-0.1c0-0.1,0-0.1,0-0.1
			L54.3,17.8c0,0,0.2-0.1,0.4-0.1h0.1c0.2,0.1,0.3,0.2,0.3,0.2V18c0,0.1-0.1,0.1-0.2,0.1c-0.1,0-0.1,0-0.2-0.1c-0.1,0-0.1,0-0.2,0
			l0,0c-0.1,0.1-0.2,0.2-0.2,0.1C54.2,18.1,54.2,18,54.3,17.8L54.3,17.8z"/>
	</g>
	<path class="st4" d="M9.9,71.4c-0.1,0-0.2,0-0.3,0c-0.2,0-0.5,0-0.7-0.1c-0.1,0-0.1,0-0.2-0.1c-0.1-0.1-0.1-0.1-0.2-0.2
		c-0.1,0-0.1,0-0.2,0c-0.2-0.1-0.3-0.2-0.5-0.2c-0.6-0.2-1.3-0.3-2-0.2c-0.4,0-0.8,0.2-1.1,0.4c-0.1,0.1-0.2,0.2-0.3,0.3
		c-0.1,0.1-0.1,0.2-0.2,0.3c-0.2,0.2-0.5,0-0.7,0.2s-0.3,1.2,0.1,1c0,0.4-0.3,2.1-0.2,2.3c0,0.2-0.3,0.2-0.4,0.3
		c-0.1,0-0.1,0-0.2,0.1c-0.1,0.1-0.2,0.4-0.1,0.6c0,0.4,0.1,0.2,0.3,0.3c0.5,0.2,0.4,1.2,0.4,1.5c0,0.4,0.1,1.4-0.2,1.8
		c-0.1,0.1-0.2,0.1-0.3,0.1s-0.2,0-0.2,0.1c-0.1,0.1-0.1,0.2-0.1,0.4c0,0.2,0,0.4,0,0.5c0,0,0.3,0.1,0.3,0.2c0.1,0.1,0,0.3,0.1,0.4
		c0,0.3,0,0.7,0,1c0,0.1,0,0.2,0,0.3c0,0.1-0.1,0.1-0.1,0.1l0,0l0,0c0,0.1,0,0.2,0,0.3c0,0.1,0,0.1,0,0.2c0,0.2,0.2,0.2,0.3,0.3
		c0.2,0.2,0.2,0.4,0.2,0.6s0,0.4,0.1,0.6c0,0.2,0.1,0.3,0.2,0.4c0.2,0.3,0.4,0.5,0.7,0.6c0.2,0.1,0.4,0.1,0.6,0.1s0.4,0,0.6-0.1
		c0.3-0.1,0.5-0.4,0.7-0.6c0.2-0.3,0.3-0.6,0.4-0.8c0.1-0.4,0.2-0.8,0.4-1.2c0.3-0.8,0.7-1.5,1.2-2.2c0.3-0.4,0.6-0.7,1-0.9
		c0.4-0.2,0.9-0.2,1.4-0.2"/>
	<g>
		<path class="st1" d="M7,79.8c0.3,0,0.5,0.1,0.7,0.3C7.9,80.3,8,80.5,8,80.8c-0.3-0.1-0.5-0.2-0.6-0.4C7.2,80.3,7.1,80.1,7,79.8z"
			/>
	</g>
	<g>
		<path class="st1" d="M7.5,79.5c0.3,0,0.5,0.1,0.6,0.3c0.1,0.2,0.2,0.4,0.2,0.7c-0.3-0.1-0.4-0.2-0.6-0.3
			C7.7,79.9,7.6,79.7,7.5,79.5z"/>
	</g>
	<path class="st4" d="M72.8,86.9c0.1,0.3,0.4,0.6,0.7,0.7c0.7,0.5,1.4,1,2.2,1.4c0.8,0.4,1.6,0.7,2.4,1c0.4,0.2,0.8,0.4,1.1,0.7
		c0.6,0.6,0.5,1.4-0.3,1.8c-0.5,0.2-1.1,0.2-1.6,0.2c-2.5-0.2-5.1-0.3-7.6-0.5c-1.6-0.1-3.3-0.2-4.9-0.3c-0.6,0-1.3,0-1.9-0.3
		c-0.6-0.3-1.1-0.8-1.1-1.5c0-0.3,0.2-0.6,0.3-0.9c0-0.3,0-0.5,0.3-0.7"/>
	<g>
		<path class="st1" d="M78.8,92c-1.4,0.5-2.9,0.4-4.3,0.3c-0.7,0-1.5-0.2-2.1-0.2c-0.3,0-0.7,0-1.1,0s-0.8-0.1-1.1-0.2
			c-0.7-0.2-1.4-0.4-2-0.5c-0.7-0.1-1.4-0.1-2.1-0.1s-1.5,0.1-2.2-0.3c-0.6-0.3-1.4-0.7-1.7-1.4c0.5,0.5,1.2,0.7,1.8,1
			c0.6,0.2,1.3,0.1,2,0c0.7,0,1.4,0,2.2,0c0.8,0.1,1.5,0.3,2.1,0.5c0.7,0.2,1.3,0.2,2.1,0.3c0.8,0.1,1.4,0.3,2.1,0.4
			C76,91.9,77.4,92.2,78.8,92z"/>
	</g>
	<g>
		<path class="st1" d="M73.6,88.8c-0.1-0.3,0-0.5,0.2-0.6s0.4-0.1,0.6,0.1c0,0.3-0.1,0.5-0.2,0.6C74.1,88.9,73.9,88.9,73.6,88.8z"/>
	</g>
	<g>
		<path class="st1" d="M5.9,71c-0.4,1.1-0.9,2.2-1.1,3.3c-0.2,1.1-0.3,2.3-0.5,3.5c-0.1,0.6-0.2,1.1-0.2,1.7s0,1.2-0.1,1.8
			c0,0.6-0.1,1.2-0.1,1.8c0,0.6,0,1.2,0.2,1.7c-0.4-0.5-0.5-1.1-0.6-1.7s-0.1-1.2-0.1-1.8c0-0.6,0-1.2,0-1.8c0-0.6,0.1-1.2,0.2-1.8
			c0.2-1.1,0.4-2.3,0.7-3.5C4.5,72.9,5.2,71.9,5.9,71z"/>
	</g>
	<path class="st4" d="M46.3,23.5c-1,0.6-2,1.1-3.1,2c-0.9,0.7-1.7,1.9-2.3,2.9c-0.5,0.8-0.9,1.2-1.4,2c-0.1,0.1-0.1,0.2-0.1,0.3
		c0,0.1,0.1,0.1,0.1,0.2c0.6,0.6,1.2,1.2,2,1.6c0,0,0,0.1,0.1,0.1"/>
	<g>
		<path class="st1" d="M42.5,48.4c0.1-0.5,0.2-1,0.2-1.5l0.1-0.8c0-0.2,0.1-0.6,0.2-0.8c0.2-0.5,0.3-1,0.6-1.4s0.6-0.9,1-1.2l0,0
			c-0.2,0.5-0.4,0.9-0.6,1.4c-0.2,0.5-0.4,0.9-0.6,1.4c-0.1,0.3-0.2,0.4-0.2,0.7L43.1,47C42.8,47.4,42.7,47.9,42.5,48.4L42.5,48.4z"
			/>
	</g>
	<g>
		<path class="st1" d="M97.6,38.3c-0.2,0.1-0.5,0.1-0.7,0.2c-0.1,0-0.2,0-0.4,0.1c-0.1,0-0.2,0-0.5,0c-0.3-0.1-0.3-0.4-0.3-0.5v-0.4
			c0-0.2-0.1-0.5-0.1-0.7c-0.1-0.2,0-0.6,0.3-0.8c0.3-0.1,0.6-0.2,0.9,0c0.1,0.1,0.1,0.1,0.2,0.2c0.1,0.1,0,0.3,0,0.4
			c-0.1,0.1-0.2,0.2-0.2,0.2l0,0c0,0,0.1,0.1,0.1,0.2l0,0c0,0,0,0,0.1,0l0.2,0.2c0,0.1-0.1,0.1-0.2,0.2c-0.1,0.1-0.3,0-0.4-0.1
			s-0.1-0.1-0.1-0.2c0-0.1-0.1-0.1-0.1-0.3c0.4-0.6,0.3-0.2,0.2-0.4c-0.1-0.1-0.3-0.2-0.5-0.1c-0.2,0.1-0.2,0.2-0.2,0.5
			c0.1,0.2,0.1,0.5,0.2,0.7c0,0.1,0.1,0.2,0.1,0.3s0.1,0.2,0.1,0.1c0,0,0.1,0,0.3,0c0.1,0,0.2,0,0.3,0c0.2,0,0.5,0,0.7,0V38.3z"/>
	</g>
	<g>
		<path class="st1" d="M93.4,36.5c0.2,0.3,0.5,0.3,0.8,0.4c0.2,0.1,0.4,0.2,0.5,0.4s0.3,0.3,0.2,0.6c-0.1,0.1-0.1,0.2-0.2,0.3
			s-0.2,0.2-0.4,0.2c-0.3,0-0.4-0.1-0.6-0.2c-0.1-0.1-0.2-0.1-0.2-0.1c-0.1,0-0.1-0.1-0.2-0.1c-0.1-0.1-0.4-0.2-0.4-0.5l0,0
			c0.1,0.1,0.3,0.1,0.5,0.1c0.1,0,0.2,0,0.3,0.1c0.1,0,0.2,0.1,0.3,0.1c0.1,0.1,0.3,0.2,0.4,0.2s0.2,0,0.3-0.1c0.1,0,0-0.3-0.1-0.4
			c-0.1-0.1-0.3-0.1-0.4-0.1c-0.2,0-0.4-0.1-0.6-0.2C93.4,36.9,93.3,36.7,93.4,36.5L93.4,36.5z"/>
	</g>
	<g>
		<path class="st1" d="M94.7,38c-0.1,0.1,0,0.3,0.1,0.4c0,0.1,0.1,0.1,0.1,0.2c0,0.1,0,0.2-0.1,0.3l0,0c-0.2-0.1-0.2-0.1-0.3-0.2
			c0,0,0-0.2,0-0.3s0-0.2,0-0.3C94.5,38.1,94.5,38,94.7,38L94.7,38z"/>
	</g>
	<g>
		<path class="st1" d="M95.1,37.7c-0.1-0.1-0.3-0.2-0.3-0.5c0-0.1,0-0.2,0-0.3s0.1-0.3,0.3-0.3c0.3-0.1,0.6,0,0.7,0.2
			s0.2,0.3,0.1,0.6l0,0c-0.2-0.1-0.3-0.2-0.4-0.2c-0.1-0.1-0.1-0.1-0.2-0.1s-0.1,0-0.1,0.2C94.9,37.3,95,37.5,95.1,37.7L95.1,37.7z"
			/>
	</g>
	<g>
		<path class="st1" d="M95.6,39c-0.1-0.3-0.2-0.6-0.4-0.8C95.1,38.1,95,38,95,37.9v-0.1c0,0,0-0.1-0.2-0.1l0,0c0,0,0-0.1,0-0.2
			c0.1,0,0.1-0.1,0.2-0.1c0.2,0,0.3,0.1,0.4,0.1c0.2,0.2,0.2,0.4,0.2,0.5c0,0.2,0.1,0.3,0.1,0.5L95.6,39L95.6,39z"/>
	</g>
	<g>
		<path class="st1" d="M96.2,39.1c-0.5,0-1,0.1-1.4,0.1h-0.7c-0.2,0-0.4,0.1-0.3,0.1c0.1,0.2,0.7,0.2,1.2,0.3s0.9,0.2,1.4,0.2l0,0
			c-0.4,0.3-1,0.3-1.5,0.2c-0.3,0-0.5-0.1-0.7-0.1c-0.2-0.1-0.5-0.1-0.7-0.5c-0.1-0.2,0.1-0.5,0.3-0.5c0.1-0.1,0.3-0.1,0.4,0
			l0.7,0.1C95.3,39,95.7,39,96.2,39.1L96.2,39.1z"/>
	</g>
	<g>
		<path class="st1" d="M95.6,38.5c0.1,0,0.1,0,0.2,0s0.1,0,0.2,0.1s0.1,0.1,0.2,0.2c0.1,0.1,0.1,0.1,0.2,0.2
			c0.1,0.1,0.2,0.2,0.2,0.3l0,0c-0.1,0-0.2-0.1-0.3-0.1c-0.1,0-0.2-0.1-0.3-0.1c-0.1,0-0.3-0.1-0.3-0.2c0-0.1-0.1-0.1-0.1-0.2
			C95.5,38.7,95.5,38.6,95.6,38.5L95.6,38.5z"/>
	</g>
	<g>
		<path class="st1" d="M96.8,38.2c0,0.1,0,0.2,0.1,0.3v0.1c-0.2,0-0.4,0-0.5-0.2L96.8,38.2z"/>
	</g>
</g>
</svg>
